<svg width="34" height="33" viewBox="0 0 34 33" fill="none" xmlns="http://www.w3.org/2000/svg">
<path d="M31.7307 0.48291H2.27155C1.56309 0.48291 0.990723 1.05528 0.990723 1.76374V31.2229C0.990723 31.9313 1.56309 32.5037 2.27155 32.5037H31.7307C32.4391 32.5037 33.0115 31.9313 33.0115 31.2229V1.76374C33.0115 1.05528 32.4391 0.48291 31.7307 0.48291ZM28.0323 9.82897H25.4746C23.4693 9.82897 23.0811 10.7816 23.0811 12.1825V15.2685H27.8682L27.2438 20.0996H23.0811V32.5037H18.0898V20.1036H13.9151V15.2685H18.0898V11.7062C18.0898 7.57151 20.6155 5.31805 24.3059 5.31805C26.075 5.31805 27.592 5.45013 28.0363 5.51017V9.82897H28.0323Z" fill="white"/>
</svg>
