<svg width="80" height="81" viewBox="0 0 80 81" fill="none" xmlns="http://www.w3.org/2000/svg">
<path d="M54.388 26.0443H49.176V19.7883H54.388V26.0443Z" fill="#FCD751"/>
<path d="M56.812 20.259H46.7493L51.7813 13.655L56.812 20.259Z" fill="#FCD751"/>
<path d="M8.34665 80.2363H6.11465V17.4977H8.34665V80.2363Z" fill="#1C4670"/>
<path d="M68.244 73.5483V75.775H0.537323V73.5483H68.244Z" fill="#1C4670"/>
<path d="M21.8227 70.3763H11.516V56.015H21.8227V70.3763Z" fill="#AEBFCE"/>
<path d="M32.1586 70.3763H21.8493V50.839H32.1586V70.3763Z" fill="#FFA229"/>
<path d="M42.4933 70.3763H32.1853V41.099H42.4933V70.3763Z" fill="#1C4670"/>
<path d="M52.828 70.3763H42.52V33.9403H52.828V70.3763Z" fill="#FFA229"/>
<path d="M63.1627 70.3763H52.8547V24.4937H63.1627V70.3763Z" fill="#AEBFCE"/>
<path d="M16.508 51.3403L14.5347 49.963L20.36 41.623H25.6973L31.1627 31.2483H36.692L42.1307 23.3123H47.5133L52.8093 13.631L54.7533 11.531L56.5213 13.1643L54.68 15.1536L48.9453 25.7203H43.3973L37.9613 33.6536H32.6147L27.1493 44.0297H21.6147L16.508 51.3403Z" fill="#1C4670"/>
<path d="M58.1867 16.6217L60.308 7.259L51.14 10.1003L58.1867 16.6217Z" fill="#1C4670"/>
<path d="M76.2667 59.5577H69.404V51.319H76.2667V59.5577Z" fill="#FCD751"/>
<path d="M79.4627 51.9403H66.208L72.8347 43.243L79.4627 51.9403Z" fill="#FCD751"/>
<path d="M21.4933 40.8177H14.6293V32.5803H21.4933V40.8177Z" fill="#FCD751"/>
<path d="M24.6893 33.2003H11.4347L18.0613 24.503L24.6893 33.2003Z" fill="#FCD751"/>
<path d="M36.3693 10.827H32.0347V5.62433H36.3693V10.827Z" fill="#FCD751"/>
<path d="M38.3893 6.01633H30.0173L34.2027 0.521666L38.3893 6.01633Z" fill="#FCD751"/>
</svg>
