<svg width="81" height="78" viewBox="0 0 81 78" fill="none" xmlns="http://www.w3.org/2000/svg">
<path d="M12.888 38.9121C12.888 22.4017 26.2733 9.0214 42.7813 9.0214V4.15366C23.6173 4.15366 8.02399 19.7427 8.02399 38.9121C8.02399 58.0761 23.6173 73.6699 42.7813 73.6699V68.8017C26.2733 68.8017 12.888 55.4189 12.888 38.9121Z" fill="#768296"/>
<path d="M12.8879 38.9121C12.8879 55.4189 26.2733 68.8017 42.7813 68.8017V63.9375C28.9853 63.9375 17.7559 52.711 17.7559 38.9121C17.7559 25.111 28.9853 13.8845 42.7813 13.8845V9.02139C26.2733 9.02139 12.8879 22.4017 12.8879 38.9121Z" fill="white"/>
<path d="M22.624 38.9121C22.624 27.7949 31.6653 18.7511 42.7813 18.7511V13.8845C28.9853 13.8845 17.756 25.111 17.756 38.9121C17.756 52.711 28.9853 63.9375 42.7813 63.9375V59.0683C31.6653 59.0683 22.624 50.0271 22.624 38.9121Z" fill="#768296"/>
<path d="M22.624 38.9121C22.624 50.0271 31.6653 59.0683 42.7813 59.0683V54.2042C34.3507 54.2042 27.488 47.3427 27.488 38.9121C27.488 30.4761 34.3507 23.6178 42.7813 23.6178V18.7511C31.6653 18.7511 22.624 27.7949 22.624 38.9121Z" fill="white"/>
<path d="M32.3533 38.9121C32.3533 33.1615 37.0307 28.4829 42.7813 28.4829V23.6178C34.3507 23.6178 27.488 30.4761 27.488 38.9121C27.488 47.3427 34.3507 54.2042 42.7813 54.2042V49.3402C37.0307 49.3402 32.3533 44.6605 32.3533 38.9121Z" fill="#768296"/>
<path d="M32.3533 38.9121C32.3533 44.6605 37.0306 49.3402 42.7813 49.3402V44.4725C39.7133 44.4725 37.2199 41.9787 37.2199 38.9121C37.2199 35.8443 39.7133 33.3495 42.7813 33.3495V28.4829C37.0306 28.4829 32.3533 33.1615 32.3533 38.9121Z" fill="white"/>
<path d="M37.22 38.9121C37.22 41.9787 39.7133 44.4725 42.7813 44.4725V33.3495C39.7133 33.3495 37.22 35.8443 37.22 38.9121Z" fill="#768296"/>
<path d="M42.7813 4.15366V9.0214C59.292 9.0214 72.6733 22.4017 72.6733 38.9121C72.6733 55.4189 59.292 68.8017 42.7813 68.8017V73.6699C61.948 73.6699 77.54 58.0761 77.54 38.9121C77.54 19.7427 61.948 4.15366 42.7813 4.15366Z" fill="#768296"/>
<path d="M67.808 38.9121C67.808 52.711 56.58 63.9375 42.7813 63.9375V68.8017C59.292 68.8017 72.6733 55.4189 72.6733 38.9121C72.6733 22.4017 59.292 9.02139 42.7813 9.02139V13.8845C56.58 13.8845 67.808 25.111 67.808 38.9121Z" fill="white"/>
<path d="M67.808 38.9121C67.808 25.111 56.58 13.8845 42.7813 13.8845V18.7511C53.8986 18.7511 62.9426 27.7949 62.9426 38.9121C62.9426 50.0271 53.8986 59.0683 42.7813 59.0683V63.9375C56.58 63.9375 67.808 52.711 67.808 38.9121Z" fill="#768296"/>
<path d="M58.0733 38.9121C58.0733 47.3427 51.216 54.2042 42.7813 54.2042V59.0683C53.8986 59.0683 62.9426 50.0271 62.9426 38.9121C62.9426 27.7949 53.8986 18.7511 42.7813 18.7511V23.6178C51.216 23.6178 58.0733 30.4761 58.0733 38.9121Z" fill="white"/>
<path d="M58.0733 38.9121C58.0733 30.4761 51.216 23.6178 42.7813 23.6178V28.4829C48.5293 28.4829 53.2093 33.1615 53.2093 38.9121C53.2093 44.6605 48.5293 49.3402 42.7813 49.3402V54.2042C51.216 54.2042 58.0733 47.3427 58.0733 38.9121Z" fill="#768296"/>
<path d="M48.3453 38.9121C48.3453 41.9787 45.8493 44.4725 42.7813 44.4725V49.3402C48.5293 49.3402 53.2093 44.6605 53.2093 38.9121C53.2093 33.1615 48.5293 28.4829 42.7813 28.4829V33.3495C45.8493 33.3495 48.3453 35.8443 48.3453 38.9121Z" fill="white"/>
<path d="M48.3453 38.9121C48.3453 35.8443 45.8493 33.3495 42.7813 33.3495V44.4725C45.8493 44.4725 48.3453 41.9787 48.3453 38.9121Z" fill="#768296"/>
<path d="M42.7613 39.347C39.7 34.7777 34.2506 29.6001 34.2506 29.6001L33.4213 30.4751L32.5933 31.347C32.5933 31.347 38.0413 36.523 42.7613 39.347Z" fill="#FFA229"/>
<path d="M33.8773 30.9069C33.8773 30.9069 35.1786 29.7605 34.6093 29.2241L25.1386 20.2271L22.7613 22.7298L32.2346 31.7257C32.8026 32.2631 33.8773 30.9069 33.8773 30.9069Z" fill="#FFA229"/>
<path d="M14.5893 14.9657L16.9666 12.4657L28.6413 23.5522L26.2653 26.0563L14.5893 14.9657Z" fill="#FFA229"/>
<path d="M17.2307 15.0881C17.2307 15.0881 21.056 9.27606 17.596 6.02032C15.04 3.61512 8.70002 -2.70767 2.84668 1.43086C-0.983984 7.48553 5.65332 13.4938 8.18799 15.9241C11.6187 19.2121 17.2307 15.0881 17.2307 15.0881Z" fill="#1C4670"/>
<path d="M11.1453 1.11885C10.6666 0.885518 10.1746 0.681786 9.67196 0.517785L10.0213 8.24431L2.28528 8.29379C2.47461 8.78699 2.70529 9.26992 2.96396 9.73658L11.532 9.68032L11.1453 1.11885Z" fill="white"/>
<path d="M14.612 12.6069L14.18 3.0282C13.6054 2.587 12.9894 2.159 12.3427 1.76833L12.752 10.8375L3.67468 10.8949C4.09468 11.523 4.55733 12.1121 5.024 12.6667L14.612 12.6069Z" fill="white"/>
<path d="M42.116 40.8642C38.296 38.8058 32.588 37.2017 32.588 37.2017L32.3293 38.1178L32.0746 39.0309C32.0746 39.0309 37.784 40.635 42.116 40.8642Z" fill="#FFA229"/>
<path d="M32.8066 38.2511C32.8066 38.2511 33.2933 36.9709 32.6986 36.8069L22.776 34.0189L22.0386 36.6391L31.964 39.4271C32.556 39.5923 32.8066 38.2511 32.8066 38.2511Z" fill="#FFA229"/>
<path d="M13.4773 34.2334L14.2133 31.6121L26.4466 35.0485L25.712 37.6699L13.4773 34.2334Z" fill="#FFA229"/>
<path d="M15.3654 33.3495C15.3654 33.3495 15.8947 27.8818 12.2774 26.887C9.61071 26.1485 2.85869 24.0735 0.297361 29.1189C-0.142639 34.7563 6.70136 36.5001 9.36403 37.2615C12.9707 38.2949 15.3654 33.3495 15.3654 33.3495Z" fill="#1C4670"/>
<path d="M5.97469 25.8454C5.55202 25.8579 5.13468 25.8965 4.72534 25.9667L7.81069 31.2298L2.43335 34.1151C2.74935 34.3855 3.08669 34.6391 3.43735 34.8683L9.39868 31.6761L5.97469 25.8454Z" fill="white"/>
<path d="M12.624 32.5829L8.79334 26.0574C8.23068 25.9615 7.6427 25.8907 7.04803 25.8563L10.676 32.0323L4.36401 35.4178C4.88668 35.699 5.42801 35.9402 5.95601 36.1547L12.624 32.5829Z" fill="white"/>
<path d="M43.3053 39.8615C46.052 35.7642 50.9373 31.1214 50.9373 31.1214L51.6826 31.9069L52.424 32.6897C52.424 32.6897 47.5373 37.3298 43.3053 39.8615Z" fill="#FFA229"/>
<path d="M51.272 32.2938C51.272 32.2938 50.1079 31.2667 50.6173 30.787L59.1093 22.7162L61.2426 24.9605L52.7466 33.0271C52.2373 33.511 51.272 32.2938 51.272 32.2938Z" fill="#FFA229"/>
<path d="M68.568 17.999L66.4387 15.7563L55.968 25.7001L58.0987 27.9443L68.568 17.999Z" fill="#FFA229"/>
<path d="M66.2013 18.1094C66.2013 18.1094 62.772 12.899 65.872 9.97766C68.1653 7.81886 73.852 2.14953 79.1 5.86153C82.536 11.2907 76.5827 16.6787 74.3093 18.859C71.2333 21.8069 66.2013 18.1094 66.2013 18.1094Z" fill="#1C4670"/>
<path d="M71.656 5.58285C72.088 5.37245 72.528 5.18965 72.9787 5.04179L72.6667 11.9709L79.604 12.0162C79.4333 12.4574 79.228 12.8907 78.9947 13.3085L71.3107 13.2574L71.656 5.58285Z" fill="white"/>
<path d="M68.548 15.8829L68.936 7.29486C69.452 6.89899 70.0039 6.51513 70.5853 6.1642L70.2173 14.2975L78.3559 14.3485C77.9786 14.9121 77.5653 15.4402 77.148 15.9366L68.548 15.8829Z" fill="white"/>
<path d="M49.2986 54.0042L43.016 46.1657L36.7506 54.0094H39.8866L39.892 77.6537H46.1746L46.1586 54.0033L49.2986 54.0042Z" fill="#FFA229"/>
<path d="M57.1147 59.8391L52.3933 53.947L47.6707 59.847H50.0333L50.0413 77.6309H54.7613L54.7506 59.8427L57.1147 59.8391Z" fill="#FCD751"/>
<path d="M28.9373 59.8923L33.6506 53.9938L38.376 59.887L36.0147 59.8881L36.024 77.6787L31.308 77.6803L31.2986 59.8923H28.9373Z" fill="#FCD751"/>
<path d="M72.1693 66.187C68.7413 63.1615 77.292 51.9949 74.792 43.7605C71.6066 33.2725 58.0147 35.0777 58.2987 37.0751C58.4133 37.8751 60.2747 40.3803 60.2747 40.3803C60.2747 40.3803 56.344 44.0391 54.468 46.3735C53.328 47.7949 52.1747 49.5615 54.468 51.011C57.3333 52.8203 58.56 51.0751 61.0813 49.4522C61.564 49.1427 62.0013 49.0094 62.388 49.0271C62.6106 49.0246 62.7786 49.1017 62.952 49.1667C63.252 49.3094 63.5093 49.5667 63.72 49.8975C64.376 51.4257 63.3453 54.7094 60.476 57.5203C56.5907 61.3271 57.0186 67.1522 57.0186 67.1579C54.088 69.5975 51.7067 71.4203 51.7067 77.6803H57.048H58.1587H65.164H78.624C78.624 70.6241 75.5973 69.2121 72.1693 66.187Z" fill="#1C4670"/>
</svg>
