<svg width="83" height="88" viewBox="0 0 83 88" fill="none" xmlns="http://www.w3.org/2000/svg">
<path d="M25.4131 2.2017C25.4167 2.41637 25.2864 2.58435 25.1292 2.58435L23.6407 2.57367C23.4781 2.57101 23.3604 2.39902 23.362 2.18835L23.3724 0.988355C23.3697 0.777688 23.5 0.608342 23.6563 0.608342L25.1417 0.621688C25.3011 0.619021 25.4255 0.793704 25.4235 1.00437L25.4131 2.2017Z" fill="#1C4670"/>
<path d="M25.3213 13.8963C25.3229 13.687 25.1969 13.5136 25.0417 13.5123L23.5511 13.5017C23.3973 13.499 23.2672 13.6736 23.2672 13.883L23.2604 15.0816C23.2568 15.2896 23.3812 15.4617 23.5355 15.467L25.0303 15.475C25.1849 15.4763 25.3115 15.307 25.3099 15.099L25.3213 13.8963Z" fill="#1C4670"/>
<path d="M22.3489 2.45102C22.4573 2.63635 22.4323 2.84302 22.2917 2.92036L20.9973 3.65636C20.8645 3.73236 20.6693 3.64703 20.564 3.46437L19.9713 2.41769C19.8656 2.23502 19.8917 2.02568 20.0271 1.94702L21.3229 1.21502C21.4593 1.13502 21.6563 1.22437 21.7588 1.40571L22.3489 2.45102Z" fill="#1C4670"/>
<path d="M28.1156 12.6257C28.014 12.439 27.8193 12.351 27.686 12.4297L26.388 13.163C26.2516 13.243 26.2251 13.4497 26.3307 13.6363L26.9235 14.679C27.0271 14.8603 27.224 14.9496 27.3552 14.8736L28.6547 14.1377C28.7891 14.0617 28.814 13.8497 28.7109 13.667L28.1156 12.6257Z" fill="#1C4670"/>
<path d="M19.8213 4.19498C20.0068 4.30031 20.0869 4.49765 20.0079 4.63232L19.2568 5.91363C19.1735 6.0523 18.9636 6.07232 18.7787 5.96699L17.7464 5.35631C17.5651 5.24964 17.4792 5.05497 17.5651 4.91897L18.3161 3.63499C18.3948 3.50165 18.6068 3.47897 18.7864 3.58831L19.8213 4.19498Z" fill="#1C4670"/>
<path d="M29.8995 10.119C29.7197 10.0136 29.5079 10.0377 29.4287 10.1683L28.6771 11.455C28.5921 11.5896 28.6787 11.783 28.8636 11.891L29.8959 12.499C30.0765 12.6057 30.2907 12.583 30.3697 12.4536L31.1224 11.1657C31.2021 11.031 31.1188 10.8363 30.9349 10.7283L29.8995 10.119Z" fill="#1C4670"/>
<path d="M18.5027 6.97098C18.7145 6.97098 18.8828 7.09763 18.8828 7.25363L18.8724 8.74562C18.8697 8.90029 18.6937 9.02564 18.488 9.02297L17.2864 9.01496C17.0745 9.00963 16.9047 8.88431 16.9088 8.72831L16.9183 7.24029C16.9183 7.08295 17.0921 6.95897 17.3031 6.96164L18.5027 6.97098Z" fill="#1C4670"/>
<path d="M30.1979 7.06167C29.988 7.06167 29.814 7.18702 29.8084 7.33902L29.7969 8.83234C29.7995 8.98701 29.9688 9.115 30.1787 9.11633L31.3803 9.12567C31.5901 9.123 31.7604 9.00299 31.764 8.84432L31.7751 7.35634C31.7803 7.20034 31.6084 7.07235 31.3973 7.06968L30.1979 7.06167Z" fill="#1C4670"/>
<path d="M18.7527 10.031C18.9307 9.92969 19.1407 9.95501 19.2188 10.0897L19.9531 11.387C20.0323 11.5203 19.9453 11.715 19.762 11.819L18.7161 12.411C18.5355 12.5177 18.3229 12.491 18.2448 12.3523L17.5104 11.059C17.4375 10.923 17.5208 10.7283 17.7031 10.6243L18.7527 10.031Z" fill="#1C4670"/>
<path d="M28.9193 4.26568C28.7344 4.37101 28.6536 4.56434 28.7229 4.70034L29.4645 5.99501C29.5407 6.13101 29.7527 6.159 29.9297 6.05233L30.9792 5.46167C31.164 5.35767 31.2484 5.16301 31.1735 5.02834L30.436 3.72967C30.3604 3.59234 30.1527 3.57232 29.9636 3.67365L28.9193 4.26568Z" fill="#1C4670"/>
<path d="M20.4921 12.5617C20.5989 12.3817 20.7927 12.299 20.9297 12.375L22.2161 13.1297C22.3489 13.211 22.374 13.4203 22.2604 13.603L21.6527 14.6377C21.5443 14.8203 21.3516 14.903 21.2188 14.823L19.936 14.0697C19.7959 13.991 19.7787 13.7803 19.8844 13.599L20.4921 12.5617Z" fill="#1C4670"/>
<path d="M26.4183 2.48302C26.3161 2.66435 26.3349 2.87369 26.4677 2.95502L27.7552 3.70701C27.888 3.78834 28.0849 3.70302 28.1917 3.52302L28.7979 2.48835C28.9047 2.30702 28.8844 2.09368 28.7464 2.01635L27.4645 1.26169C27.3317 1.18436 27.138 1.26568 27.0271 1.44434L26.4183 2.48302Z" fill="#1C4670"/>
<path d="M24.3099 12.1763C22.0235 12.1603 20.1885 10.295 20.2084 8.00964C20.224 5.72697 22.0912 3.891 24.3724 3.90567C26.6588 3.92433 28.4932 5.78964 28.4729 8.07497C28.4557 10.3603 26.5953 12.195 24.3099 12.1763ZM24.388 1.76166C20.9219 1.73366 18.0869 4.52699 18.0584 7.99232C18.0323 11.459 20.8203 14.2963 24.2917 14.3216C27.7588 14.3483 30.5964 11.5603 30.6224 8.09098C30.6495 4.62298 27.8604 1.78832 24.388 1.76166Z" fill="#1C4670"/>
<path d="M68.6459 39.359C68.6473 39.515 68.5531 39.635 68.4401 39.635L67.3645 39.6257C67.2473 39.6243 67.1615 39.5017 67.1615 39.3497L67.1693 38.483C67.1693 38.3297 67.2631 38.207 67.376 38.2083L68.4505 38.2177C68.564 38.2177 68.6547 38.3417 68.6527 38.495L68.6459 39.359Z" fill="#1C4670"/>
<path d="M68.5797 47.811C68.5797 47.659 68.488 47.5337 68.3776 47.5337L67.2995 47.5243C67.1875 47.5243 67.0937 47.6497 67.0937 47.799L67.0885 48.6683C67.0869 48.8163 67.1755 48.9416 67.2875 48.9443L68.3688 48.951C68.4807 48.9523 68.5713 48.831 68.5703 48.679L68.5797 47.811Z" fill="#1C4670"/>
<path d="M66.4307 39.539C66.5088 39.671 66.4912 39.8217 66.3896 39.8803L65.4541 40.4097C65.3568 40.4643 65.2161 40.4057 65.1407 40.271L64.7125 39.5163C64.6355 39.383 64.6547 39.231 64.7527 39.1763L65.6891 38.6457C65.7875 38.5883 65.9307 38.6523 66.0052 38.783L66.4307 39.539Z" fill="#1C4670"/>
<path d="M70.5989 46.891C70.526 46.7563 70.3844 46.695 70.2875 46.751L69.3489 47.279C69.25 47.339 69.2328 47.4883 69.3084 47.6216L69.736 48.375C69.8125 48.5083 69.9541 48.5723 70.0479 48.5176L70.988 47.9843C71.0849 47.931 71.1027 47.7763 71.0287 47.6443L70.5989 46.891Z" fill="#1C4670"/>
<path d="M64.6057 40.8003C64.7369 40.875 64.7959 41.0203 64.738 41.115L64.1969 42.0416C64.1355 42.1416 63.9828 42.1576 63.8505 42.079L63.1041 41.639C62.974 41.5617 62.9099 41.4216 62.974 41.3216L63.5172 40.395C63.5745 40.299 63.7265 40.2816 63.8557 40.3616L64.6057 40.8003Z" fill="#1C4670"/>
<path d="M71.8864 45.083C71.7579 45.0043 71.6041 45.0217 71.5479 45.1177L71.0036 46.0456C70.9427 46.1443 71.0052 46.2843 71.1396 46.3617L71.8855 46.8003C72.0156 46.8777 72.1703 46.8617 72.2265 46.767L72.7693 45.8377C72.8281 45.7403 72.7672 45.599 72.6355 45.5203L71.8864 45.083Z" fill="#1C4670"/>
<path d="M63.6511 42.8057C63.8031 42.8057 63.9255 42.8963 63.9255 43.0096L63.9183 44.087C63.9167 44.2003 63.7891 44.2897 63.6417 44.287L62.7724 44.2803C62.6197 44.2803 62.4973 44.1883 62.4984 44.075L62.5068 43.0003C62.5068 42.887 62.6328 42.7963 62.7839 42.799L63.6511 42.8057Z" fill="#1C4670"/>
<path d="M72.1027 42.8724C71.9505 42.8724 71.8255 42.9617 71.8229 43.0724L71.8125 44.1483C71.8151 44.2617 71.9375 44.3537 72.0885 44.3564L72.9573 44.3617C73.1093 44.3604 73.2328 44.2737 73.236 44.159L73.2421 43.0844C73.2464 42.9724 73.1224 42.8803 72.9697 42.875L72.1027 42.8724Z" fill="#1C4670"/>
<path d="M63.8317 45.0176C63.9609 44.9443 64.112 44.963 64.1683 45.0603L64.6989 45.9977C64.7552 46.0923 64.6937 46.2336 64.5615 46.3083L63.8063 46.7363C63.6745 46.8137 63.5224 46.795 63.4645 46.695L62.9339 45.759C62.8803 45.6617 62.9417 45.5203 63.0729 45.4443L63.8317 45.0176Z" fill="#1C4670"/>
<path d="M71.1787 40.8523C71.0459 40.927 70.986 41.0657 71.0364 41.1644L71.5745 42.1004C71.6276 42.1977 71.7803 42.219 71.9099 42.1417L72.6693 41.7137C72.8011 41.639 72.8636 41.5004 72.8073 41.4017L72.276 40.463C72.2197 40.3644 72.0703 40.3497 71.9339 40.4217L71.1787 40.8523Z" fill="#1C4670"/>
<path d="M65.0901 46.8457C65.1651 46.7163 65.3063 46.655 65.4047 46.711L66.3349 47.2563C66.4307 47.3163 66.4489 47.467 66.3688 47.5977L65.9287 48.347C65.8505 48.4777 65.7093 48.5377 65.6136 48.4803L64.6875 47.935C64.586 47.879 64.5729 47.7257 64.6495 47.5977L65.0901 46.8457Z" fill="#1C4670"/>
<path d="M69.3708 39.563C69.2979 39.6937 69.3099 39.8444 69.4063 39.903L70.3369 40.447C70.4339 40.5043 70.5755 40.4443 70.6527 40.3137L71.0921 39.5657C71.1693 39.435 71.1536 39.279 71.0547 39.2243L70.1292 38.6803C70.0312 38.623 69.8917 38.6817 69.8125 38.811L69.3708 39.563Z" fill="#1C4670"/>
<path d="M67.8489 46.567C66.1969 46.5563 64.8708 45.2083 64.8828 43.5563C64.8948 41.907 66.2448 40.5816 67.8932 40.591C69.5459 40.6056 70.8708 41.9537 70.8568 43.6043C70.8437 45.255 69.4984 46.5816 67.8489 46.567ZM67.9047 39.0416C65.3995 39.0216 63.3505 41.039 63.3297 43.5456C63.3115 46.0483 65.3265 48.1003 67.8349 48.119C70.3412 48.1363 72.3917 46.1203 72.4088 43.6163C72.4297 41.1096 70.4131 39.0603 67.9047 39.0416Z" fill="#1C4670"/>
<path d="M22.7568 51.007C22.7588 51.1376 22.6807 51.2363 22.5869 51.2363L21.6979 51.231C21.6016 51.2283 21.5303 51.1257 21.5312 51.0017L21.5375 50.283C21.5364 50.159 21.6145 50.0563 21.7073 50.0576L22.5953 50.0643C22.6901 50.0643 22.764 50.167 22.7631 50.295L22.7568 51.007Z" fill="#1C4670"/>
<path d="M22.7021 57.9923C22.7031 57.867 22.6276 57.7644 22.5355 57.7644L21.6448 57.7563C21.5521 57.755 21.474 57.8603 21.474 57.9843L21.4697 58.7017C21.4688 58.827 21.5427 58.9284 21.6344 58.9297L22.5271 58.9377C22.6208 58.9404 22.6953 58.8363 22.6953 58.711L22.7021 57.9923Z" fill="#1C4670"/>
<path d="M20.9271 51.1577L20.8917 51.439L20.1188 51.8777L19.8593 51.7617L19.5068 51.139L19.5391 50.8563L20.314 50.419L20.5755 50.5323L20.9271 51.1577Z" fill="#1C4670"/>
<path d="M24.3708 57.2337L24.1136 57.1176L23.3385 57.555L23.3047 57.8363L23.6579 58.4603L23.9167 58.5776L24.6927 58.1377L24.7251 57.8563L24.3708 57.2337Z" fill="#1C4670"/>
<path d="M19.4167 52.199L19.5287 52.4604L19.0797 53.2257L18.7943 53.2563L18.1771 52.8937L18.0693 52.631L18.5183 51.8644L18.7979 51.8364L19.4167 52.199Z" fill="#1C4670"/>
<path d="M25.436 55.739L25.1547 55.767L24.7057 56.5363L24.8177 56.7963L25.4349 57.1577L25.7177 57.131L26.1667 56.363L26.0547 56.1003L25.436 55.739Z" fill="#1C4670"/>
<path d="M18.6292 53.8577C18.7552 53.8577 18.8568 53.9337 18.8568 54.0283L18.8489 54.9177C18.8473 55.0097 18.7432 55.0843 18.6208 55.083L17.9027 55.0763C17.776 55.075 17.6745 55.0003 17.6771 54.907L17.6823 54.0177C17.6823 53.9243 17.7875 53.8497 17.9131 53.851L18.6292 53.8577Z" fill="#1C4670"/>
<path d="M25.6145 53.9123C25.488 53.9123 25.3855 53.9856 25.3828 54.0763L25.3751 54.9683C25.376 55.0617 25.4765 55.1363 25.6027 55.139L26.3203 55.1443C26.4469 55.1443 26.5469 55.071 26.5511 54.975L26.5573 54.0883C26.5584 53.995 26.4557 53.9177 26.3307 53.915L25.6145 53.9123Z" fill="#1C4670"/>
<path d="M18.7787 55.6857L19.0573 55.7203L19.4964 56.495L19.3812 56.7523L18.7568 57.107L18.4751 57.0724L18.0375 56.2977L18.1527 56.0377L18.7787 55.6857Z" fill="#1C4670"/>
<path d="M24.8505 52.2417L24.7328 52.5003L25.1771 53.275L25.4531 53.3083L26.0807 52.9563L26.1969 52.6963L25.7579 51.9217L25.4751 51.8883L24.8505 52.2417Z" fill="#1C4670"/>
<path d="M19.8177 57.195L20.0797 57.0843L20.8473 57.535L20.874 57.8177L20.5104 58.4364L20.2516 58.547L19.486 58.0963L19.4541 57.8163L19.8177 57.195Z" fill="#1C4670"/>
<path d="M23.3568 51.1777L23.3864 51.459L24.1547 51.907L24.4151 51.7963L24.7787 51.1803L24.7473 50.8963L23.9817 50.447L23.7213 50.5563L23.3568 51.1777Z" fill="#1C4670"/>
<path d="M22.0973 56.967C20.7317 56.955 19.6364 55.843 19.6484 54.4763C19.6579 53.1136 20.7735 52.0177 22.1355 52.0283C23.5 52.039 24.5964 53.1536 24.5849 54.5163C24.5729 55.8816 23.4625 56.9763 22.0973 56.967ZM22.1448 50.747C20.0745 50.7296 18.3803 52.3963 18.3645 54.467C18.3489 56.5377 20.0131 58.2323 22.0869 58.2483C24.1579 58.2616 25.8527 56.5976 25.8672 54.527C25.8844 52.455 24.2177 50.763 22.1448 50.747Z" fill="#1C4670"/>
<path d="M39.5781 4.94433C39.5797 5.09899 39.486 5.22034 39.3724 5.22034L38.2969 5.21233C38.1797 5.20966 38.0937 5.08568 38.0953 4.93502L38.1016 4.06835C38.1016 3.91502 38.1953 3.79234 38.3084 3.79368L39.3812 3.80302C39.4964 3.80302 39.5869 3.927 39.5849 4.08033L39.5781 4.94433Z" fill="#1C4670"/>
<path d="M39.5104 13.3963C39.512 13.2443 39.4203 13.119 39.3084 13.119L38.2317 13.111C38.1208 13.1096 38.026 13.235 38.026 13.3843L38.0208 14.2537C38.0193 14.403 38.1093 14.527 38.2197 14.5297L39.2995 14.5363C39.414 14.539 39.5036 14.4163 39.5027 14.2643L39.5104 13.3963Z" fill="#1C4670"/>
<path d="M37.3636 5.12569C37.4417 5.25769 37.4245 5.40836 37.3213 5.46569L36.3855 5.99502C36.2907 6.04969 36.1484 5.98968 36.0729 5.85635L35.6448 5.1017C35.5693 4.96836 35.5869 4.81769 35.6849 4.76169L36.6208 4.23236C36.7197 4.17369 36.862 4.2377 36.9375 4.36836L37.3636 5.12569Z" fill="#1C4670"/>
<path d="M41.5312 12.475C41.4573 12.3417 41.3161 12.279 41.2197 12.335L40.2823 12.8657C40.1839 12.923 40.1651 13.075 40.2412 13.2083L40.6693 13.9603C40.7448 14.0937 40.8864 14.1577 40.9807 14.103L41.9193 13.5697C42.0172 13.5164 42.0355 13.363 41.9609 13.2283L41.5312 12.475Z" fill="#1C4670"/>
<path d="M35.5364 6.3857C35.6693 6.46037 35.7292 6.60572 35.6703 6.70172L35.1276 7.62838C35.0677 7.72838 34.9151 7.74305 34.7823 7.66438L34.0364 7.22437C33.9047 7.14704 33.8437 7.00702 33.9047 6.90702L34.4489 5.97903C34.5052 5.88436 34.6579 5.86703 34.7875 5.94569L35.5364 6.3857Z" fill="#1C4670"/>
<path d="M42.8203 10.667C42.6901 10.5897 42.5364 10.607 42.4807 10.7017L41.936 11.6323C41.8751 11.7297 41.9375 11.871 42.0703 11.947L42.8177 12.3856C42.9479 12.4643 43.1027 12.4456 43.1588 12.3523L43.7031 11.4243C43.7604 11.3256 43.7005 11.1843 43.5677 11.107L42.8203 10.667Z" fill="#1C4670"/>
<path d="M34.5833 8.39099C34.7369 8.39099 34.8584 8.483 34.8584 8.59633L34.8505 9.67364C34.8489 9.78564 34.7213 9.87498 34.5729 9.87364L33.7031 9.867C33.5511 9.86567 33.4287 9.77366 33.4307 9.66166L33.4375 8.58699C33.4375 8.47232 33.5651 8.38299 33.7161 8.38565L34.5833 8.39099Z" fill="#1C4670"/>
<path d="M43.0355 8.45631C42.8844 8.45631 42.7568 8.54831 42.7552 8.65765L42.7448 9.73632C42.7473 9.84832 42.8697 9.9403 43.0208 9.94163L43.8907 9.9483C44.0417 9.94564 44.1651 9.85897 44.1667 9.7443L44.1745 8.66966C44.1787 8.55632 44.0547 8.46565 43.9027 8.46165L43.0355 8.45631Z" fill="#1C4670"/>
<path d="M34.764 10.603C34.8932 10.5283 35.0427 10.5483 35.1005 10.6443L35.6312 11.583C35.6891 11.679 35.626 11.819 35.4932 11.8937L34.738 12.323C34.6068 12.399 34.4531 12.3817 34.3959 12.2803L33.8672 11.3457C33.8125 11.2483 33.874 11.107 34.0052 11.031L34.764 10.603Z" fill="#1C4670"/>
<path d="M42.1104 6.43635C41.9765 6.51235 41.9193 6.65233 41.9688 6.74967L42.5052 7.68567C42.5599 7.783 42.7125 7.80568 42.8421 7.72835L43.6005 7.30035C43.7328 7.22435 43.7959 7.08567 43.7396 6.987L43.2084 6.04833C43.1527 5.951 43.0016 5.93366 42.8672 6.00833L42.1104 6.43635Z" fill="#1C4670"/>
<path d="M36.0208 12.431C36.0989 12.3003 36.238 12.2403 36.3369 12.2963L37.2672 12.8403C37.3636 12.9016 37.3812 13.0523 37.2995 13.1817L36.8604 13.9323C36.7812 14.063 36.6417 14.1217 36.5469 14.0657L35.6188 13.5217C35.5183 13.4643 35.5052 13.3123 35.5817 13.1817L36.0208 12.431Z" fill="#1C4670"/>
<path d="M40.3047 5.14831C40.2307 5.27765 40.2432 5.42965 40.3401 5.48832L41.2708 6.03233C41.3656 6.08966 41.5079 6.02966 41.5849 5.899L42.0235 5.15098C42.1005 5.02032 42.086 4.86564 41.9869 4.81098L41.0599 4.26566C40.9645 4.20833 40.8245 4.26833 40.7448 4.39633L40.3047 5.14831Z" fill="#1C4670"/>
<path d="M38.7803 12.1523C37.1276 12.1403 35.8021 10.795 35.8161 9.14164C35.8281 7.49231 37.1771 6.16698 38.8255 6.17631C40.4781 6.18965 41.8031 7.53899 41.7891 9.18966C41.776 10.8417 40.4307 12.167 38.7803 12.1523ZM38.8369 4.627C36.3317 4.60566 34.2823 6.62433 34.262 9.12966C34.2432 11.635 36.2588 13.6857 38.7672 13.7043C41.2724 13.723 43.3245 11.7057 43.3421 9.20034C43.362 6.69367 41.3464 4.64566 38.8369 4.627Z" fill="#1C4670"/>
<path d="M42.5479 74.8977C42.2969 74.8977 42.0937 74.6697 42.0937 74.3883V67.487C42.0937 66.0803 41.0781 64.935 39.8297 64.935H31.1145C29.3656 64.935 27.9437 63.7897 27.9437 62.3803C27.9437 60.9723 29.3656 59.8257 31.1145 59.8257H54.1771C55.512 59.8257 56.4427 59.079 56.4427 58.4097C56.4427 57.7417 55.512 56.9963 54.1771 56.9963H41.4287C39.6797 56.9963 38.2552 55.7043 38.2552 54.1177C38.2552 52.531 39.6797 51.2417 41.4287 51.2417H53.3527C54.5817 51.2417 55.6188 50.363 55.6188 49.327C55.6188 48.2897 54.5817 47.4137 53.3527 47.4137H30.7907C29.0417 47.4137 27.6188 45.9257 27.6188 44.0977V41.291C27.6188 41.0083 27.8213 40.7817 28.0713 40.7817C28.3213 40.7817 28.5235 41.0083 28.5235 41.291V44.0977C28.5235 45.3643 29.5407 46.3937 30.7907 46.3937H53.3527C55.1027 46.3937 56.5251 47.7083 56.5251 49.327C56.5251 50.9457 55.1027 52.263 53.3527 52.263H41.4287C40.2005 52.263 39.1615 53.111 39.1615 54.1177C39.1615 55.123 40.2005 55.9737 41.4287 55.9737H54.1771C55.9541 55.9737 57.3473 57.0443 57.3473 58.4097C57.3473 59.775 55.9541 60.8457 54.1771 60.8457H31.1145C29.8855 60.8457 28.8489 61.5483 28.8489 62.3803C28.8489 63.2137 29.8855 63.915 31.1145 63.915H39.8297C41.5781 63.915 43 65.5177 43 67.487V74.3883C43 74.6697 42.7979 74.8977 42.5479 74.8977Z" fill="#1C4670"/>
<path d="M39.6016 54.3843C39.3203 54.3843 39.0511 54.3483 38.8031 54.279C38.5547 54.3483 38.2855 54.3843 38.0036 54.3843H11.5391C10.2161 54.3843 9.14067 53.3097 9.14067 51.987V11.195C9.14067 9.87101 10.2161 8.79501 11.5391 8.79501H36.4036C37.3021 8.79501 38.1328 9.09235 38.8031 9.59635C39.4713 9.09235 40.3021 8.79501 41.2021 8.79501H66.0651C67.388 8.79501 68.4661 9.87101 68.4661 11.195V51.987C68.4661 53.3097 67.388 54.3843 66.0651 54.3843H39.6016Z" fill="#768296"/>
<path d="M66.0651 10.3923H41.2021C39.8828 10.3923 38.8031 11.4723 38.8031 12.7937C38.8031 11.4723 37.7229 10.3923 36.4036 10.3923H35.936H33.0703H11.5391C11.1016 10.3923 10.7412 10.7523 10.7412 11.195V51.987C10.7412 52.427 11.1016 52.787 11.5391 52.787H13.1396H13.6068H16.474H33.0703H35.936H36.4036H38.0036C38.4417 52.787 38.8011 52.5923 38.8031 52.3523C38.8031 52.5923 39.1631 52.787 39.6016 52.787H41.2021H41.6693H44.5355H61.1312H63.9984H64.4645H66.0651C66.5036 52.787 66.8645 52.427 66.8645 51.987V11.195C66.8645 10.7523 66.5036 10.3923 66.0651 10.3923Z" fill="url(#paint0_linear)"/>
<path d="M38.8031 30.223V12.7937C38.8031 11.4723 37.7229 10.3923 36.4036 10.3923H35.936H33.0703H11.5391C11.1016 10.3923 10.7412 10.7523 10.7412 11.195V51.987C10.7412 52.427 11.1016 52.787 11.5391 52.787H13.1396H13.6068H16.474H33.0703H35.936H36.4036H38.0036C38.4427 52.787 38.8031 52.591 38.8031 52.3523V30.223Z" fill="white"/>
<path d="M38.8031 30.223V12.7937C38.8031 11.4723 39.8828 10.3923 41.2021 10.3923H41.6693H44.5355H66.0651C66.5036 10.3923 66.8645 10.7523 66.8645 11.195V51.987C66.8645 52.427 66.5036 52.787 66.0651 52.787H64.4645H63.9984H61.1312H44.5355H41.6693H41.2021H39.6016C39.1615 52.787 38.8031 52.591 38.8031 52.3523V30.223Z" fill="white"/>
<path d="M35.736 17.2936H13.0729V13.1256H35.736V17.2936Z" fill="#FFA229"/>
<path d="M35.736 20.1923H13.0729V18.7257H35.736V20.1923Z" fill="#AEBFCE"/>
<path d="M35.736 25.7936H13.0729V24.327H35.736V25.7936Z" fill="#AEBFCE"/>
<path d="M35.736 28.5923H13.0729V27.127H35.736V28.5923Z" fill="#AEBFCE"/>
<path d="M35.736 31.3923H13.0729V29.9257H35.736V31.3923Z" fill="#AEBFCE"/>
<path d="M35.736 36.1923H13.0729V34.727H35.736V36.1923Z" fill="#AEBFCE"/>
<path d="M35.736 38.9923H13.0729V37.527H35.736V38.9923Z" fill="#AEBFCE"/>
<path d="M35.736 44.591H13.0729V43.1257H35.736V44.591Z" fill="#AEBFCE"/>
<path d="M35.736 47.3897H13.0729V45.9257H35.736V47.3897Z" fill="#AEBFCE"/>
<path d="M41.8697 14.595H64.5323V13.1257H41.8697V14.595Z" fill="#AEBFCE"/>
<path d="M41.8697 17.3937H64.5323V15.9243H41.8697V17.3937Z" fill="#AEBFCE"/>
<path d="M41.8697 22.1937H64.5323V20.7243H41.8697V22.1937Z" fill="#AEBFCE"/>
<path d="M41.8697 24.9923H64.5323V23.527H41.8697V24.9923Z" fill="#AEBFCE"/>
<path d="M41.8697 27.7936H64.5323V26.3243H41.8697V27.7936Z" fill="#AEBFCE"/>
<path d="M41.8697 36.1923H64.5323V34.727H41.8697V36.1923Z" fill="#AEBFCE"/>
<path d="M41.8697 38.9923H64.5323V37.527H41.8697V38.9923Z" fill="#AEBFCE"/>
<path d="M41.8697 41.7924H64.5323V40.3257H41.8697V41.7924Z" fill="#AEBFCE"/>
<path d="M41.8697 47.3897H64.5323V45.9257H41.8697V47.3897Z" fill="#AEBFCE"/>
<path d="M48.626 8.79499H45.7109V41.0576L48.626 39.4203L51.5407 41.0576V8.79499H48.626Z" fill="#1C4670"/>
<path d="M48.7803 80.9684C48.7803 84.4137 45.986 87.2057 42.5427 87.2057C39.0973 87.2057 36.3063 84.4137 36.3063 80.9684V73.363C36.3063 69.9177 39.0973 67.1257 42.5427 67.1257C45.986 67.1257 48.7803 69.9177 48.7803 73.363V80.9684Z" fill="#768296"/>
<path d="M36.3063 73.363V74.8977H42.5427V67.1257C39.0973 67.1257 36.3063 69.9177 36.3063 73.363Z" fill="#AEBFCE"/>
<path d="M48.7803 73.363C48.7803 69.9177 45.986 67.1257 42.5427 67.1257V74.8977H48.7803V73.363Z" fill="url(#paint1_linear)"/>
<path d="M48.7803 73.363C48.7803 69.9177 45.986 67.1257 42.5427 67.1257V74.8977H48.7803V73.363Z" fill="#AEBFCE"/>
<path d="M43.4391 75.4443C43.4391 75.9377 43.0364 76.3377 42.5427 76.3377C42.0479 76.3377 41.6473 75.9377 41.6473 75.4443V74.351C41.6473 73.8563 42.0479 73.4563 42.5427 73.4563C43.0364 73.4563 43.4391 73.8563 43.4391 74.351V75.4443Z" fill="#1C4670"/>
<path d="M80.5443 7.70434C80.5443 7.70434 79.5156 6.43632 77.0921 7.31632C75.2057 7.99765 66.5183 15.8216 67.4401 19.211C67.4401 19.211 68.1328 19.3377 69.1156 17.2483C70.1005 15.1537 70.7109 13.967 72.7579 11.9243C74.8011 9.883 77.612 7.88166 78.5417 8.79233L80.5443 7.70434Z" fill="#FFA229"/>
<path d="M73.8656 24.2456C68.6448 31.3203 62.0713 37.3523 60.3792 36.107C58.6917 34.859 62.5251 26.8003 67.7464 19.7257C72.9713 12.6537 80.1875 5.74566 81.8803 6.99365C83.5693 8.24165 79.0901 17.1723 73.8656 24.2456Z" fill="#1C4670"/>
<path d="M64.4948 30.5336C63.6651 29.9216 62.7604 29.5136 61.8527 29.303C60.1745 32.7456 59.4645 35.4283 60.3792 36.1069C61.2979 36.7829 63.6536 35.3096 66.4505 32.6963C65.9817 31.8923 65.3265 31.147 64.4948 30.5336Z" fill="#FFA229"/>
<path d="M73.5068 25.3403C73.0339 25.9843 72.5427 26.4257 71.8203 25.8924L66.7751 22.167C66.0531 21.635 66.3333 21.035 66.8047 20.3897C67.2823 19.751 67.7724 19.3083 68.4912 19.8403L73.5391 23.5657C74.2604 24.099 73.9817 24.6963 73.5068 25.3403Z" fill="url(#paint2_linear)"/>
<path d="M60.9063 35.3937C60.612 35.179 60.2907 35.0323 59.9697 34.9577C59.3792 36.1777 59.126 37.127 59.4505 37.3657C59.7735 37.6057 60.6068 37.0843 61.5989 36.1603C61.4339 35.875 61.1989 35.611 60.9063 35.3937Z" fill="url(#paint3_linear)"/>
<path d="M73.5068 25.3403C73.0339 25.9843 72.5427 26.4257 71.8203 25.8924L66.7751 22.167C66.0531 21.635 66.3333 21.035 66.8047 20.3897C67.2823 19.751 67.7724 19.3083 68.4912 19.8403L73.5391 23.5657C74.2604 24.099 73.9817 24.6963 73.5068 25.3403Z" fill="#FFA229"/>
<path d="M1.53229 25.0443C1.53229 25.0443 2.35311 24.0337 4.28541 24.7337C5.78746 25.2763 12.7125 31.5136 11.9781 34.215C11.9781 34.215 11.4245 34.315 10.6417 32.6496C9.85679 30.9803 9.36973 30.0336 7.73693 28.407C6.11039 26.7776 3.86978 25.1843 3.12759 25.9083L1.53229 25.0443Z" fill="#FFA229"/>
<path d="M6.85521 38.2256C11.0183 43.867 16.2568 48.6736 17.6041 47.6816C18.9489 46.6856 15.8948 40.2643 11.7328 34.6243C7.56774 28.987 1.81615 23.483 0.468751 24.4776C-0.877595 25.4723 2.69115 32.591 6.85521 38.2256Z" fill="#1C4670"/>
<path d="M14.3245 43.2403C14.986 42.751 15.7073 42.4257 16.4297 42.2563C17.7683 45.0017 18.3317 47.1417 17.6041 47.6817C16.8724 48.2203 14.9964 47.0457 12.7656 44.9644C13.1396 44.323 13.6615 43.7283 14.3245 43.2403Z" fill="#FFA229"/>
<path d="M7.14173 39.1003C7.51933 39.611 7.90986 39.9643 8.486 39.539L12.5068 36.571C13.0817 36.1457 12.8593 35.6696 12.4828 35.155C12.1027 34.6443 11.7125 34.2923 11.1396 34.7163L7.1172 37.6856C6.54173 38.111 6.76306 38.587 7.14173 39.1003Z" fill="url(#paint4_linear)"/>
<path d="M17.186 47.1123C17.4183 46.9416 17.6745 46.8256 17.9297 46.7656C18.4027 47.7363 18.6027 48.4936 18.3437 48.6856C18.0869 48.875 17.4219 48.4616 16.6328 47.723C16.7656 47.4963 16.9505 47.2856 17.186 47.1123Z" fill="#1C4670"/>
<path d="M7.14173 39.1003C7.51933 39.611 7.90986 39.9643 8.486 39.539L12.5068 36.571C13.0817 36.1457 12.8593 35.6696 12.4828 35.155C12.1027 34.6443 11.7125 34.2923 11.1396 34.7163L7.1172 37.6856C6.54173 38.111 6.76306 38.587 7.14173 39.1003Z" fill="#FFA229"/>
<defs>
<linearGradient id="paint0_linear" x1="38.8028" y1="48.6243" x2="38.8028" y2="6.22913" gradientUnits="userSpaceOnUse">
<stop stop-color="#CDEFFA"/>
<stop offset="0.974004" stop-color="#FAFAFA"/>
<stop offset="1" stop-color="#FAFAFA"/>
</linearGradient>
<linearGradient id="paint1_linear" x1="45.6615" y1="74.8977" x2="45.6615" y2="67.1249" gradientUnits="userSpaceOnUse">
<stop stop-color="#CDEFFA"/>
<stop offset="0.974004" stop-color="#FAFAFA"/>
<stop offset="1" stop-color="#FAFAFA"/>
</linearGradient>
<linearGradient id="paint2_linear" x1="66.804" y1="20.391" x2="73.5066" y2="25.3399" gradientUnits="userSpaceOnUse">
<stop stop-color="#BDBDBD"/>
<stop offset="0.45943" stop-color="#707070"/>
<stop offset="1" stop-color="#707070"/>
</linearGradient>
<linearGradient id="paint3_linear" x1="59.3633" y1="35.779" x2="60.9928" y2="36.9821" gradientUnits="userSpaceOnUse">
<stop stop-color="#286891"/>
<stop offset="0.45943" stop-color="#0E3655"/>
<stop offset="1" stop-color="#0E3655"/>
</linearGradient>
<linearGradient id="paint4_linear" x1="12.4837" y1="35.1563" x2="7.14238" y2="39.1001" gradientUnits="userSpaceOnUse">
<stop stop-color="#BDBDBD"/>
<stop offset="0.45943" stop-color="#707070"/>
<stop offset="1" stop-color="#707070"/>
</linearGradient>
</defs>
</svg>
