<svg width="58" height="94" viewBox="0 0 58 94" fill="none" xmlns="http://www.w3.org/2000/svg">
<path d="M7.32001 48.6963C12.5253 51.0617 19.44 52.5017 27.028 52.5017C34.62 52.5017 41.5347 51.0617 46.7373 48.6963C41.5347 46.335 34.62 44.895 27.028 44.895C19.44 44.895 12.5253 46.335 7.32001 48.6963Z" fill="#E6AE7E"/>
<path d="M39.2027 32.915C40.5333 30.7163 41.3013 28.139 41.3013 25.3803C41.3013 17.3297 34.7747 10.8057 26.724 10.8057C18.676 10.8057 12.1507 17.3297 12.1507 25.3803C12.1507 28.139 12.9147 30.7163 14.2493 32.915C18.1867 39.9537 18.9853 41.639 19.032 44.8537C19.1067 49.671 19.032 53.5177 19.032 53.5177H26.724H34.416C34.416 53.5177 34.3453 49.671 34.416 44.8537C34.468 41.639 35.264 39.9537 39.2027 32.915Z" fill="#FCD751"/>
<path d="M26.724 55.7177H21.2573C22.0693 60.1217 26.724 60.1217 26.724 60.1217C26.724 60.1217 31.3786 60.1217 32.192 55.7177H26.724Z" fill="#002254"/>
<path d="M36.644 48.559C36.644 49.9564 35.512 51.0883 34.112 51.0883H19.3373C17.9387 51.0883 16.8053 49.9564 16.8053 48.559C16.8053 47.1604 17.9387 46.0297 19.3373 46.0297H34.112C35.512 46.0297 36.644 47.1604 36.644 48.559Z" fill="#768296"/>
<path d="M35.852 48.063C35.852 49.1884 34.8066 50.0977 33.5213 50.0977H19.928C18.64 50.0977 17.6 49.1884 17.6 48.063C17.6 46.9377 18.64 46.0297 19.928 46.0297H33.5213C34.8066 46.0297 35.852 46.9377 35.852 48.063Z" fill="#AEBFCE"/>
<path d="M36.644 53.5177C36.644 54.9163 35.512 56.0483 34.112 56.0483H19.3373C17.9387 56.0483 16.8053 54.9163 16.8053 53.5177C16.8053 52.119 17.9387 50.9857 19.3373 50.9857H34.112C35.512 50.9857 36.644 52.119 36.644 53.5177Z" fill="#768296"/>
<path d="M27.0307 0.43905C27.5787 0.43905 28.028 0.885715 28.028 1.43772V7.25637C28.028 7.80437 27.5787 8.24969 27.0307 8.24969C26.4787 8.24969 26.0333 7.80437 26.0333 7.25637V1.43772C26.0333 0.885715 26.4787 0.43905 27.0307 0.43905Z" fill="#FFA229"/>
<path d="M13.8026 3.87496C14.2786 3.59896 14.8866 3.76299 15.1613 4.23899L18.0706 9.27763C18.3466 9.75363 18.1853 10.3617 17.7066 10.635C17.232 10.911 16.6213 10.7497 16.348 10.2723L13.4386 5.23499C13.164 4.75899 13.3293 4.14963 13.8026 3.87496Z" fill="#FFA229"/>
<path d="M4.06267 13.459C4.34 12.9844 4.94935 12.8217 5.42401 13.0964L10.4627 16.0044C10.9387 16.2804 11.1013 16.8897 10.8253 17.3671C10.552 17.8404 9.94267 18.0044 9.46801 17.7297L4.428 14.8204C3.95333 14.5457 3.78934 13.939 4.06267 13.459Z" fill="#FFA229"/>
<path d="M0.419983 26.6323C0.419983 26.083 0.867982 25.6363 1.41865 25.6363H7.23732C7.78532 25.6363 8.23331 26.083 8.23331 26.6323C8.23331 27.1843 7.78532 27.6297 7.23732 27.6297H1.41865C0.867982 27.6297 0.419983 27.1843 0.419983 26.6323Z" fill="#FFA229"/>
<path d="M3.856 39.8603C3.58 39.3843 3.74533 38.7763 4.22 38.499L9.256 35.591C9.736 35.315 10.3453 35.4763 10.6187 35.9563C10.896 36.4323 10.7307 37.043 10.2547 37.315L5.21733 40.2243C4.74133 40.499 4.132 40.3377 3.856 39.8603Z" fill="#FFA229"/>
<path d="M40.256 3.87496C39.7827 3.59896 39.1733 3.76299 38.896 4.23899L35.988 9.27763C35.7133 9.75363 35.8747 10.3617 36.3533 10.635C36.832 10.911 37.44 10.7497 37.7133 10.2723L40.624 5.23499C40.8973 4.75899 40.736 4.14963 40.256 3.87496Z" fill="#FFA229"/>
<path d="M49.9973 13.459C49.724 12.9844 49.112 12.8217 48.636 13.0964L43.5973 16.0044C43.1227 16.2804 42.9587 16.8897 43.2307 17.3671C43.508 17.8404 44.1213 18.0044 44.5947 17.7297L49.6333 14.8204C50.1107 14.5457 50.2733 13.939 49.9973 13.459Z" fill="#FFA229"/>
<path d="M53.636 26.6323C53.636 26.083 53.1907 25.6363 52.6387 25.6363H46.824C46.2747 25.6363 45.8293 26.083 45.8293 26.6323C45.8293 27.1843 46.2747 27.6297 46.824 27.6297H52.6387C53.1907 27.6297 53.636 27.1843 53.636 26.6323Z" fill="#FFA229"/>
<path d="M50.204 39.8603C50.48 39.3843 50.3147 38.7763 49.8387 38.499L44.804 35.591C44.3253 35.315 43.716 35.4763 43.44 35.9563C43.1667 36.4323 43.332 37.043 43.8067 37.315L48.8453 40.2243C49.3186 40.499 49.9333 40.3377 50.204 39.8603Z" fill="#FFA229"/>
<path d="M35.852 53.0243C35.852 54.1483 34.8066 55.059 33.5213 55.059H19.928C18.64 55.059 17.6 54.1483 17.6 53.0243C17.6 51.8977 18.64 50.9857 19.928 50.9857H33.5213C34.8066 50.9857 35.852 51.8977 35.852 53.0243Z" fill="#AEBFCE"/>
<path d="M9.30666 51.8017L7.08398 50.8816L13.5053 35.371L17.936 42.455L25.6507 26.3136L32.2813 34.387L39.62 17.4763L43.1053 23.9937L52.632 6.25365L54.7506 7.39233L43.1 29.0883L39.8453 23.0017L32.9213 38.9577L26.192 30.7643L18.2187 47.4443L13.9426 40.607L9.30666 51.8017Z" fill="#1C4670"/>
<path d="M57.232 10.319L56.936 0.723035L48.7747 5.77636L57.232 10.319Z" fill="#1C4670"/>
<path d="M46.772 64.6324H46.3813C46.5467 63.2884 46.7173 61.9684 46.8773 60.7164C47.2213 58.0777 47.7413 53.367 46.7053 48.7137C41.5027 51.067 34.6027 52.5017 27.028 52.5017C19.456 52.5017 12.5547 51.067 7.35333 48.7137C6.31733 53.367 6.83466 58.0777 7.17999 60.7164C7.34266 61.9684 7.51065 63.2884 7.67598 64.6324H7.28533C3.84799 62.087 3.55867 68.7297 4.99067 70.999C6.18267 72.879 6.20666 73.0857 6.92133 75.1537C7.45466 76.6817 8.32932 76.8817 9.06399 76.7164C9.15599 77.6217 9.23599 78.4097 9.29332 79.0364C9.60799 82.5271 17.9987 89.5204 19.904 91.7097C21.6813 93.7604 24.656 92.9617 25.608 92.9204C26.5733 92.8737 27.0293 92.8497 27.0293 92.8497C27.0293 92.8497 27.4853 92.8737 28.448 92.9204C29.4013 92.9617 32.3733 93.7604 34.156 91.7097C36.06 89.5204 44.448 82.5271 44.764 79.0364C44.824 78.4097 44.904 77.6217 44.992 76.7164C45.7307 76.8817 46.6067 76.6817 47.136 75.1537C47.852 73.0857 47.876 72.879 49.0667 70.999C50.5013 68.7297 50.2067 62.087 46.772 64.6324Z" fill="#F4C297"/>
</svg>
