<svg width="62" height="102" viewBox="0 0 62 102" fill="none" xmlns="http://www.w3.org/2000/svg">
<path d="M32.1251 57.5163C32.1251 66.2296 25.0615 73.3017 16.336 73.3017C7.61973 73.3017 0.549469 66.2296 0.549469 57.5163C0.549469 48.7963 7.61973 41.7257 16.336 41.7257C25.0615 41.7257 32.1251 48.7963 32.1251 57.5163Z" fill="#FCD751"/>
<path d="M29.4677 57.5163C29.4677 64.7656 23.5869 70.6416 16.336 70.6416C9.09013 70.6416 3.20934 64.7656 3.20934 57.5163C3.20934 50.2616 9.09013 44.3923 16.336 44.3923C23.5869 44.3923 29.4677 50.2616 29.4677 57.5163Z" fill="#FFA229"/>
<path d="M26.988 57.5163C26.988 63.3923 22.2188 68.163 16.336 68.163C10.4625 68.163 5.69267 63.3923 5.69267 57.5163C5.69267 51.6323 10.4625 46.8657 16.336 46.8657C22.2188 46.8657 26.988 51.6323 26.988 57.5163Z" fill="#FCD751"/>
<path d="M18.0765 60.5057C18.0765 60.1177 17.9219 59.7897 17.6005 59.5403C17.2891 59.2937 16.9079 59.059 16.4584 58.851V62.1204C17.0052 62.063 17.4115 61.887 17.6755 61.611C17.9417 61.3297 18.0765 60.9577 18.0765 60.5057ZM14.6041 54.2537C14.6041 54.6284 14.7464 54.939 15.0364 55.1884C15.3333 55.4377 15.6901 55.6683 16.1292 55.879V52.8537C15.5459 52.8737 15.1417 53.0203 14.9287 53.2777C14.7084 53.5377 14.6041 53.8657 14.6041 54.2537ZM15.3281 64.2564C14.6188 64.235 14.0036 64.1564 13.4661 64.0324C12.9339 63.9084 12.5219 63.7604 12.2251 63.5977L12.9453 61.4684C13.1703 61.611 13.4792 61.739 13.8864 61.863C14.2864 61.987 14.7683 62.0737 15.3281 62.1204V58.351C14.9401 58.179 14.5615 57.9857 14.1849 57.7724C13.8031 57.5644 13.4661 57.3123 13.1703 57.015C12.8751 56.7137 12.6344 56.3577 12.4531 55.9457C12.2719 55.527 12.186 55.035 12.186 54.467C12.186 53.4004 12.4645 52.5724 13.0303 51.987C13.5901 51.3964 14.3593 51.015 15.3281 50.8457V49.1497H17.2588V50.767C17.8047 50.8044 18.2823 50.879 18.6917 50.9857C19.0973 51.099 19.4792 51.227 19.8245 51.375L19.1563 53.4257C18.9437 53.327 18.6797 53.2284 18.3541 53.1297C18.0339 53.0244 17.6683 52.9537 17.2588 52.9083V56.399C17.6432 56.571 18.0339 56.767 18.4219 56.9857C18.8115 57.199 19.1563 57.4617 19.4593 57.755C19.7631 58.0537 20.0156 58.403 20.2073 58.8057C20.3959 59.207 20.4932 59.6897 20.4932 60.2443C20.4932 61.3843 20.2073 62.275 19.6292 62.911C19.0547 63.551 18.2631 63.9617 17.2588 64.1483V65.8763H15.3281V64.2564Z" fill="#FFA229"/>
<path d="M43.8688 42.7723C43.8688 49.831 38.1473 55.559 31.0797 55.559C24.0208 55.559 18.2927 49.831 18.2927 42.7723C18.2927 35.7083 24.0208 29.9803 31.0797 29.9803C38.1473 29.9803 43.8688 35.7083 43.8688 42.7723Z" fill="#FCD751"/>
<path d="M41.7177 42.7723C41.7177 48.6443 36.9531 53.4043 31.0797 53.4043C25.2093 53.4043 20.4479 48.6443 20.4479 42.7723C20.4479 36.8963 25.2093 32.1403 31.0797 32.1403C36.9531 32.1403 41.7177 36.8963 41.7177 42.7723Z" fill="#FFA229"/>
<path d="M39.7073 42.7724C39.7073 47.5324 35.8453 51.3964 31.0797 51.3964C26.3213 51.3964 22.4584 47.5324 22.4584 42.7724C22.4584 38.0057 26.3213 34.1443 31.0797 34.1443C35.8453 34.1443 39.7073 38.0057 39.7073 42.7724Z" fill="#FCD751"/>
<path d="M32.4896 45.1923C32.4896 44.879 32.3636 44.6137 32.1027 44.411C31.8516 44.211 31.5427 44.023 31.1797 43.8537V46.5017C31.6224 46.4537 31.9505 46.3123 32.1651 46.0883C32.3803 45.859 32.4896 45.5603 32.4896 45.1923ZM29.6755 40.1284C29.6755 40.4324 29.7917 40.6843 30.0271 40.887C30.2683 41.0883 30.5563 41.275 30.9115 41.4443V38.9964C30.4401 39.0124 30.1136 39.1284 29.9391 39.3377C29.7604 39.5497 29.6755 39.815 29.6755 40.1284ZM30.2631 48.2324C29.6875 48.215 29.1917 48.151 28.7568 48.051C28.3255 47.9497 27.9912 47.8284 27.75 47.6977L28.3333 45.9737C28.5156 46.0883 28.7656 46.1923 29.0964 46.2937C29.4203 46.3923 29.8099 46.463 30.2631 46.5017V43.4497C29.9489 43.3097 29.6417 43.1537 29.3369 42.9803C29.0287 42.811 28.7568 42.6084 28.5156 42.367C28.276 42.1217 28.0807 41.8324 27.9349 41.5017C27.7891 41.1604 27.7188 40.7617 27.7188 40.3044C27.7188 39.4377 27.9453 38.767 28.4027 38.2937C28.8557 37.815 29.4807 37.507 30.2631 37.3684V35.995H31.8281V37.3044C32.2683 37.335 32.6563 37.3977 32.988 37.4817C33.3161 37.5737 33.6251 37.6777 33.9047 37.7977L33.3645 39.459C33.1927 39.3777 32.9781 39.2977 32.7136 39.2203C32.4541 39.135 32.1588 39.0777 31.8281 39.0403V41.867C32.138 42.007 32.4541 42.1657 32.7708 42.3417C33.0849 42.515 33.3645 42.727 33.6093 42.9657C33.8557 43.207 34.0599 43.4897 34.2145 43.8177C34.3688 44.1417 34.4479 44.531 34.4479 44.9817C34.4479 45.9057 34.2145 46.6283 33.7464 47.143C33.2823 47.6617 32.6407 47.9923 31.8281 48.1443V49.543H30.2631V48.2324Z" fill="#FFA229"/>
<path d="M54.2161 29.995C54.2161 35.7123 49.5817 40.351 43.8584 40.351C38.138 40.351 33.5 35.7123 33.5 29.995C33.5 24.2723 38.138 19.6323 43.8584 19.6323C49.5817 19.6323 54.2161 24.2723 54.2161 29.995Z" fill="#FCD751"/>
<path d="M52.474 29.995C52.474 34.7497 48.6156 38.6057 43.8584 38.6057C39.1016 38.6057 35.2448 34.7497 35.2448 29.995C35.2448 25.235 39.1016 21.3843 43.8584 21.3843C48.6156 21.3843 52.474 25.235 52.474 29.995Z" fill="#FFA229"/>
<path d="M50.8464 29.995C50.8464 33.851 47.7177 36.979 43.8584 36.979C40.0027 36.979 36.8751 33.851 36.8751 29.995C36.8751 26.1324 40.0027 23.0057 43.8584 23.0057C47.7177 23.0057 50.8464 26.1324 50.8464 29.995Z" fill="#FCD751"/>
<path d="M45 31.955C45 31.699 44.8984 31.4857 44.686 31.3217C44.4817 31.1603 44.2328 31.007 43.9375 30.8684V33.015C44.2959 32.975 44.564 32.8617 44.7369 32.679C44.9099 32.495 45 32.251 45 31.955ZM42.7197 27.8537C42.7197 28.099 42.8151 28.303 43.0052 28.4657C43.1989 28.631 43.4339 28.7803 43.7213 28.9203V26.9337C43.3401 26.9484 43.0745 27.0443 42.9339 27.2137C42.7891 27.3843 42.7197 27.599 42.7197 27.8537ZM43.1937 34.4177C42.7292 34.403 42.3281 34.351 41.9751 34.271C41.6251 34.187 41.3557 34.091 41.1615 33.9843L41.6328 32.587C41.7812 32.679 41.9828 32.767 42.25 32.847C42.5131 32.9257 42.8281 32.9843 43.1937 33.015V30.5417C42.9427 30.4297 42.6927 30.3043 42.4453 30.163C42.1969 30.0257 41.9751 29.8617 41.7812 29.6657C41.586 29.4683 41.4287 29.2323 41.3099 28.9643C41.1917 28.6883 41.1364 28.3657 41.1364 27.995C41.1364 27.2937 41.3161 26.7497 41.6891 26.3643C42.0563 25.9777 42.5599 25.7297 43.1937 25.6163V24.5044H44.4625V25.5643C44.8213 25.5923 45.1355 25.6403 45.4027 25.711C45.6693 25.783 45.9193 25.867 46.1459 25.9657L45.7084 27.3097C45.5677 27.2457 45.3959 27.1803 45.1823 27.1177C44.9697 27.0497 44.7317 27.0017 44.4625 26.971V29.2617C44.7161 29.375 44.9697 29.503 45.2251 29.6443C45.4807 29.7857 45.7084 29.9577 45.9063 30.151C46.1057 30.347 46.2724 30.575 46.3973 30.8403C46.5224 31.1043 46.5849 31.4203 46.5849 31.783C46.5849 32.531 46.3973 33.1164 46.0172 33.535C45.6417 33.9537 45.1208 34.2217 44.4625 34.3457V35.4777H43.1937V34.4177Z" fill="#FFA229"/>
<path d="M25.2875 54.9084C22.3792 54.9084 19.6432 56.0404 17.586 58.099C13.3369 62.347 13.3369 69.259 17.586 73.5057C19.6432 75.563 22.3803 76.6964 25.2891 76.6964C28.2005 76.6964 30.9349 75.563 32.9921 73.5057C35.0511 71.4497 36.1839 68.7124 36.1839 65.8017C36.1839 62.8924 35.0511 60.1564 32.9921 58.099C30.9349 56.0404 28.1989 54.9084 25.2875 54.9084ZM25.2891 80.2097C21.4417 80.2097 17.8229 78.7097 15.1016 75.9897C12.3803 73.2697 10.8828 69.651 10.8828 65.8017C10.8828 61.9524 12.3803 58.335 15.1016 55.615C17.8229 52.895 21.4417 51.395 25.2875 51.395C29.138 51.395 32.7552 52.895 35.4765 55.6164C38.1979 58.3364 39.6969 61.9524 39.6969 65.8017C39.6969 69.651 38.1979 73.2697 35.4765 75.9897C32.7552 78.7097 29.138 80.2097 25.2891 80.2097Z" fill="#1C4670"/>
<path d="M39.6303 82.6257L32.8229 75.819L35.3063 73.335L42.1136 80.1417L39.6303 82.6257Z" fill="#1C4670"/>
<path d="M60.5355 96.3564C61.3031 97.123 61.3031 98.3684 60.5355 99.1364L58.624 101.048C57.8557 101.816 56.612 101.816 55.8437 101.048L37.7735 82.9777C37.0052 82.2097 37.0052 80.9657 37.7735 80.1964L39.6849 78.2857C40.4521 77.519 41.6969 77.519 42.4645 78.2857L60.5355 96.3564Z" fill="#AEBFCE"/>
<path d="M39.9817 85.187L39.1547 84.359L43.8464 79.6684L44.6735 80.4964L39.9817 85.187Z" fill="#FCD751"/>
<path d="M41.6057 86.8083L40.776 85.9803L45.4677 81.2897L46.2959 82.1177L41.6057 86.8083Z" fill="#FCD751"/>
<path d="M54.4625 99.6657L53.6344 98.8377L58.3255 94.1483L59.1527 94.975L54.4625 99.6657Z" fill="#FCD751"/>
<path d="M52.8412 98.0443L52.012 97.2163L56.7031 92.5257L57.5312 93.3523L52.8412 98.0443Z" fill="#FCD751"/>
<path d="M31.8412 20.5257C29.5745 20.5257 27.4417 21.4083 25.8385 23.0123C24.2344 24.6163 23.3516 26.747 23.3516 29.015C23.3516 31.2843 24.2344 33.4163 25.8385 35.019C27.4417 36.623 29.5745 37.507 31.8412 37.507C34.1104 37.507 36.2421 36.623 37.8473 35.0203C41.1579 31.7097 41.1563 26.323 37.8464 23.0123C36.2421 21.4083 34.1104 20.5257 31.8412 20.5257ZM31.8412 41.019C28.6355 41.019 25.6208 39.771 23.3541 37.503C21.0869 35.2364 19.8385 32.2217 19.8385 29.015C19.8385 25.8083 21.0869 22.795 23.3541 20.5284C25.6208 18.2604 28.6355 17.0123 31.8412 17.0123C35.0479 17.0123 38.0615 18.2604 40.3297 20.5284C45.0104 25.2084 45.0104 32.823 40.3297 37.5057C38.0625 39.771 35.0495 41.019 31.8412 41.019Z" fill="#1C4670"/>
<path d="M23.4912 23.1483L17.9792 17.635L20.4625 15.1523L25.9751 20.6657L23.4912 23.1483Z" fill="#1C4670"/>
<path d="M3.29267 4.26699C2.67187 3.64566 2.67187 2.63764 3.29267 2.01497L4.84121 0.466993C5.46254 -0.155674 6.46974 -0.155674 7.09214 0.466993L21.7307 15.1043C22.3516 15.7257 22.3516 16.7323 21.7307 17.355L20.1823 18.903C19.5599 19.5257 18.5511 19.5257 17.9297 18.903L3.29267 4.26699Z" fill="#AEBFCE"/>
<path d="M16.8896 17.863L16.0615 17.0363L19.862 13.235L20.6901 14.063L16.8896 17.863Z" fill="#FCD751"/>
<path d="M15.5755 16.551L14.7473 15.723L18.5479 11.9216L19.376 12.7496L15.5755 16.551Z" fill="#FCD751"/>
<path d="M5.16146 6.13501L4.33333 5.30698L8.1328 1.50698L8.96093 2.33501L5.16146 6.13501Z" fill="#FCD751"/>
<path d="M6.47401 7.44965L5.64734 6.62032L9.44694 2.82299L10.2751 3.65098L6.47401 7.44965Z" fill="#FCD751"/>
</svg>
