<svg width="89" height="79" viewBox="0 0 89 79" fill="none" xmlns="http://www.w3.org/2000/svg">
<path d="M22.2666 32.223C22.2426 32.7376 21.916 33.1376 21.5346 33.1176L17.9013 32.935C17.52 32.915 17.2373 32.4843 17.2613 31.9696L17.4093 29.0443C17.436 28.5283 17.7667 28.127 18.1467 28.147L21.776 28.331C22.1533 28.3496 22.4413 28.7803 22.416 29.2976L22.2666 32.223Z" fill="#AEBFCE"/>
<path d="M20.8173 60.723C20.844 60.207 20.556 59.7737 20.18 59.7563L16.5467 59.5763C16.168 59.5523 15.8374 59.9563 15.8107 60.4683L15.6653 63.3977C15.6387 63.9097 15.9214 64.3417 16.304 64.3617L19.9387 64.543C20.3174 64.5643 20.644 64.1643 20.6693 63.651L20.8173 60.723Z" fill="#AEBFCE"/>
<path d="M14.7733 32.5057C15.0067 32.9643 14.924 33.471 14.584 33.6443L11.3467 35.3003C11.0133 35.4723 10.5453 35.2443 10.3107 34.7856L8.976 32.1763C8.74 31.719 8.82665 31.2083 9.15999 31.0337L12.4 29.3803C12.7413 29.2016 13.2053 29.4377 13.436 29.8923L14.7733 32.5057Z" fill="#AEBFCE"/>
<path d="M27.7693 57.9096C27.5333 57.4456 27.072 57.2177 26.7333 57.3897L23.4973 59.047C23.1546 59.2203 23.0733 59.7337 23.3053 60.1923L24.64 62.799C24.8733 63.259 25.34 63.4883 25.68 63.3163L28.9173 61.6603C29.252 61.4843 29.34 60.9737 29.104 60.5137L27.7693 57.9096Z" fill="#AEBFCE"/>
<path d="M8.42133 36.491C8.85733 36.7697 9.03734 37.2577 8.83467 37.5737L6.856 40.627C6.64666 40.947 6.13334 40.9777 5.696 40.699L3.24268 39.1057C2.81068 38.8257 2.62534 38.3403 2.83467 38.0243L4.80801 34.9683C5.01201 34.651 5.532 34.6177 5.96267 34.8977L8.42133 36.491Z" fill="#AEBFCE"/>
<path d="M32.3773 51.9923C31.948 51.7137 31.428 51.747 31.2253 52.0643L29.2506 55.119C29.0426 55.4363 29.2226 55.9217 29.6573 56.203L32.1173 57.7937C32.548 58.0737 33.0693 58.043 33.2773 57.7217L35.2467 54.6697C35.4573 54.3537 35.2733 53.8683 34.84 53.587L32.3773 51.9923Z" fill="#AEBFCE"/>
<path d="M4.916 43.119C5.43067 43.1456 5.836 43.4736 5.816 43.8523L5.62798 47.4843C5.60932 47.8643 5.17732 48.1497 4.66666 48.1243L1.73599 47.9763C1.21999 47.9483 0.819997 47.6203 0.84133 47.239L1.02398 43.6123C1.04398 43.2296 1.47331 42.9443 1.98931 42.9723L4.916 43.119Z" fill="#AEBFCE"/>
<path d="M33.4187 44.5697C32.904 44.543 32.4693 44.8283 32.452 45.207L32.2667 48.8377C32.248 49.2177 32.648 49.5497 33.1653 49.5723L36.0893 49.723C36.6053 49.747 37.036 49.463 37.056 49.0816L37.2414 45.451C37.2614 45.0696 36.8574 44.743 36.3454 44.715L33.4187 44.5697Z" fill="#AEBFCE"/>
<path d="M5.1973 50.6137C5.65463 50.3803 6.16397 50.463 6.33997 50.8004L7.99463 54.0377C8.16796 54.3764 7.93731 54.8417 7.47865 55.0763L4.8693 56.4097C4.4133 56.6443 3.90529 56.5603 3.72663 56.2217L2.07197 52.9857C1.89864 52.647 2.13062 52.1817 2.58662 51.947L5.1973 50.6137Z" fill="#AEBFCE"/>
<path d="M30.6013 37.6177C30.144 37.8523 29.9146 38.315 30.0853 38.6537L31.7427 41.8897C31.9133 42.2283 32.424 42.315 32.884 42.079L35.4933 40.7457C35.9506 40.511 36.1827 40.047 36.008 39.7083L34.3533 36.471C34.1813 36.1323 33.6707 36.0483 33.2093 36.2817L30.6013 37.6177Z" fill="#AEBFCE"/>
<path d="M9.18397 56.9644C9.46664 56.531 9.94932 56.3483 10.2693 56.5537L13.3213 58.527C13.64 58.7364 13.676 59.255 13.3933 59.687L11.8013 62.1497C11.5213 62.579 11.0347 62.763 10.716 62.5537L7.66398 60.579C7.34532 60.3723 7.31331 59.8564 7.59064 59.4257L9.18397 56.9644Z" fill="#AEBFCE"/>
<path d="M24.688 33.0057C24.4093 33.439 24.44 33.9537 24.7613 34.163L27.816 36.1364C28.132 36.343 28.616 36.1617 28.8973 35.7297L30.4893 33.2697C30.768 32.835 30.736 32.319 30.4173 32.1123L27.3653 30.1377C27.0453 29.9337 26.56 30.1123 26.2787 30.543L24.688 33.0057Z" fill="#AEBFCE"/>
<path d="M18.5293 56.4217C12.964 56.143 8.67997 51.399 8.9613 45.8337C9.2453 40.2657 13.9866 35.9857 19.5506 36.2683C25.1173 36.5483 29.4053 41.2883 29.1186 46.8577C28.8346 52.4243 24.0986 56.7083 18.5293 56.4217ZM19.8173 31.039C11.364 30.6083 4.15997 37.1163 3.73464 45.567C3.30531 54.0203 9.8053 61.223 18.2626 61.6537C26.7146 62.083 33.916 55.575 34.3453 47.123C34.776 38.6683 28.2733 31.4697 19.8173 31.039Z" fill="#768296"/>
<path d="M25.5253 3.49231C25.5106 3.82698 25.2973 4.08829 25.048 4.07629L22.6813 3.95631C22.432 3.94297 22.2466 3.66298 22.2626 3.32698L22.3613 1.42164C22.376 1.08431 22.592 0.824321 22.84 0.837654L25.2053 0.956307C25.452 0.96964 25.6386 1.24964 25.6213 1.58564L25.5253 3.49231Z" fill="#AEBFCE"/>
<path d="M24.5827 22.063C24.5973 21.7297 24.4106 21.4457 24.164 21.4337L21.7986 21.3163C21.5506 21.3017 21.3346 21.5643 21.3186 21.899L21.224 23.807C21.2066 24.1403 21.3907 24.4217 21.6387 24.435L24.008 24.555C24.2533 24.5683 24.4693 24.3057 24.4827 23.9723L24.5827 22.063Z" fill="#AEBFCE"/>
<path d="M20.64 3.67632C20.7933 3.97498 20.7426 4.30566 20.5186 4.41899L18.4107 5.49901C18.192 5.60834 17.888 5.46034 17.7347 5.16167L16.864 3.46034C16.7107 3.16434 16.768 2.83233 16.984 2.71766L19.096 1.63901C19.316 1.52435 19.6213 1.67632 19.7707 1.97365L20.64 3.67632Z" fill="#AEBFCE"/>
<path d="M29.1107 20.2323C28.9587 19.931 28.656 19.7803 28.4347 19.891L26.3266 20.9723C26.1026 21.0843 26.052 21.419 26.2 21.7177L27.0707 23.4177C27.224 23.7177 27.528 23.8657 27.7493 23.755L29.86 22.6736C30.0773 22.5603 30.136 22.2283 29.98 21.9297L29.1107 20.2323Z" fill="#AEBFCE"/>
<path d="M16.504 6.27496C16.7867 6.45496 16.904 6.7723 16.7707 6.9803L15.4827 8.96966C15.3467 9.17899 15.012 9.19764 14.728 9.0163L13.1293 7.97763C12.8467 7.79497 12.7267 7.47896 12.8613 7.27363L14.148 5.2803C14.28 5.0763 14.6213 5.05499 14.9 5.23632L16.504 6.27496Z" fill="#AEBFCE"/>
<path d="M32.116 16.375C31.8346 16.195 31.4946 16.2163 31.3626 16.4217L30.076 18.4136C29.94 18.6203 30.0573 18.9377 30.3413 19.1203L31.944 20.1563C32.224 20.3377 32.564 20.3163 32.7 20.1096L33.9826 18.1203C34.1186 17.915 33.9999 17.5977 33.7173 17.415L32.116 16.375Z" fill="#AEBFCE"/>
<path d="M14.2186 10.5924C14.5546 10.611 14.8187 10.8257 14.804 11.0724L14.6827 13.4377C14.6707 13.6844 14.388 13.8723 14.056 13.8563L12.1467 13.759C11.8107 13.7404 11.5493 13.527 11.5627 13.279L11.6827 10.915C11.6947 10.6657 11.976 10.4804 12.312 10.4977L14.2186 10.5924Z" fill="#AEBFCE"/>
<path d="M32.7933 11.539C32.4573 11.5203 32.1733 11.7057 32.1627 11.9537L32.0427 14.319C32.028 14.567 32.2907 14.7843 32.628 14.7977L34.5333 14.8977C34.8667 14.9137 35.1493 14.7257 35.1627 14.4777L35.2827 12.1123C35.296 11.8657 35.032 11.651 34.6973 11.6323L32.7933 11.539Z" fill="#AEBFCE"/>
<path d="M14.4026 15.4777C14.6986 15.3257 15.0307 15.3777 15.1467 15.599L16.2253 17.7083C16.3386 17.9283 16.188 18.231 15.8893 18.3857L14.188 19.2537C13.8906 19.407 13.5587 19.3523 13.4413 19.131L12.3653 17.0217C12.252 16.803 12.4013 16.4977 12.7013 16.347L14.4026 15.4777Z" fill="#AEBFCE"/>
<path d="M30.956 7.00699C30.6586 7.16166 30.508 7.463 30.62 7.68434L31.6973 9.79101C31.8107 10.0123 32.144 10.067 32.4427 9.91767L34.144 9.047C34.4427 8.895 34.5907 8.59102 34.4787 8.36969L33.4027 6.26168C33.2893 6.04035 32.9573 5.98435 32.6573 6.13769L30.956 7.00699Z" fill="#AEBFCE"/>
<path d="M17 19.6137C17.1853 19.3324 17.4987 19.2137 17.7067 19.347L19.696 20.635C19.904 20.771 19.9253 21.1084 19.744 21.3897L18.7053 22.9937C18.5227 23.2737 18.2053 23.3937 17.996 23.2577L16.0107 21.9724C15.8013 21.8364 15.7813 21.499 15.9627 21.219L17 19.6137Z" fill="#AEBFCE"/>
<path d="M27.1026 4.00036C26.92 4.28436 26.9426 4.61901 27.1506 4.75502L29.14 6.043C29.3453 6.17634 29.664 6.06034 29.8453 5.77767L30.8827 4.17237C31.064 3.89237 31.044 3.55501 30.836 3.42035L28.8493 2.13236C28.6387 2.00036 28.3226 2.11769 28.1386 2.39903L27.1026 4.00036Z" fill="#AEBFCE"/>
<path d="M23.088 19.263C19.4626 19.079 16.672 15.9897 16.8546 12.3617C17.0386 8.73499 20.1306 5.94433 23.7546 6.12699C27.3826 6.31233 30.1773 9.40033 29.9893 13.0283C29.8053 16.6577 26.7186 19.447 23.088 19.263ZM23.928 2.72032C18.42 2.44032 13.7267 6.68032 13.4493 12.1883C13.168 17.6977 17.4067 22.391 22.916 22.671C28.4227 22.951 33.1146 18.711 33.396 13.2017C33.676 7.69234 29.44 3.00032 23.928 2.72032Z" fill="#768296"/>
<path d="M74.1573 29.299C74.144 29.5763 73.9693 29.791 73.7653 29.7803L71.8093 29.683C71.6026 29.671 71.452 29.4403 71.4653 29.163L71.5466 27.591C71.5586 27.3137 71.7386 27.0976 71.9426 27.1096L73.8933 27.207C74.096 27.2176 74.2506 27.447 74.2373 27.727L74.1573 29.299Z" fill="#AEBFCE"/>
<path d="M73.38 44.627C73.392 44.351 73.236 44.1164 73.0346 44.1057L71.0826 44.007C70.8773 43.9977 70.6999 44.2137 70.6866 44.4897L70.608 46.0644C70.592 46.339 70.7453 46.5723 70.9519 46.5843L72.9066 46.6803C73.1093 46.691 73.2853 46.4777 73.2986 46.2004L73.38 44.627Z" fill="#AEBFCE"/>
<path d="M70.1266 29.4496C70.2533 29.6963 70.2093 29.9723 70.028 30.0643L68.2866 30.9536C68.1053 31.047 67.8546 30.923 67.728 30.679L67.0093 29.2736C66.8826 29.0283 66.9293 28.7536 67.1106 28.6603L68.8533 27.7723C69.0333 27.675 69.284 27.803 69.4093 28.047L70.1266 29.4496Z" fill="#AEBFCE"/>
<path d="M77.1173 43.1136C76.9893 42.8643 76.7426 42.7417 76.5613 42.8337L74.82 43.7256C74.636 43.8176 74.5907 44.0936 74.7147 44.3403L75.4333 45.743C75.5586 45.991 75.8093 46.1136 75.9933 46.0216L77.7346 45.131C77.9146 45.0337 77.9613 44.763 77.8346 44.5136L77.1173 43.1136Z" fill="#AEBFCE"/>
<path d="M66.7133 31.5963C66.9453 31.7457 67.0439 32.007 66.9333 32.1763L65.8693 33.8203C65.7573 33.9923 65.4826 34.0097 65.248 33.859L63.9253 33.0003C63.6946 32.851 63.5933 32.591 63.7066 32.4177L64.7693 30.7777C64.8786 30.6057 65.1586 30.587 65.3906 30.739L66.7133 31.5963Z" fill="#AEBFCE"/>
<path d="M79.596 39.931C79.364 39.7817 79.084 39.799 78.9733 39.9697L77.9147 41.6123C77.8027 41.7843 77.9 42.0457 78.132 42.1964L79.4546 43.051C79.688 43.2003 79.9693 43.1857 80.0813 43.0123L81.1386 41.3697C81.2493 41.2017 81.1506 40.9404 80.9186 40.7884L79.596 39.931Z" fill="#AEBFCE"/>
<path d="M64.8266 35.1604C65.104 35.175 65.3213 35.351 65.3093 35.555L65.2106 37.507C65.1986 37.711 64.968 37.8657 64.6933 37.8523L63.1173 37.7724C62.8386 37.7564 62.6253 37.5803 62.6346 37.375L62.736 35.4257C62.744 35.2204 62.976 35.0657 63.2533 35.0817L64.8266 35.1604Z" fill="#AEBFCE"/>
<path d="M80.1573 35.939C79.8773 35.9256 79.6427 36.0776 79.636 36.2816L79.536 38.2336C79.5267 38.4403 79.7413 38.6176 80.02 38.6296L81.5907 38.7109C81.868 38.7229 82.1 38.571 82.112 38.367L82.2107 36.4136C82.2213 36.2096 82.004 36.0323 81.728 36.0163L80.1573 35.939Z" fill="#AEBFCE"/>
<path d="M64.976 39.1897C65.2226 39.0643 65.4973 39.1083 65.5933 39.291L66.4813 41.0323C66.5773 41.215 66.4533 41.4617 66.2053 41.591L64.8013 42.307C64.5546 42.4336 64.28 42.3883 64.1866 42.207L63.2986 40.4657C63.2053 40.2843 63.328 40.0323 63.5746 39.9096L64.976 39.1897Z" fill="#AEBFCE"/>
<path d="M78.6387 32.2004C78.3947 32.327 78.2693 32.5763 78.3613 32.759L79.252 34.499C79.3453 34.6817 79.62 34.7257 79.8653 34.6004L81.272 33.883C81.5187 33.7563 81.64 33.507 81.5453 33.3257L80.656 31.5843C80.564 31.4017 80.2907 31.3577 80.0427 31.483L78.6387 32.2004Z" fill="#AEBFCE"/>
<path d="M67.1213 42.6043C67.2733 42.371 67.5347 42.275 67.7053 42.3856L69.348 43.4456C69.52 43.5576 69.5373 43.8377 69.3866 44.0683L68.5293 45.3936C68.3787 45.6243 68.1173 45.723 67.944 45.611L66.3053 44.5483C66.1333 44.4376 66.1147 44.1603 66.2653 43.9283L67.1213 42.6043Z" fill="#AEBFCE"/>
<path d="M75.46 29.7203C75.3106 29.9523 75.328 30.2297 75.5 30.343L77.1413 31.4044C77.312 31.515 77.5733 31.419 77.7226 31.1857L78.58 29.863C78.728 29.6283 78.7133 29.351 78.5413 29.2403L76.8986 28.179C76.7266 28.0683 76.468 28.1643 76.316 28.3963L75.46 29.7203Z" fill="#AEBFCE"/>
<path d="M72.1453 42.3123C69.1533 42.1643 66.8506 39.6123 67.0013 36.6203C67.1546 33.6256 69.7053 31.323 72.6973 31.4736C75.6919 31.6256 77.996 34.1763 77.8426 37.1697C77.6893 40.1643 75.1413 42.4683 72.1453 42.3123ZM72.8399 28.663C68.2946 28.4323 64.4186 31.931 64.1919 36.4763C63.9599 41.023 67.4573 44.8936 72.0039 45.127C76.5493 45.3576 80.4213 41.859 80.6519 37.311C80.8853 32.7656 77.3879 28.895 72.8399 28.663Z" fill="#768296"/>
<path d="M25.04 39.6577L41.1573 29.571L26.2186 17.783C21.1 24.2683 20.8987 33.0363 25.04 39.6577Z" fill="#FCD751"/>
<path d="M35.268 6.06566L42.372 23.707L56.1947 10.6577C55.5667 9.99232 54.9027 9.35233 54.16 8.767C48.612 4.38833 41.388 3.60966 35.268 6.06566Z" fill="#1C4670"/>
<path d="M29.368 44.511C33.3026 47.6137 38.0773 48.9097 42.7026 48.5243L41.1573 29.571L25.04 39.6577C26.1693 41.4617 27.6013 43.1163 29.368 44.511Z" fill="#1C4670"/>
<path d="M26.2186 17.783L41.1573 29.571L34.052 11.931C31.0733 13.1283 28.3506 15.0803 26.2186 17.783Z" fill="#AEBFCE"/>
<path d="M41.1573 29.571L59.4493 34.775C61.2413 28.4416 59.652 21.459 54.9787 16.5216L41.1573 29.571Z" fill="#AEBFCE"/>
<path d="M41.1573 29.571L42.7027 48.5243C44.8627 48.3457 46.9946 47.803 48.988 46.9043C51.6853 45.691 54.1387 43.8403 56.096 41.359C57.6893 39.3417 58.7893 37.1016 59.4493 34.775L41.1573 29.571Z" fill="#FFA229"/>
<path d="M72.4226 24.0163C68.9493 24.0163 65.6866 25.3683 63.232 27.823C60.7746 30.279 59.4226 33.5443 59.4226 37.015C59.4226 40.4883 60.7746 43.751 63.232 46.207C65.6866 48.663 68.9493 50.015 72.4213 50.015C75.8933 50.015 79.1573 48.663 81.6133 46.207C84.0693 43.751 85.4213 40.4883 85.4213 37.015C85.4213 33.543 84.0693 30.2777 81.616 27.823C79.16 25.3683 75.8946 24.0163 72.4226 24.0163ZM72.4213 53.4443C68.0319 53.4443 63.908 51.735 60.8053 48.6324C57.7013 45.5297 55.9933 41.4043 55.9933 37.015C55.9933 32.627 57.7013 28.5017 60.8053 25.399C63.908 22.295 68.0333 20.587 72.4226 20.587C76.8106 20.587 80.936 22.295 84.04 25.3977C87.1413 28.5004 88.8519 32.627 88.8506 37.015C88.8506 41.4043 87.14 45.5297 84.0373 48.6324C80.9346 51.735 76.8093 53.4443 72.4213 53.4443Z" fill="#1C4670"/>
<path d="M55.512 56.351L53.0867 53.9257L61.0027 46.0096L63.428 48.435L55.512 56.351Z" fill="#1C4670"/>
<path d="M31.4293 72.5523C30.536 73.4443 30.536 74.8923 31.4293 75.7856L33.6507 78.0083C34.5427 78.9016 35.9933 78.9016 36.8867 78.0083L57.9027 56.991C58.7947 56.099 58.7947 54.651 57.9027 53.7576L55.68 51.535C54.7867 50.6416 53.3414 50.6416 52.448 51.535L31.4293 72.5523Z" fill="#AEBFCE"/>
<path d="M55.4107 59.4843L49.9547 54.0283L50.7627 53.219L56.2186 58.675L55.4107 59.4843Z" fill="#FCD751"/>
<path d="M53.524 61.3697L48.0693 55.915L48.8747 55.1057L54.332 60.5617L53.524 61.3697Z" fill="#FCD751"/>
<path d="M38.5707 76.3243L33.112 70.8684L33.9213 70.0603L39.3787 75.515L38.5707 76.3243Z" fill="#FCD751"/>
<path d="M40.4573 74.4377L35 68.9817L35.8067 68.1724L41.264 73.6297L40.4573 74.4377Z" fill="#FCD751"/>
</svg>
