<svg width="85" height="96" viewBox="0 0 85 96" fill="none" xmlns="http://www.w3.org/2000/svg">
<path d="M16.5213 53.2605C16.5021 53.6485 16.2573 53.947 15.9708 53.9334L13.2396 53.7975C12.9531 53.7787 12.7396 53.4574 12.7584 53.0699L12.8708 50.8699C12.8901 50.4845 13.1385 50.1818 13.4255 50.1965L16.1536 50.3366C16.436 50.3495 16.6527 50.6735 16.6323 51.0631L16.5213 53.2605Z" fill="#AEBFCE"/>
<path d="M15.4323 74.6818C15.4511 74.2949 15.2349 73.9709 14.9527 73.9563L12.2219 73.8214C11.9385 73.8042 11.6885 74.1058 11.6693 74.4923L11.5599 76.6938C11.5385 77.0777 11.7527 77.4033 12.0396 77.4189L14.7708 77.5537C15.0573 77.5709 15.3021 77.2699 15.3208 76.8829L15.4323 74.6818Z" fill="#AEBFCE"/>
<path d="M10.888 53.4725C11.0645 53.8151 11.0027 54.199 10.7469 54.3271L8.31306 55.5751C8.062 55.7042 7.71146 55.5298 7.53546 55.187L6.53026 53.2271C6.3536 52.8803 6.4188 52.4975 6.67026 52.3667L9.1052 51.123C9.35987 50.9881 9.71093 51.1667 9.88333 51.5085L10.888 53.4725Z" fill="#AEBFCE"/>
<path d="M20.6568 72.5699C20.4792 72.2203 20.1333 72.0495 19.8792 72.1761L17.4469 73.423C17.188 73.5522 17.1281 73.9391 17.3016 74.2829L18.3047 76.2443C18.4812 76.5881 18.8317 76.7615 19.0855 76.6323L21.5203 75.3881C21.7735 75.2563 21.8369 74.8709 21.6599 74.5257L20.6568 72.5699Z" fill="#AEBFCE"/>
<path d="M6.1151 56.4699C6.44066 56.6803 6.57599 57.0443 6.42453 57.2818L4.9375 59.5787C4.78073 59.8189 4.39322 59.8427 4.06562 59.6309L2.22188 58.4334C1.89636 58.2257 1.75729 57.8605 1.91458 57.6203L3.39843 55.3246C3.55155 55.0845 3.94114 55.0615 4.26614 55.2709L6.1151 56.4699Z" fill="#AEBFCE"/>
<path d="M24.1224 68.1203C23.7973 67.911 23.4079 67.9366 23.2547 68.1735L21.7708 70.4725C21.6156 70.7094 21.75 71.0751 22.0781 71.2855L23.9255 72.4803C24.2505 72.6949 24.6407 72.6683 24.7964 72.4271L26.2781 70.1323C26.4349 69.8965 26.2979 69.5309 25.9729 69.3189L24.1224 68.1203Z" fill="#AEBFCE"/>
<path d="M3.47917 61.4511C3.86718 61.4725 4.17084 61.7178 4.15573 62.0017L4.01354 64.7334C4.00156 65.0189 3.67604 65.2323 3.2901 65.2137L1.08906 65.1017C0.701038 65.0818 0.398958 64.8334 0.416664 64.547L0.553638 61.8214C0.568225 61.5323 0.894784 61.3189 1.28073 61.3402L3.47917 61.4511Z" fill="#AEBFCE"/>
<path d="M24.9041 62.5402C24.5161 62.5214 24.1896 62.7366 24.1771 63.0203L24.0391 65.7495C24.0229 66.035 24.3251 66.2855 24.714 66.3017L26.912 66.4151C27.2989 66.435 27.624 66.2178 27.6375 65.9323L27.7781 63.2033C27.7917 62.9178 27.488 62.6709 27.1027 62.6511L24.9041 62.5402Z" fill="#AEBFCE"/>
<path d="M3.69062 67.0845C4.03593 66.9094 4.41666 66.9725 4.54948 67.2241L5.79426 69.6579C5.92396 69.9121 5.75052 70.2631 5.40469 70.4375L3.4453 71.4418C3.10208 71.6189 2.71926 71.5547 2.58385 71.3017L1.34166 68.8667C1.21093 68.6121 1.38437 68.2615 1.72864 68.0881L3.69062 67.0845Z" fill="#AEBFCE"/>
<path d="M22.786 57.3151C22.4427 57.4913 22.2683 57.8402 22.3989 58.0949L23.6437 60.5271C23.7729 60.7818 24.1568 60.8454 24.5016 60.6699L26.4636 59.6667C26.8079 59.4923 26.9817 59.1418 26.8505 58.887L25.6068 56.4522C25.4751 56.199 25.0932 56.1375 24.7473 56.311L22.786 57.3151Z" fill="#AEBFCE"/>
<path d="M6.68693 71.8563C6.8984 71.5323 7.26253 71.3965 7.50267 71.5485L9.79733 73.0309C10.0364 73.1913 10.064 73.5803 9.85107 73.9058L8.6536 75.7547C8.44267 76.0777 8.07813 76.2178 7.83853 76.059L5.54584 74.5761C5.30364 74.4178 5.28177 74.0298 5.48959 73.7094L6.68693 71.8563Z" fill="#AEBFCE"/>
<path d="M18.3407 53.8495C18.1307 54.1735 18.1541 54.5615 18.3953 54.7189L20.6932 56.2017C20.9287 56.359 21.2937 56.2214 21.5052 55.8975L22.7027 54.0454C22.9115 53.7203 22.8875 53.3323 22.6479 53.1787L20.3521 51.6938C20.1125 51.5391 19.7479 51.6751 19.5369 51.9965L18.3407 53.8495Z" fill="#AEBFCE"/>
<path d="M13.7104 71.4511C9.52653 71.2402 6.30781 67.6761 6.52027 63.4913C6.7344 59.3058 10.2973 56.0881 14.4807 56.3017C18.664 56.5137 21.8855 60.0761 21.6719 64.2615C21.4588 68.4454 17.8984 71.6642 13.7104 71.4511ZM14.6792 52.3699C8.32547 52.0485 2.91197 56.9391 2.59115 63.2907C2.26719 69.6454 7.15413 75.0605 13.512 75.3818C19.8651 75.7042 25.2771 70.8137 25.6016 64.4615C25.924 58.1058 21.0364 52.6938 14.6792 52.3699Z" fill="#768296"/>
<path d="M22.7917 49.1547C22.7781 49.4391 22.5973 49.6605 22.3896 49.6511L20.3792 49.5485C20.1672 49.535 20.0104 49.299 20.024 49.0151L20.1063 47.3965C20.1208 47.1121 20.3041 46.8897 20.514 46.9001L22.5208 47.0017C22.7297 47.0121 22.8885 47.2511 22.8751 47.5375L22.7917 49.1547Z" fill="#1C4670"/>
<path d="M21.9912 64.9162C22.0057 64.6282 21.8469 64.387 21.638 64.3803L19.6292 64.2803C19.4197 64.2657 19.238 64.4897 19.2219 64.7735L19.1412 66.3938C19.126 66.6751 19.2844 66.9151 19.4948 66.9271L21.5052 67.0271C21.714 67.0375 21.8953 66.8162 21.9088 66.5323L21.9912 64.9162Z" fill="#1C4670"/>
<path d="M18.6479 49.3094C18.7771 49.5642 18.7323 49.8443 18.5448 49.9418L16.7531 50.8563C16.5693 50.9511 16.312 50.8246 16.1807 50.5709L15.4427 49.1298C15.3131 48.8735 15.3593 48.5923 15.5443 48.4965L17.336 47.5845C17.524 47.4818 17.7823 47.6137 17.9093 47.8642L18.6479 49.3094Z" fill="#1C4670"/>
<path d="M25.8349 63.359C25.7036 63.1033 25.45 62.9761 25.2625 63.0725L23.4719 63.987C23.2844 64.0845 23.238 64.3667 23.3667 64.6189L24.1047 66.0631C24.2344 66.3178 24.4917 66.4443 24.6792 66.3495L26.4693 65.4323C26.6547 65.335 26.7036 65.0537 26.5729 64.8001L25.8349 63.359Z" fill="#1C4670"/>
<path d="M15.1364 51.5162C15.3776 51.6683 15.476 51.9391 15.364 52.1121L14.2703 53.8033C14.1557 53.9803 13.8708 53.9965 13.6297 53.8427L12.2719 52.9615C12.0333 52.8058 11.9303 52.5375 12.0459 52.3615L13.1385 50.6725C13.2495 50.4965 13.5391 50.4803 13.7765 50.635L15.1364 51.5162Z" fill="#1C4670"/>
<path d="M28.3849 60.087C28.1448 59.9334 27.8588 59.9511 27.7453 60.1271L26.6547 61.8151C26.5385 61.9913 26.6375 62.2574 26.8803 62.4162L28.2391 63.2965C28.4765 63.4511 28.7661 63.4334 28.8797 63.2547L29.9693 61.5683C30.0855 61.3949 29.9844 61.1241 29.7448 60.9683L28.3849 60.087Z" fill="#1C4670"/>
<path d="M13.1973 55.1803C13.4844 55.1949 13.7057 55.3761 13.6953 55.5845L13.5912 57.5923C13.5812 57.8042 13.3421 57.9615 13.0593 57.9495L11.4385 57.8657C11.1541 57.8511 10.9328 57.6709 10.9453 57.4574L11.0464 55.4522C11.0563 55.2427 11.2948 55.0829 11.5797 55.099L13.1973 55.1803Z" fill="#1C4670"/>
<path d="M28.9588 55.9818C28.6745 55.9683 28.4344 56.1241 28.4245 56.3334L28.3224 58.3418C28.3115 58.5522 28.5339 58.7366 28.8197 58.7495L30.436 58.8323C30.7193 58.8454 30.9593 58.6897 30.9708 58.4751L31.0724 56.4699C31.0839 56.2563 30.8599 56.0761 30.576 56.0615L28.9588 55.9818Z" fill="#1C4670"/>
<path d="M13.3536 59.3257C13.6073 59.1949 13.8875 59.2418 13.9849 59.4271L14.9005 61.2162C14.9964 61.4042 14.8693 61.6631 14.6145 61.7923L13.1719 62.5282C12.9197 62.6605 12.6385 62.611 12.5407 62.4241L11.6255 60.635C11.5287 60.4495 11.6563 60.1923 11.9088 60.0605L13.3536 59.3257Z" fill="#1C4670"/>
<path d="M27.4011 52.1375C27.1484 52.2657 27.0208 52.523 27.1172 52.711L28.0303 54.5017C28.1255 54.6897 28.4093 54.735 28.664 54.6042L30.1068 53.8683C30.3588 53.7391 30.4869 53.4803 30.3901 53.2938L29.476 51.5017C29.3803 51.3151 29.0984 51.2709 28.8443 51.399L27.4011 52.1375Z" fill="#1C4670"/>
<path d="M15.5568 62.835C15.7145 62.5965 15.9812 62.4949 16.1579 62.6085L17.8459 63.7001C18.0213 63.8162 18.0412 64.1033 17.8855 64.3418L17.0052 65.7033C16.8505 65.9402 16.5803 66.0427 16.4036 65.9257L14.7161 64.835C14.5385 64.7203 14.5235 64.4334 14.6765 64.1965L15.5568 62.835Z" fill="#1C4670"/>
<path d="M24.1297 49.5881C23.9765 49.8271 23.9943 50.1121 24.1719 50.2282L25.8604 51.3178C26.0344 51.4323 26.3031 51.3334 26.4584 51.0938L27.3401 49.7334C27.4927 49.4938 27.4765 49.2085 27.3 49.0938L25.612 48.0001C25.4344 47.8897 25.1651 47.987 25.0109 48.2257L24.1297 49.5881Z" fill="#1C4670"/>
<path d="M20.7251 62.5366C17.6473 62.3829 15.2803 59.7574 15.4349 56.6818C15.5917 53.6017 18.214 51.2334 21.2912 51.3897C24.3688 51.547 26.738 54.1683 26.5803 57.2485C26.424 60.323 23.8068 62.6938 20.7251 62.5366ZM21.438 48.4975C16.7631 48.2631 12.7792 51.8605 12.5443 56.5323C12.3052 61.2085 15.9011 65.1913 20.5787 65.4282C25.2527 65.6657 29.2339 62.0667 29.4713 57.3938C29.7093 52.7189 26.114 48.7391 21.438 48.4975Z" fill="#1C4670"/>
<path d="M42.3469 72.3246C42.0303 71.3271 42.7229 71.611 43.1713 72.2309C43.6203 72.8522 46.9265 76.7495 48.7604 71.7094C50.6849 66.7058 45.6281 67.4777 44.8833 67.6495C44.1385 67.823 43.4303 67.5845 44.3265 67.0391C45.4573 66.3563 47.7869 65.0699 50.7369 66.4241C53.8584 67.8563 53.1271 71.5162 52.5303 73.1189C51.9287 74.7203 50.0765 77.9615 46.786 76.9965C43.6688 76.0818 42.7552 73.5845 42.3469 72.3246Z" fill="#1C4670"/>
<path d="M79.6609 86.2761C80.5563 85.7298 79.8489 85.4938 79.1057 85.6667C78.3593 85.8366 73.3041 86.611 75.226 81.6033C77.0573 76.5667 80.3645 80.4657 80.8151 81.0845C81.2661 81.7033 81.9563 81.987 81.6364 80.9881C81.2339 79.7334 80.3161 77.235 77.2057 76.3189C73.9057 75.3547 72.0593 78.5938 71.4563 80.1949C70.862 81.7949 70.1297 85.4574 73.2505 86.8897C76.2 88.247 78.5303 86.9605 79.6609 86.2761Z" fill="#1C4670"/>
<path d="M72.7839 78.335L72.0131 80.4033L51.976 72.9121L52.7484 70.8443L72.7839 78.335Z" fill="#1C4670"/>
<path d="M71.2401 82.4725L72.0131 80.4033L51.976 72.9121L51.2027 74.9803L71.2401 82.4725Z" fill="#1C4670"/>
<path d="M79.1057 85.6667C79.8489 85.4938 80.5563 85.7298 79.6609 86.2761C78.5303 86.9605 76.2 88.247 73.2505 86.8897C70.1297 85.4574 70.862 81.7949 71.4563 80.1949L75.226 81.6033C73.3041 86.611 78.3593 85.8366 79.1057 85.6667Z" fill="#1C4670"/>
<path d="M46.786 76.9965C43.6688 76.0818 42.7552 73.5845 42.3469 72.3246C42.0303 71.3271 42.7229 71.611 43.1713 72.2309C43.6203 72.8522 46.9265 76.7495 48.7604 71.7094L52.5303 73.1189C51.9287 74.7203 50.0765 77.9615 46.786 76.9965Z" fill="#1C4670"/>
<path d="M68.4063 59.5137L66.8027 58.9162L59.9219 77.3203L61.5224 77.9189L68.4063 59.5137Z" fill="#FCD751"/>
<path d="M68.4063 59.5137L70.0036 60.111L63.1188 78.5178L61.5224 77.9189L68.4063 59.5137Z" fill="#FFA229"/>
<path d="M67.6312 61.5787C67.6312 61.5787 64.7917 60.0085 65.2469 58.711C65.7 57.4178 68.8407 53.6855 70.3672 54.2563L67.6312 61.5787Z" fill="#FCD751"/>
<path d="M67.6312 61.5787C67.6312 61.5787 70.8047 62.2547 71.312 60.9777C71.8193 59.7033 71.9016 54.8271 70.3672 54.2563L67.6312 61.5787Z" fill="#FFA229"/>
<path d="M59.1323 93.3375C58.5208 94.9699 56.6989 95.799 55.0651 95.1897C53.4317 94.5787 52.6011 92.7563 53.2115 91.1241L58.6984 76.4511C59.3084 74.8121 61.1292 73.9845 62.764 74.5949C64.4005 75.2058 65.2287 77.0246 64.6167 78.6615L59.1323 93.3375Z" fill="#AEBFCE"/>
<path d="M56.1088 94.0975C55.9729 94.4563 55.6156 94.6547 55.3093 94.5375C54.9995 94.4271 54.8615 94.0391 54.9921 93.6818L61.0917 77.3667C61.2271 77.011 61.5839 76.8085 61.8927 76.9257C62.1984 77.0418 62.3421 77.4214 62.2093 77.7777L56.1088 94.0975Z" fill="#768296"/>
<path d="M58.1547 93.9058C58.0208 94.2657 57.6631 94.4642 57.3557 94.3454C57.0479 94.2309 56.9084 93.8485 57.0421 93.487L63.1407 77.1735C63.274 76.8151 63.6323 76.6178 63.9401 76.7334C64.2484 76.8485 64.3907 77.235 64.2547 77.5923L58.1547 93.9058Z" fill="#768296"/>
<path d="M53.5745 92.1913C53.4427 92.5547 53.5817 92.9375 53.8907 93.0495C54.1984 93.1667 54.5552 92.9709 54.6891 92.6094L60.7885 76.2965C60.9224 75.9366 60.7833 75.5547 60.474 75.4375C60.1651 75.3203 59.8084 75.5214 59.6755 75.8803L53.5745 92.1913Z" fill="#768296"/>
<path d="M66.1495 77.5366C65.8473 78.347 64.9448 78.7574 64.1312 78.4547L59.2021 76.6121C58.3901 76.3085 57.9787 75.4042 58.2817 74.5907C58.5839 73.7845 59.4875 73.3699 60.2989 73.6735L65.2312 75.5162C66.0427 75.8214 66.4531 76.723 66.1495 77.5366Z" fill="#768296"/>
<path d="M65.7057 76.9777C65.4708 77.6033 64.7197 77.899 64.0251 77.6402L59.8161 76.0642C59.1224 75.8042 58.7479 75.0897 58.9817 74.4683C59.214 73.8418 59.9656 73.5485 60.6588 73.8069L64.8693 75.3803C65.564 75.6418 65.9396 76.3547 65.7057 76.9777Z" fill="#768296"/>
<path d="M51.3885 40.8427L45.1115 29.9725C44.8573 29.5334 44.3505 29.3402 43.8828 29.4605C43.4167 29.3402 42.9084 29.5334 42.6541 29.9725L36.3776 40.8427C36.0724 41.3683 36.2547 42.0427 36.7792 42.347C37.3068 42.6495 37.9807 42.4709 38.2855 41.9418L43.8828 32.2511L49.4817 41.9418C49.7855 42.4709 50.4579 42.6495 50.986 42.347C51.5104 42.0427 51.6921 41.3683 51.3885 40.8427Z" fill="#1C4670"/>
<path d="M45.2115 42.0615C45.2115 42.7949 44.6167 43.3907 43.8828 43.3907C43.1489 43.3907 42.5547 42.7949 42.5547 42.0615V26.923C42.5547 26.1913 43.1489 25.5949 43.8828 25.5949C44.6167 25.5949 45.2115 26.1913 45.2115 26.923V42.0615Z" fill="#1C4670"/>
<path d="M61.8281 25.5298C61.8281 26.5667 60.9812 27.4151 59.9417 27.4151H27.8235C26.786 27.4151 25.9375 26.5667 25.9375 25.5298V4.15794C25.9375 3.1214 26.786 2.27354 27.8235 2.27354H59.9417C60.9812 2.27354 61.8281 3.1214 61.8281 4.15794V25.5298Z" fill="#AEBFCE"/>
<path d="M39.3432 23.2162H36.9459V14.7069H39.3432V23.2162Z" fill="#FCD751"/>
<path d="M43.5 23.2162H41.1016V10.8246H43.5V23.2162Z" fill="#FCD751"/>
<path d="M48.7219 23.2162H46.3265V17.1657H48.7219V23.2162Z" fill="#FCD751"/>
<path d="M53.4099 23.2162H51.014V14.7069H53.4099V23.2162Z" fill="#FCD751"/>
<path d="M52.2131 9.55113L50.174 10.7495L50.9484 11.1761L47.4573 15.4667L42.4604 6.82567L37.1697 13.8042L37.7 14.0735L42.388 7.88806L47.3651 16.4965L51.4683 11.4605L52.2344 11.8829L52.2131 9.55113Z" fill="white"/>
<path d="M34.6907 25.1725H33.9771V6.82566H34.6907V25.1725Z" fill="white"/>
<path d="M55.5703 23.2162V23.8667H32.1953V23.2162H55.5703Z" fill="white"/>
<path d="M63.0541 2.55219C63.0541 3.59486 62.2093 4.43659 61.1672 4.43659H26.5973C25.5573 4.43659 24.7131 3.59486 24.7131 2.55219C24.7131 1.51099 25.5573 0.666727 26.5973 0.666727H61.1672C62.2093 0.666727 63.0541 1.51099 63.0541 2.55219Z" fill="#1C4670"/>
<path d="M70.664 72.2495L69.8875 71.5271C76.0479 64.9017 79.4421 56.2683 79.4421 47.2178C79.4421 38.7522 76.4255 30.5454 70.9511 24.1058L71.7599 23.4178C77.3973 30.0485 80.5016 38.5017 80.5016 47.2178C80.5016 56.5391 77.0088 65.4271 70.664 72.2495Z" fill="#768296"/>
<path d="M8.03333 47.2178H6.97133C6.97133 35.3443 12.7557 24.1375 22.4453 17.2443L23.0593 18.1058C13.6495 24.8042 8.03333 35.6855 8.03333 47.2178Z" fill="#768296"/>
<path d="M43.736 83.9829C36.9088 83.9829 30.2421 82.0975 24.4588 78.5298L25.0177 77.6257C30.6307 81.0897 37.1057 82.9214 43.736 82.9214C46.5235 82.9214 49.2973 82.599 51.9807 81.9657L52.224 82.9975C49.4604 83.6522 46.6057 83.9829 43.736 83.9829Z" fill="#768296"/>
<path d="M57.7609 15.259C55.7084 15.259 53.776 16.059 52.3235 17.5121C50.8729 18.9631 50.0735 20.8938 50.0735 22.947C50.0735 25.0001 50.8729 26.9309 52.3251 28.3818C53.7771 29.8375 55.7093 30.6366 57.7609 30.6366C59.8151 30.6366 61.7464 29.8375 63.1989 28.3818C66.1959 25.3855 66.1959 20.5094 63.1989 17.5121C61.7464 16.059 59.8151 15.259 57.7609 15.259ZM57.7609 33.8178C54.8573 33.8178 52.1281 32.687 50.0755 30.6334C48.0229 28.5818 46.8907 25.8511 46.8907 22.947C46.8896 20.0427 48.0213 17.3121 50.0745 15.259C52.1276 13.2085 54.8563 12.0777 57.7609 12.0777C60.664 12.0777 63.3959 13.2085 65.4473 15.259C69.6869 19.499 69.6869 26.3949 65.4473 30.6334C63.3959 32.687 60.6651 33.8178 57.7609 33.8178Z" fill="#1C4670"/>
<path d="M68.0656 35.5033L63.0724 30.5085L65.3245 28.2605L70.3161 33.2522L68.0656 35.5033Z" fill="#1C4670"/>
<path d="M83.6156 45.3605C84.1787 45.9203 84.1787 46.8366 83.6156 47.3965L82.2109 48.8001C81.6489 49.3615 80.7375 49.3615 80.1735 48.8001L66.9193 35.5427C66.3547 34.9803 66.3547 34.0699 66.9193 33.5058L68.3203 32.1033C68.8828 31.5427 69.7964 31.5427 70.3593 32.1033L83.6156 45.3605Z" fill="#FFA229"/>
<path d="M68.6099 37.2375L67.8604 36.4845L71.3021 33.047L72.0511 33.7975L68.6099 37.2375Z" fill="#1C4670"/>
<path d="M69.8 38.4271L69.0495 37.6777L72.4912 34.2375L73.2401 34.9855L69.8 38.4271Z" fill="#1C4670"/>
<path d="M79.2297 47.859L78.4812 47.1085L81.9224 43.6667L82.674 44.4178L79.2297 47.859Z" fill="#1C4670"/>
<path d="M78.0437 46.6667L77.2921 45.9178L80.7317 42.4761L81.4823 43.2282L78.0437 46.6667Z" fill="#1C4670"/>
</svg>
