<svg width="90" height="74" viewBox="0 0 90 74" fill="none" xmlns="http://www.w3.org/2000/svg">
<path d="M21.416 7.54701C21.3174 7.96968 21.488 8.36034 21.7987 8.435L24.7573 9.11235C25.0667 9.18435 25.392 8.90833 25.4907 8.483L26.0373 6.103C26.1347 5.68834 25.9613 5.287 25.652 5.21633L22.696 4.53367C22.3853 4.46834 22.0627 4.74701 21.9653 5.16168L21.416 7.54701Z" fill="#AEBFCE"/>
<path d="M16.0773 30.751C16.1693 30.3336 16.496 30.0523 16.8053 30.1216L19.764 30.8043C20.0733 30.8763 20.2427 31.2736 20.1467 31.691L19.6 34.0763C19.504 34.4896 19.176 34.771 18.864 34.7016L15.908 34.0203C15.5987 33.947 15.4253 33.5523 15.524 33.1376L16.0773 30.751Z" fill="#AEBFCE"/>
<path d="M27.3653 9.48165C27.0733 9.79498 27.0253 10.2243 27.2573 10.4403L29.4747 12.5097C29.7053 12.723 30.1306 12.6483 30.4266 12.3323L32.092 10.5443C32.384 10.227 32.436 9.80165 32.2027 9.58432L29.984 7.51367C29.7506 7.29767 29.3226 7.37633 29.0306 7.69233L27.3653 9.48165Z" fill="#AEBFCE"/>
<path d="M11.1346 26.9057C11.432 26.5883 11.8546 26.511 12.0853 26.723L14.3066 28.8003C14.5373 29.0123 14.4866 29.4443 14.1973 29.7563L12.5306 31.543C12.24 31.8603 11.8093 31.9377 11.5826 31.7243L9.35996 29.6537C9.12929 29.4363 9.17864 29.0123 9.47064 28.695L11.1346 26.9057Z" fill="#AEBFCE"/>
<path d="M31.5493 14.131C31.1387 14.2563 30.884 14.6057 30.9747 14.9083L31.864 17.811C31.9613 18.1137 32.3653 18.2537 32.7787 18.1297L35.116 17.4163C35.5267 17.291 35.784 16.9457 35.6893 16.6377L34.8053 13.735C34.708 13.431 34.3 13.2897 33.8933 13.415L31.5493 14.131Z" fill="#AEBFCE"/>
<path d="M8.78795 21.107C9.19595 20.9817 9.60796 21.123 9.69596 21.4283L10.584 24.327C10.6773 24.6337 10.42 24.9817 10.008 25.1057L7.67197 25.8203C7.26264 25.9457 6.85729 25.8043 6.75996 25.499L5.87197 22.599C5.7773 22.2977 6.03464 21.951 6.44264 21.8243L8.78795 21.107Z" fill="#AEBFCE"/>
<path d="M32.8547 20.251C32.4347 20.155 32.0387 20.327 31.9627 20.635L31.284 23.595C31.212 23.9043 31.492 24.231 31.9133 24.3257L34.2973 24.8763C34.7147 24.971 35.1133 24.8003 35.1853 24.491L35.864 21.531C35.9333 21.2257 35.6547 20.8977 35.236 20.803L32.8547 20.251Z" fill="#AEBFCE"/>
<path d="M9.64664 14.9137C10.064 15.0057 10.3493 15.335 10.2773 15.6403L9.59596 18.599C9.52396 18.9097 9.12663 19.083 8.70797 18.9843L6.32395 18.4403C5.90795 18.3377 5.62662 18.0123 5.69862 17.703L6.38131 14.7443C6.44797 14.4323 6.84929 14.2657 7.26396 14.3603L9.64664 14.9137Z" fill="#AEBFCE"/>
<path d="M30.916 26.203C30.6053 25.915 30.176 25.8617 29.9627 26.091L27.8906 28.3123C27.6786 28.5443 27.752 28.9697 28.0653 29.2657L29.8586 30.9297C30.1746 31.2203 30.596 31.275 30.816 31.0443L32.884 28.819C33.1 28.5897 33.0253 28.163 32.7053 27.8683L30.916 26.203Z" fill="#AEBFCE"/>
<path d="M13.4933 9.97368C13.8067 10.2683 13.8893 10.6937 13.672 10.9243L11.604 13.1457C11.3853 13.375 10.956 13.327 10.6427 13.035L8.85598 11.3657C8.54132 11.075 8.46667 10.6483 8.67734 10.4177L10.7467 8.19769C10.9613 7.96702 11.3893 8.01768 11.7053 8.30568L13.4933 9.97368Z" fill="#AEBFCE"/>
<path d="M26.2666 30.387C26.1426 29.979 25.7933 29.7217 25.4906 29.811L22.592 30.703C22.2866 30.795 22.1413 31.203 22.2693 31.6137L22.984 33.9563C23.1106 34.3617 23.4573 34.6217 23.76 34.5257L26.664 33.6403C26.972 33.543 27.108 33.139 26.984 32.7297L26.2666 30.387Z" fill="#AEBFCE"/>
<path d="M19.2933 7.62566C19.4173 8.03766 19.2773 8.44032 18.972 8.53365L16.0693 9.41899C15.768 9.51365 15.42 9.25898 15.296 8.84831L14.5786 6.50832C14.4546 6.09232 14.592 5.69366 14.8986 5.59766L17.7986 4.70566C18.1053 4.61899 18.4546 4.87499 18.5773 5.28565L19.2933 7.62566Z" fill="#AEBFCE"/>
<path d="M12.5733 17.7283C13.6213 13.1923 18.14 10.3683 22.6706 11.4123C27.2013 12.459 30.032 16.9723 28.988 21.507C27.9426 26.0403 23.42 28.8657 18.892 27.8243C14.3573 26.7777 11.5333 22.259 12.5733 17.7283ZM8.31862 16.7497C6.73329 23.631 11.0293 30.495 17.9106 32.0843C24.7933 33.667 31.6573 29.367 33.2453 22.487C34.8293 15.6057 30.532 8.73899 23.652 7.15099C16.7693 5.56832 9.89996 9.86699 8.31862 16.7497Z" fill="#AEBFCE"/>
<path d="M5.28535 37.851C6.79335 35.6203 9.82135 35.0337 12.0534 36.5403C14.2867 38.051 14.872 41.0803 13.364 43.3097C11.856 45.5417 8.82269 46.1283 6.59069 44.619C4.36269 43.1123 3.77468 40.0816 5.28535 37.851ZM3.19069 36.4336C0.900021 39.8203 1.79071 44.4217 5.17737 46.7123C8.56671 49.0043 13.168 48.1137 15.4574 44.7283C17.748 41.339 16.8574 36.7377 13.4707 34.4457C10.08 32.155 5.47869 33.047 3.19069 36.4336Z" fill="#768296"/>
<path d="M11.7027 34.1137C11.5613 34.3177 11.616 34.6003 11.824 34.743L13.808 36.083C14.0147 36.2217 14.2987 36.1697 14.4387 35.9617L15.236 34.7817C15.3747 34.5723 15.3213 34.2937 15.1147 34.151L13.1306 32.8083C12.9226 32.667 12.6386 32.7243 12.5013 32.9323L11.7027 34.1137Z" fill="#768296"/>
<path d="M4.20662 45.1977C4.34662 44.9897 4.63061 44.935 4.83595 45.079L6.8226 46.4177C7.02927 46.559 7.08396 46.8403 6.94529 47.0483L6.14663 48.227C6.00663 48.4363 5.72396 48.491 5.51596 48.3497L3.53194 47.0097C3.32394 46.867 3.27062 46.5857 3.41062 46.3803L4.20662 45.1977Z" fill="#768296"/>
<path d="M15.5813 37.6883C15.3333 37.7337 15.1719 37.9737 15.2213 38.219L15.676 40.5723C15.724 40.8177 15.9626 40.9763 16.2066 40.9297L17.604 40.659C17.8506 40.6123 18.012 40.3763 17.9653 40.1323L17.508 37.7777C17.4613 37.531 17.2253 37.3697 16.9773 37.4177L15.5813 37.6883Z" fill="#768296"/>
<path d="M2.44129 40.2297C2.68796 40.183 2.92529 40.343 2.97195 40.587L3.42527 42.9416C3.47194 43.187 3.31195 43.4243 3.06795 43.471L1.66661 43.743C1.42261 43.7883 1.18529 43.6283 1.13862 43.3816L0.681295 41.031C0.635962 40.783 0.798619 40.5456 1.03862 40.499L2.44129 40.2297Z" fill="#768296"/>
<path d="M15.792 42.9577C15.5853 42.8217 15.3026 42.8723 15.1653 43.0817L13.82 45.0657C13.68 45.2723 13.736 45.555 13.94 45.6937L15.1226 46.4897C15.3306 46.6323 15.6133 46.5803 15.7493 46.371L17.0933 44.387C17.2306 44.179 17.1786 43.8963 16.9733 43.759L15.792 42.9577Z" fill="#768296"/>
<path d="M4.70397 35.4657C4.91197 35.6083 4.96529 35.8857 4.82663 36.0937L3.48265 38.0804C3.34398 38.287 3.06262 38.3403 2.85462 38.2003L1.67731 37.4017C1.46798 37.2617 1.41329 36.9803 1.55462 36.7723L2.8973 34.7883C3.03596 34.5817 3.31729 34.5283 3.52262 34.667L4.70397 35.4657Z" fill="#768296"/>
<path d="M12.216 46.8363C12.1707 46.5897 11.9306 46.4297 11.684 46.4777L9.33065 46.9323C9.08532 46.9803 8.92266 47.2177 8.97466 47.4644L9.244 48.8617C9.28933 49.1097 9.52799 49.2683 9.77199 49.2203L12.1266 48.7644C12.3733 48.7177 12.532 48.4803 12.4853 48.235L12.216 46.8363Z" fill="#768296"/>
<path d="M9.67467 33.6977C9.72267 33.9417 9.56 34.1817 9.31467 34.2283L6.96399 34.683C6.71732 34.7323 6.47999 34.5723 6.43199 34.323L6.15998 32.9243C6.11732 32.679 6.27464 32.439 6.51998 32.3937L8.872 31.939C9.11866 31.8923 9.35866 32.051 9.40533 32.2963L9.67467 33.6977Z" fill="#768296"/>
<path d="M75.2333 17.5257C57.0253 22.6203 46.8293 0.717651 46.8293 0.717651C46.8293 0.717651 36.6307 22.6203 18.4227 17.5257C18.4227 17.5257 13.3227 61.955 46.8293 73.6083C80.3293 61.955 75.2333 17.5257 75.2333 17.5257Z" fill="#1C4670"/>
<path d="M46.8293 67.1243C24.8213 58.727 23.4946 32.4177 23.7746 22.871C24.504 22.9497 25.228 22.987 25.94 22.987C36.192 22.987 43.1786 15.323 46.8293 9.92835C50.4746 15.323 57.4613 22.987 67.712 22.987C68.4226 22.987 69.1493 22.9497 69.8733 22.871C70.1466 32.4243 68.7973 58.7403 46.8293 67.1243Z" fill="#FFA229"/>
<path d="M81.1946 60.8323C81.1946 67.691 75.6346 73.2483 68.78 73.2483C61.92 73.2483 56.3653 67.691 56.3653 60.8323C56.3653 53.975 61.92 48.4177 68.78 48.4177C75.6346 48.4177 81.1946 53.975 81.1946 60.8323Z" fill="#768296"/>
<path d="M60.7947 54.931L69.7267 66.6977L77.1 58.539L69.7267 61.955L60.7947 54.931Z" fill="#FCD751"/>
<path d="M47.0866 38.5243H25.0787C27.288 49.3817 32.932 61.823 46.8293 67.1243L47.0866 67.0123V38.5243Z" fill="#FCD751"/>
<path d="M67.7627 22.987C68.4613 22.987 69.1667 22.9496 69.8813 22.871C69.9853 26.4536 69.8653 32.3897 68.5413 38.8577H47.0866V10.3057C47.1773 10.1817 46.7453 10.0537 46.8293 9.92832C50.3973 15.323 57.744 22.987 67.7627 22.987Z" fill="#FCD751"/>
<path d="M86.256 45.5643H80.3066V38.4203H86.256V45.5643Z" fill="#FFA229"/>
<path d="M89.0267 38.9603H77.536L83.2814 31.4177L89.0267 38.9603Z" fill="#FFA229"/>
<path d="M71.0907 13.0843H66.8987V8.05232H71.0907V13.0843Z" fill="#FFA229"/>
<path d="M73.0413 8.43367H64.9493L68.9947 3.12167L73.0413 8.43367Z" fill="#FFA229"/>
<path d="M22.0346 67.411H16.6933V60.9977H22.0346V67.411Z" fill="#FFA229"/>
<path d="M24.524 61.4817H14.2067L19.3627 54.7097L24.524 61.4817Z" fill="#FFA229"/>
</svg>
