<svg width="86" height="91" viewBox="0 0 86 91" fill="none" xmlns="http://www.w3.org/2000/svg">
<path d="M64.6946 17.4763C64.6946 26.623 55.3066 34.039 43.7253 34.039C32.144 34.039 22.7546 26.623 22.7546 17.4763C22.7546 8.3283 32.144 0.912308 43.7253 0.912308C55.3066 0.912308 64.6946 8.3283 64.6946 17.4763Z" fill="#AEBFCE"/>
<path d="M65.2653 32.8617L52.256 28.527L60.9293 19.8524L65.2653 32.8617Z" fill="#AEBFCE"/>
<path d="M21.0413 32.8617L34.0506 28.527L25.3773 19.8524L21.0413 32.8617Z" fill="#AEBFCE"/>
<path d="M3.14136 56.239C7.20802 58.0884 12.6134 59.215 18.5427 59.215C24.4774 59.215 29.8827 58.0884 33.9494 56.239C29.8827 54.3937 24.4774 53.267 18.5427 53.267C12.6134 53.267 7.20802 54.3937 3.14136 56.239Z" fill="#E6AE7E"/>
<path d="M26.0106 49.163C26.8266 47.815 27.2973 46.2336 27.2973 44.5443C27.2973 39.6096 23.2933 35.6057 18.3613 35.6057C13.424 35.6057 9.42395 39.6096 9.42395 44.5443C9.42395 46.2336 9.89197 47.815 10.7093 49.163C13.124 53.479 13.616 54.5123 13.6413 56.483C13.6893 59.4376 13.6413 61.795 13.6413 61.795H18.3613H23.0746C23.0746 61.795 23.0293 59.4376 23.0746 56.483C23.1053 54.5123 23.5933 53.479 26.0106 49.163Z" fill="#FCD751"/>
<path d="M18.3613 63.1443H15.008C15.504 65.8443 18.3613 65.8443 18.3613 65.8443C18.3613 65.8443 21.2133 65.8443 21.7093 63.1443H18.3613Z" fill="#002254"/>
<path d="M24.44 58.755C24.44 59.611 23.748 60.307 22.8893 60.307H13.8293C12.9733 60.307 12.2787 59.611 12.2787 58.755C12.2787 57.8977 12.9733 57.2043 13.8293 57.2043H22.8893C23.748 57.2043 24.44 57.8977 24.44 58.755Z" fill="#768296"/>
<path d="M23.9547 58.4496C23.9547 59.1416 23.3147 59.6977 22.5253 59.6977H14.1907C13.404 59.6977 12.7667 59.1416 12.7667 58.4496C12.7667 57.7616 13.404 57.2043 14.1907 57.2043H22.5253C23.3147 57.2043 23.9547 57.7616 23.9547 58.4496Z" fill="#AEBFCE"/>
<path d="M24.44 61.795C24.44 62.6537 23.748 63.3483 22.8893 63.3483H13.8293C12.9733 63.3483 12.2787 62.6537 12.2787 61.795C12.2787 60.9377 12.9733 60.2443 13.8293 60.2443H22.8893C23.748 60.2443 24.44 60.9377 24.44 61.795Z" fill="#768296"/>
<path d="M18.5453 29.2537C18.8826 29.2537 19.16 29.527 19.16 29.8643V33.4323C19.16 33.767 18.8826 34.039 18.5453 34.039C18.2066 34.039 17.9346 33.767 17.9346 33.4323V29.8643C17.9346 29.527 18.2066 29.2537 18.5453 29.2537Z" fill="#FFA229"/>
<path d="M10.4347 31.3603C10.7267 31.1897 11.1 31.2896 11.268 31.583L13.0533 34.671C13.2227 34.9617 13.1227 35.3363 12.8293 35.5043C12.5373 35.6723 12.164 35.575 11.996 35.2816L10.2107 32.1937C10.0454 31.9003 10.1427 31.5257 10.4347 31.3603Z" fill="#FFA229"/>
<path d="M4.4653 37.235C4.63597 36.9443 5.00931 36.8443 5.29997 37.0137L8.38796 38.795C8.67996 38.9643 8.77998 39.3363 8.61198 39.6323C8.44532 39.9203 8.07198 40.0217 7.77732 39.8537L4.68929 38.0697C4.39463 37.9017 4.29597 37.5283 4.4653 37.235Z" fill="#FFA229"/>
<path d="M2.23328 45.3123C2.23328 44.9736 2.50529 44.7017 2.84395 44.7017H6.40929C6.74795 44.7017 7.01993 44.9736 7.01993 45.3123C7.01993 45.6496 6.74795 45.9203 6.40929 45.9203H2.84395C2.50529 45.9203 2.23328 45.6496 2.23328 45.3123Z" fill="#FFA229"/>
<path d="M4.33865 53.4217C4.16798 53.131 4.26931 52.759 4.56264 52.587L7.64933 50.8044C7.94133 50.6337 8.31463 50.7337 8.48396 51.0283C8.6533 51.3203 8.55197 51.6937 8.25997 51.863L5.17332 53.6443C4.87865 53.8137 4.50798 53.715 4.33865 53.4217Z" fill="#FFA229"/>
<path d="M26.6573 31.3603C26.364 31.1897 25.9907 31.2896 25.8187 31.583L24.0373 34.671C23.868 34.9617 23.968 35.3363 24.2613 35.5043C24.5547 35.6723 24.9253 35.575 25.0973 35.2816L26.8787 32.1937C27.0493 31.9003 26.948 31.5257 26.6573 31.3603Z" fill="#FFA229"/>
<path d="M32.6266 37.235C32.46 36.9443 32.0853 36.8443 31.7946 37.0137L28.704 38.795C28.4133 38.9643 28.3133 39.3363 28.48 39.6323C28.6466 39.9203 29.0266 40.0217 29.3173 39.8537L32.4026 38.0697C32.696 37.9017 32.7973 37.5283 32.6266 37.235Z" fill="#FFA229"/>
<path d="M34.86 45.3123C34.86 44.9736 34.5854 44.7017 34.2494 44.7017H30.6827C30.344 44.7017 30.072 44.9736 30.072 45.3123C30.072 45.6496 30.344 45.9203 30.6827 45.9203H34.2494C34.5854 45.9203 34.86 45.6496 34.86 45.3123Z" fill="#FFA229"/>
<path d="M32.7547 53.4217C32.924 53.131 32.8227 52.759 32.532 52.587L29.4414 50.8044C29.1507 50.6337 28.7774 50.7337 28.608 51.0283C28.44 51.3203 28.5413 51.6937 28.8333 51.863L31.9213 53.6443C32.212 53.8137 32.588 53.715 32.7547 53.4217Z" fill="#FFA229"/>
<path d="M23.9547 61.4937C23.9547 62.183 23.3147 62.7416 22.5253 62.7416H14.1907C13.404 62.7416 12.7667 62.183 12.7667 61.4937C12.7667 60.803 13.404 60.2443 14.1907 60.2443H22.5253C23.3147 60.2443 23.9547 60.803 23.9547 61.4937Z" fill="#AEBFCE"/>
<path d="M33.9773 68.6937H33.6746C33.8026 67.6444 33.932 66.6137 34.06 65.635C34.3266 63.571 34.7346 59.8897 33.924 56.2523C29.86 58.0937 24.4667 59.215 18.5427 59.215C12.6267 59.215 7.23198 58.0937 3.16798 56.2523C2.35864 59.8897 2.75997 63.571 3.03064 65.635C3.15864 66.6137 3.29063 67.6444 3.41863 68.6937H3.11332C0.427989 66.707 0.19863 71.899 1.3213 73.6724C2.25063 75.139 2.26931 75.3017 2.83064 76.919C3.24664 78.1123 3.92931 78.2697 4.50264 78.1403C4.57598 78.847 4.63863 79.4643 4.68529 79.9523C4.92796 82.6817 11.4853 88.1483 12.9746 89.8577C14.364 91.463 16.692 90.8377 17.4333 90.8044C18.1893 90.7697 18.5453 90.751 18.5453 90.751C18.5453 90.751 18.904 90.7697 19.6546 90.8044C20.4 90.8377 22.724 91.463 24.1186 89.8577C25.604 88.1483 32.1587 82.6817 32.4107 79.9523C32.4547 79.4643 32.516 78.847 32.5853 78.1403C33.1626 78.2697 33.8493 78.1123 34.2586 76.919C34.8213 75.3017 34.8413 75.139 35.7706 73.6724C36.892 71.899 36.6613 66.707 33.9773 68.6937Z" fill="#F4C297"/>
<path d="M53.4307 57.323C57.4987 59.1723 62.904 60.2977 68.8333 60.2977C74.768 60.2977 80.1733 59.1723 84.24 57.323C80.1733 55.4777 74.768 54.351 68.8333 54.351C62.904 54.351 57.4987 55.4777 53.4307 57.323Z" fill="#E6AE7E"/>
<path d="M73.0427 53.0643C71.52 51.811 68.976 50.991 66.0946 50.991C63.2133 50.991 60.6707 51.811 59.1467 53.0643H57.6453V55.8003C57.6453 58.4577 61.4293 60.6096 66.0946 60.6096C70.7626 60.6096 74.544 58.4577 74.544 55.8003V53.0643H73.0427Z" fill="#FFA229"/>
<path d="M73.0427 50.0003C71.52 48.747 68.976 47.9216 66.0946 47.9216C63.2133 47.9216 60.6707 48.747 59.144 50.0003H57.6453V52.7323C57.6453 55.387 61.4293 57.543 66.0946 57.543C70.7626 57.543 74.544 55.387 74.544 52.7323V50.0003H73.0427Z" fill="#FCD751"/>
<path d="M73.0427 46.9323C71.5173 45.679 68.976 44.8563 66.0946 44.8563C63.2133 44.8563 60.6707 45.679 59.144 46.9323H57.6453V49.663C57.6453 52.3203 61.4293 54.4736 66.0946 54.4736C70.7626 54.4736 74.544 52.3203 74.544 49.663V46.9323H73.0427Z" fill="#FFA229"/>
<path d="M73.0426 43.8643C71.5173 42.6097 68.976 41.787 66.0946 41.787C63.2133 41.787 60.6706 42.6097 59.144 43.8643H57.6426V46.599C57.6426 49.2563 61.4266 51.4083 66.0946 51.4083C70.7626 51.4083 74.544 49.2563 74.544 46.599V43.8643H73.0426Z" fill="#FCD751"/>
<path d="M73.0426 40.7964C71.5173 39.543 68.976 38.7217 66.0946 38.7217C63.2133 38.7217 60.6706 39.543 59.144 40.7964H57.6426V43.5324C57.6426 46.187 61.4266 48.3417 66.0946 48.3417C70.7626 48.3417 74.544 46.187 74.544 43.5324V40.7964H73.0426Z" fill="#FFA229"/>
<path d="M74.544 40.7963C74.544 43.451 70.7626 45.6096 66.0946 45.6096C61.4266 45.6096 57.6426 43.451 57.6426 40.7963C57.6426 38.1403 61.4266 35.987 66.0946 35.987C70.7626 35.987 74.544 38.1403 74.544 40.7963Z" fill="#FCD751"/>
<path d="M73.212 40.7963C73.212 43.0337 70.0253 44.8483 66.0946 44.8483C62.1626 44.8483 58.9773 43.0337 58.9773 40.7963C58.9773 38.5603 62.1626 36.7483 66.0946 36.7483C70.0253 36.7483 73.212 38.5603 73.212 40.7963Z" fill="#FFA229"/>
<path d="M71.6133 40.7963C71.6133 42.5297 69.14 43.9377 66.0946 43.9377C63.0466 43.9377 60.576 42.5297 60.576 40.7963C60.576 39.0617 63.0466 37.6537 66.0946 37.6537C69.14 37.6537 71.6133 39.0617 71.6133 40.7963Z" fill="#FCD751"/>
<path d="M66.9946 41.6816C66.9946 41.5643 66.9133 41.4683 66.7493 41.395C66.584 41.3203 66.3866 41.2523 66.1586 41.191V42.1563C66.4386 42.139 66.6493 42.0883 66.788 42.003C66.924 41.9217 66.9946 41.8123 66.9946 41.6816ZM65.1933 39.8337C65.1933 39.9443 65.2706 40.0363 65.42 40.111C65.5733 40.1843 65.7586 40.2523 65.984 40.315V39.4203C65.6813 39.427 65.4733 39.4696 65.3613 39.5483L65.1933 39.8337ZM65.572 42.7856C65.2013 42.779 64.8813 42.755 64.6053 42.7216C64.3307 42.6843 64.1133 42.6403 63.9613 42.5923L64.336 41.9643C64.4533 42.003 64.612 42.043 64.824 42.0803C65.032 42.1163 65.2787 42.1403 65.572 42.1563V41.043C65.3693 40.9936 65.1747 40.935 64.976 40.871C64.78 40.811 64.6053 40.7363 64.4533 40.651C64.2973 40.563 64.1733 40.4563 64.08 40.3337C63.988 40.2097 63.9387 40.0657 63.9387 39.895C63.9387 39.583 64.0853 39.3403 64.38 39.1643C64.6707 38.991 65.068 38.8777 65.572 38.8283V38.3283H66.5707V38.807C66.8547 38.8163 67.1013 38.8403 67.312 38.8697C67.5253 38.9043 67.7213 38.943 67.9 38.9856L67.552 39.5923C67.444 39.5616 67.3053 39.5323 67.1387 39.503C66.972 39.4737 66.784 39.451 66.5707 39.4363V40.4683C66.7693 40.5177 66.972 40.575 67.172 40.6403C67.376 40.7056 67.552 40.7803 67.712 40.871C67.8693 40.9563 67.9987 41.0603 68.096 41.1776C68.1947 41.2976 68.248 41.4377 68.248 41.603C68.248 41.9377 68.096 42.2003 67.7987 42.3896C67.5027 42.579 67.088 42.7016 66.5707 42.755V43.2657H65.572V42.7856Z" fill="#FFA229"/>
<path d="M80.0253 55.7777C80.0253 59.983 76.6173 63.3937 72.4106 63.3937C68.2053 63.3937 64.796 59.983 64.796 55.7777C64.796 51.5737 68.2053 48.1617 72.4106 48.1617C76.6173 48.1617 80.0253 51.5737 80.0253 55.7777Z" fill="#FCD751"/>
<path d="M78.7453 55.7777C78.7453 59.2737 75.908 62.1096 72.4107 62.1096C68.9133 62.1096 66.0787 59.2737 66.0787 55.7777C66.0787 52.279 68.9133 49.447 72.4107 49.447C75.908 49.447 78.7453 52.279 78.7453 55.7777Z" fill="#FFA229"/>
<path d="M77.5467 55.7776C77.5467 58.6123 75.2467 60.9136 72.4107 60.9136C69.5773 60.9136 67.2773 58.6123 67.2773 55.7776C67.2773 52.9416 69.5773 50.6403 72.4107 50.6403C75.2467 50.6403 77.5467 52.9416 77.5467 55.7776Z" fill="#FCD751"/>
<path d="M73.2493 57.2217C73.2493 57.0323 73.1733 56.875 73.0213 56.7537C72.8706 56.6337 72.6853 56.5217 72.4693 56.4217V58.0003C72.732 57.971 72.9293 57.887 73.0573 57.7523C73.1866 57.6176 73.2493 57.4377 73.2493 57.2217ZM71.576 54.2043C71.576 54.3843 71.644 54.535 71.7826 54.655C71.9266 54.7777 72.0973 54.887 72.3106 54.9883V53.5297C72.0293 53.5403 71.8346 53.611 71.7319 53.7337C71.6253 53.8603 71.576 54.0177 71.576 54.2043ZM71.9239 59.0283C71.5813 59.019 71.2853 58.983 71.0266 58.9203C70.7693 58.8616 70.5719 58.791 70.4253 58.7123L70.7746 57.6856C70.8826 57.7523 71.0333 57.8163 71.2306 57.875C71.4199 57.9336 71.6533 57.9763 71.9239 58.0003V56.1803C71.7386 56.099 71.5533 56.0043 71.3706 55.903C71.1893 55.803 71.0266 55.679 70.8826 55.5363C70.7426 55.391 70.624 55.2217 70.5373 55.0217C70.4493 54.8163 70.408 54.5803 70.408 54.3083C70.408 53.7923 70.5413 53.3923 70.816 53.111C71.084 52.827 71.4573 52.6417 71.9239 52.5603V51.743H72.8573V52.5243C73.1186 52.539 73.3506 52.5777 73.5453 52.6297C73.74 52.6843 73.9253 52.7456 74.0919 52.8176L73.7706 53.8043C73.668 53.759 73.5399 53.711 73.3866 53.6643C73.2279 53.611 73.0519 53.579 72.8573 53.5563V55.2403C73.0399 55.3216 73.2279 55.4163 73.4173 55.5217C73.6013 55.6243 73.7706 55.7523 73.9173 55.8937C74.0626 56.039 74.1853 56.207 74.2773 56.4017C74.368 56.5937 74.416 56.827 74.416 57.095C74.416 57.6417 74.2773 58.075 73.9986 58.3803C73.7213 58.6896 73.3399 58.887 72.8573 58.9776V59.811H71.9239V59.0283Z" fill="#FFA229"/>
<path d="M83.2901 68.4426H82.9875C83.1155 67.392 83.2474 66.36 83.3754 65.3826C83.6434 63.3186 84.0461 59.636 83.2381 56C79.1715 57.84 73.7795 58.9613 67.8608 58.9613C61.9408 58.9613 56.5461 57.84 52.4821 56C51.6688 59.636 52.0768 63.3186 52.3435 65.3826C52.4741 66.36 52.6048 67.392 52.7315 68.4426H52.4261C49.7395 66.4533 49.5141 71.6466 50.6355 73.42C51.5675 74.8866 51.5848 75.0493 52.1448 76.6653C52.5595 77.86 53.2435 78.0173 53.8181 77.8866C53.8901 78.596 53.9515 79.2133 53.9968 79.7C54.2421 82.4293 60.8021 87.896 62.2901 89.6066C63.6795 91.2093 66.0035 90.5866 66.7488 90.552C67.5021 90.516 67.8608 90.4986 67.8608 90.4986C67.8608 90.4986 68.2181 90.516 68.9701 90.552C69.7155 90.5866 72.0395 91.2093 73.4301 89.6066C74.9181 87.896 81.4755 82.4293 81.7208 79.7C81.7688 79.2133 81.8328 78.596 81.9008 77.8866C82.4768 78.0173 83.1608 77.86 83.5728 76.6653C84.1368 75.0493 84.1555 74.8866 85.0821 73.42C86.2061 71.6466 85.9755 66.4533 83.2901 68.4426Z" fill="#F4C297"/>
<path d="M40.1826 13.7443C40.168 13.9976 40.0093 14.1976 39.8186 14.1896L38.0146 14.0963C37.8266 14.0843 37.6866 13.8736 37.6973 13.6163L37.7733 12.167C37.7853 11.911 37.9493 11.7123 38.1386 11.723L39.9386 11.8123C40.1266 11.8243 40.2666 12.035 40.2546 12.2937L40.1826 13.7443Z" fill="#1C4670"/>
<path d="M39.464 27.8817C39.476 27.6243 39.3334 27.4097 39.1454 27.4017L37.3454 27.3123C37.1574 27.3003 36.9934 27.5003 36.98 27.7563L36.9067 29.2083C36.892 29.4617 37.032 29.6763 37.2227 29.6857L39.0267 29.775C39.2133 29.787 39.376 29.587 39.3907 29.3337L39.464 27.8817Z" fill="#1C4670"/>
<path d="M36.464 13.8857C36.58 14.111 36.5387 14.3617 36.3694 14.4497L34.7654 15.2697C34.5974 15.3563 34.368 15.2417 34.252 15.015L33.5867 13.7203C33.472 13.4923 33.5147 13.2403 33.68 13.1537L35.288 12.3337C35.456 12.2443 35.6867 12.3617 35.8027 12.587L36.464 13.8857Z" fill="#1C4670"/>
<path d="M42.9107 26.4843C42.7934 26.2536 42.5653 26.143 42.396 26.2283L40.7907 27.0496C40.6227 27.1376 40.5827 27.3896 40.696 27.6176L41.3573 28.911C41.4747 29.1403 41.7067 29.2537 41.8733 29.1683L43.48 28.3456C43.6467 28.259 43.692 28.007 43.5747 27.7776L42.9107 26.4843Z" fill="#1C4670"/>
<path d="M33.3133 15.8617C33.5307 15.999 33.62 16.243 33.52 16.3977L32.5373 17.9136C32.4333 18.0723 32.18 18.087 31.964 17.9483L30.744 17.1577C30.5293 17.0203 30.4387 16.779 30.54 16.6217L31.5226 15.1057C31.6226 14.947 31.88 14.9323 32.092 15.0723L33.3133 15.8617Z" fill="#1C4670"/>
<path d="M45.1986 23.5523C44.9853 23.4136 44.728 23.4283 44.624 23.587L43.6467 25.1016C43.5427 25.259 43.632 25.5003 43.8493 25.639L45.0666 26.4283C45.2813 26.567 45.5387 26.551 45.6427 26.3923L46.6213 24.8776C46.724 24.7216 46.6333 24.4816 46.4186 24.3416L45.1986 23.5523Z" fill="#1C4670"/>
<path d="M31.576 19.1497C31.832 19.1617 32.0279 19.3257 32.0226 19.5137L31.9266 21.3137C31.9186 21.5017 31.7039 21.6443 31.4519 21.631L29.9959 21.559C29.7426 21.547 29.5426 21.3817 29.5533 21.1923L29.644 19.3937C29.6546 19.203 29.8666 19.063 30.1226 19.0763L31.576 19.1497Z" fill="#1C4670"/>
<path d="M45.7133 19.8684C45.4587 19.8564 45.244 19.9964 45.2347 20.1857L45.1413 21.9843C45.1347 22.1737 45.3307 22.339 45.588 22.351L47.0387 22.4244C47.2933 22.435 47.508 22.295 47.5187 22.107L47.6107 20.3044C47.62 20.115 47.4173 19.955 47.164 19.9417L45.7133 19.8684Z" fill="#1C4670"/>
<path d="M31.7146 22.867C31.94 22.751 32.1946 22.7923 32.28 22.9577L33.1013 24.5643C33.1893 24.7337 33.0733 24.9643 32.844 25.0803L31.5519 25.743C31.3266 25.8603 31.0733 25.8163 30.9853 25.6483L30.164 24.043C30.0786 23.875 30.1946 23.6457 30.4186 23.5283L31.7146 22.867Z" fill="#1C4670"/>
<path d="M44.316 16.419C44.088 16.5377 43.9747 16.7657 44.06 16.935L44.8827 18.539C44.9667 18.707 45.22 18.751 45.448 18.6337L46.744 17.9723C46.9693 17.8563 47.084 17.6243 46.9987 17.4577L46.176 15.8496C46.092 15.6816 45.8387 15.6417 45.6093 15.7577L44.316 16.419Z" fill="#1C4670"/>
<path d="M33.6906 26.0163C33.832 25.8017 34.072 25.711 34.2293 25.815L35.7453 26.7923C35.9027 26.8963 35.9187 27.1537 35.7813 27.3657L34.9906 28.5883C34.852 28.8017 34.6093 28.8937 34.452 28.787L32.9386 27.8096C32.7786 27.7096 32.7653 27.451 32.9013 27.2363L33.6906 26.0163Z" fill="#1C4670"/>
<path d="M41.38 14.1324C41.2453 14.347 41.26 14.6043 41.4186 14.707L42.9346 15.6857C43.0906 15.7857 43.332 15.6964 43.4706 15.483L44.26 14.2617C44.3986 14.0497 44.384 13.791 44.224 13.6897L42.712 12.7097C42.5506 12.607 42.312 12.6963 42.1733 12.9123L41.38 14.1324Z" fill="#1C4670"/>
<path d="M38.328 25.7496C35.5666 25.611 33.4413 23.2563 33.584 20.4963C33.7213 17.7323 36.0746 15.611 38.8333 15.7496C41.5946 15.891 43.7253 18.2403 43.5813 21.0043C43.44 23.7643 41.0893 25.8896 38.328 25.7496ZM38.968 13.1563C34.7733 12.9443 31.1986 16.1697 30.9893 20.3643C30.7746 24.5563 34.0013 28.1296 38.1946 28.3416C42.3866 28.555 45.96 25.327 46.172 21.135C46.3853 16.9403 43.1613 13.3696 38.968 13.1563Z" fill="#1C4670"/>
<path d="M51.4599 6.46304C51.4533 6.63238 51.3453 6.76437 51.2226 6.75637L50.0333 6.69504C49.9093 6.68971 49.8159 6.54969 49.8213 6.38036L49.8706 5.42437C49.8813 5.25637 49.988 5.12438 50.1133 5.13104L51.2999 5.1897C51.4239 5.1977 51.5173 5.33902 51.5093 5.50835L51.4599 6.46304Z" fill="#1C4670"/>
<path d="M50.9866 15.7843C50.9946 15.615 50.9013 15.4736 50.7773 15.467L49.5906 15.4083C49.4653 15.4016 49.36 15.5337 49.3493 15.7017L49.3027 16.659C49.2933 16.8256 49.3853 16.9683 49.5093 16.9736L50.6986 17.0323C50.824 17.0416 50.9307 16.9083 50.9387 16.7403L50.9866 15.7843Z" fill="#1C4670"/>
<path d="M49.0093 6.55631C49.0853 6.70565 49.06 6.87098 48.9466 6.92832L47.8893 7.47099C47.7799 7.52833 47.6293 7.45232 47.5519 7.30166L47.1146 6.44831C47.0373 6.29897 47.0653 6.13097 47.176 6.07497L48.2333 5.53366C48.3466 5.47499 48.496 5.55366 48.572 5.70032L49.0093 6.55631Z" fill="#1C4670"/>
<path d="M53.2573 14.863C53.1826 14.7123 53.032 14.6377 52.9213 14.6963L51.864 15.235C51.7506 15.2923 51.7226 15.4603 51.8013 15.611L52.236 16.4617C52.312 16.6137 52.4666 16.6897 52.5773 16.6323L53.6373 16.091C53.7466 16.0323 53.7746 15.867 53.696 15.7163L53.2573 14.863Z" fill="#1C4670"/>
<path d="M46.9333 7.85901C47.0747 7.95101 47.136 8.111 47.0667 8.21366L46.4213 9.21233C46.3533 9.31633 46.184 9.32835 46.0427 9.23635L45.2387 8.715C45.0973 8.62433 45.0387 8.46568 45.1053 8.36168L45.7507 7.36168C45.816 7.25768 45.988 7.24836 46.1267 7.33902L46.9333 7.85901Z" fill="#1C4670"/>
<path d="M54.7693 12.9283C54.6267 12.839 54.4573 12.8483 54.3907 12.9536L53.7453 13.951C53.676 14.0563 53.736 14.215 53.8787 14.3057L54.6827 14.827C54.8227 14.919 54.9947 14.9083 55.06 14.8043L55.7067 13.8043C55.7733 13.7017 55.7133 13.543 55.5733 13.4496L54.7693 12.9283Z" fill="#1C4670"/>
<path d="M45.7866 10.0283C45.956 10.035 46.0866 10.143 46.08 10.2683L46.02 11.455C46.0146 11.579 45.8706 11.6737 45.704 11.6657L44.7466 11.615C44.5773 11.607 44.4453 11.5003 44.4533 11.375L44.5146 10.1883C44.5213 10.063 44.6626 9.97098 44.8293 9.97898L45.7866 10.0283Z" fill="#1C4670"/>
<path d="M55.108 10.5004C54.9373 10.4937 54.7973 10.587 54.7933 10.7097L54.732 11.8964C54.7253 12.023 54.8573 12.131 55.0267 12.139L55.9813 12.1857C56.148 12.195 56.2933 12.1003 56.2973 11.9763L56.3587 10.7897C56.3653 10.6657 56.2307 10.5563 56.064 10.5483L55.108 10.5004Z" fill="#1C4670"/>
<path d="M45.8787 12.479C46.028 12.4016 46.1947 12.4283 46.2507 12.5377L46.7933 13.5977C46.8493 13.7083 46.776 13.8617 46.6253 13.9377L45.772 14.3736C45.6227 14.451 45.456 14.423 45.3987 14.3123L44.8573 13.2537C44.7987 13.143 44.876 12.9923 45.0253 12.9136L45.8787 12.479Z" fill="#1C4670"/>
<path d="M54.1866 8.22832C54.0386 8.30565 53.964 8.45633 54.0186 8.56699L54.5586 9.62432C54.616 9.73765 54.7813 9.76298 54.9333 9.68831L55.7866 9.25098C55.9373 9.17498 56.0106 9.02164 55.9533 8.9123L55.4133 7.85498C55.3573 7.74165 55.1907 7.71498 55.0413 7.79098L54.1866 8.22832Z" fill="#1C4670"/>
<path d="M47.1827 14.555C47.2733 14.4137 47.432 14.3523 47.5373 14.4203L48.536 15.067C48.6386 15.135 48.6506 15.3043 48.56 15.4456L48.0373 16.251C47.9466 16.3897 47.7866 16.451 47.684 16.383L46.688 15.7363C46.5813 15.6683 46.5693 15.5003 46.6613 15.359L47.1827 14.555Z" fill="#1C4670"/>
<path d="M52.252 6.71898C52.1613 6.86165 52.172 7.03099 52.276 7.09766L53.2774 7.74431C53.3774 7.80964 53.5373 7.75097 53.6293 7.60964L54.1507 6.80433C54.2413 6.66567 54.2307 6.49632 54.128 6.42699L53.128 5.78031C53.024 5.71631 52.8654 5.77365 52.7734 5.91498L52.252 6.71898Z" fill="#1C4670"/>
</svg>
