<svg width="84" height="86" viewBox="0 0 84 86" fill="none" xmlns="http://www.w3.org/2000/svg">
<path d="M68.036 67.8897C65.8266 66.0709 62.1466 64.8818 57.968 64.8818C53.796 64.8818 50.1133 66.0709 47.9053 67.8897H45.728V71.8511C45.728 75.699 51.208 78.8178 57.968 78.8178C64.7306 78.8178 70.2106 75.699 70.2106 71.8511V67.8897H68.036Z" fill="#FFA229"/>
<path d="M68.036 63.447C65.8266 61.6309 62.1466 60.4366 57.968 60.4366C53.796 60.4366 50.1133 61.6309 47.9026 63.447H45.728V67.4058C45.728 71.2537 51.208 74.3761 57.968 74.3761C64.7306 74.3761 70.2106 71.2537 70.2106 67.4058V63.447H68.036Z" fill="#FCD751"/>
<path d="M68.036 59.0033C65.824 57.187 62.144 55.9965 57.968 55.9965C53.7933 55.9965 50.1133 57.187 47.9026 59.0033H45.728V62.9605C45.728 66.8094 51.208 69.9298 57.968 69.9298C64.7306 69.9298 70.2106 66.8094 70.2106 62.9605V59.0033H68.036Z" fill="#FFA229"/>
<path d="M68.036 54.5605C65.824 52.7418 62.144 51.5485 57.968 51.5485C53.7933 51.5485 50.1133 52.7418 47.9027 54.5605H45.7253V58.5189C45.7253 62.3699 51.2053 65.487 57.968 65.487C64.7307 65.487 70.2106 62.3699 70.2106 58.5189V54.5605H68.036Z" fill="#FCD751"/>
<path d="M68.036 50.1121C65.824 48.2975 62.144 47.1069 57.968 47.1069C53.7933 47.1069 50.1093 48.2975 47.9027 50.1121H45.7253V54.0761C45.7253 57.923 51.2053 61.0443 57.968 61.0443C64.7307 61.0443 70.2106 57.923 70.2106 54.0761V50.1121H68.036Z" fill="#FFA229"/>
<path d="M70.2106 50.1121C70.2106 53.9605 64.7307 57.0845 57.968 57.0845C51.2053 57.0845 45.7253 53.9605 45.7253 50.1121C45.7253 46.2667 51.2053 43.1454 57.968 43.1454C64.7307 43.1454 70.2106 46.2667 70.2106 50.1121Z" fill="#FCD751"/>
<path d="M68.2773 50.1121C68.2773 53.3547 63.6626 55.9829 57.968 55.9829C52.2746 55.9829 47.66 53.3547 47.66 50.1121C47.66 46.8735 52.2746 44.2485 57.968 44.2485C63.6626 44.2485 68.2773 46.8735 68.2773 50.1121Z" fill="#FFA229"/>
<path d="M65.9653 50.1121C65.9653 52.6271 62.3826 54.6631 57.968 54.6631C53.5533 54.6631 49.972 52.6271 49.972 50.1121C49.972 47.6001 53.5533 45.5605 57.968 45.5605C62.3826 45.5605 65.9653 47.6001 65.9653 50.1121Z" fill="#FCD751"/>
<path d="M59.2733 51.3965C59.2733 51.2257 59.1546 51.0881 58.9173 50.9777C58.68 50.8751 58.3933 50.7751 58.06 50.6855V52.0845C58.4706 52.059 58.7733 51.9855 58.9733 51.8642C59.1733 51.7443 59.2733 51.5855 59.2733 51.3965ZM56.6653 48.7189C56.6653 48.8787 56.7733 49.0121 56.9906 49.1189C57.212 49.2271 57.4826 49.3257 57.808 49.4178V48.1203C57.372 48.1309 57.0693 48.1923 56.9093 48.3042C56.748 48.4162 56.6653 48.5537 56.6653 48.7189ZM57.2093 52.9975C56.6773 52.987 56.212 52.9537 55.812 52.9033C55.4146 52.8485 55.1013 52.7829 54.8773 52.7137L55.4226 51.8069C55.588 51.8642 55.8226 51.9189 56.1266 51.9725C56.4306 52.0271 56.7893 52.0615 57.2093 52.0845V50.4725C56.9186 50.399 56.636 50.3151 56.3506 50.2241C56.064 50.1375 55.812 50.0282 55.588 49.9033C55.3653 49.7751 55.1853 49.6214 55.0493 49.4443C54.9186 49.2657 54.8493 49.0547 54.8493 48.8094C54.8493 48.3563 55.06 48.0042 55.4826 47.7511C55.9066 47.499 56.4826 47.335 57.2093 47.2615V46.5391H58.6573V47.2309C59.068 47.2454 59.428 47.2803 59.7346 47.3246C60.04 47.3709 60.324 47.4298 60.5853 47.4913L60.084 48.3667C59.924 48.3246 59.724 48.2818 59.4826 48.2391C59.2426 48.1975 58.9666 48.1657 58.6573 48.1443V49.6391C58.9466 49.711 59.24 49.7965 59.5306 49.8881C59.824 49.9818 60.084 50.0897 60.312 50.2203C60.5413 50.3454 60.728 50.4975 60.8706 50.6667C61.0173 50.8391 61.088 51.0427 61.088 51.2818C61.088 51.7683 60.8706 52.1485 60.4373 52.4203C60.0066 52.6949 59.412 52.8735 58.6573 52.9522V53.6913H57.2093V52.9975Z" fill="#FFA229"/>
<path d="M38.884 5.56419C34.4693 5.56419 30.3173 7.28446 27.1946 10.4069C24.072 13.5309 22.352 17.6845 22.3533 22.1001C22.352 26.5151 24.072 30.6657 27.1946 33.7881C30.316 36.911 34.4666 38.6309 38.8813 38.6309H38.8867C43.3013 38.6309 47.4546 36.911 50.5773 33.7881C53.6986 30.6657 55.4173 26.5151 55.416 22.1001C55.4173 17.6829 53.6973 13.5309 50.576 10.4069C47.452 7.28446 43.3 5.56419 38.884 5.56419ZM38.8867 43.2017V40.9162L38.8826 43.2017C33.2466 43.2017 27.9453 41.0069 23.96 37.0214C19.9733 33.035 17.78 27.7366 17.7813 22.1001C17.78 16.4642 19.9746 11.1615 23.9613 7.17513C27.9466 3.18806 33.248 0.992329 38.884 0.991261C44.5213 0.991261 49.8213 3.18699 53.8067 7.17513C57.796 11.1605 59.9907 16.4631 59.9893 22.099C59.9907 27.735 57.796 33.035 53.808 37.0214C49.8227 41.0069 44.524 43.2017 38.8867 43.2017Z" fill="#1C4670"/>
<path d="M41.1707 54.8761H36.5987V40.5605H41.1707V54.8761Z" fill="#1C4670"/>
<path d="M42.788 82.7511C42.788 84.0282 41.7507 85.0667 40.4747 85.0642L37.2946 85.0667C36.0173 85.0683 34.98 84.0282 34.98 82.7511V52.6845C34.98 51.4042 36.0186 50.3683 37.2933 50.3683H40.476C41.7506 50.3699 42.7853 51.4042 42.788 52.6829V82.7511Z" fill="#AEBFCE"/>
<path d="M42.7867 56.2418H34.98V55.0975H42.7867V56.2418Z" fill="#FCD751"/>
<path d="M42.7853 58.9402H34.98V57.799H42.7853V58.9402Z" fill="#FCD751"/>
<path d="M42.788 80.3366L34.9813 80.335V79.1923L42.788 79.1938V80.3366Z" fill="#FCD751"/>
<path d="M42.788 77.6375H34.98V76.4938H42.788V77.6375Z" fill="#FCD751"/>
<path d="M44.7986 23.3751C45.4453 22.3069 45.816 21.0537 45.816 19.7162C45.816 15.8058 42.6467 12.6391 38.7373 12.6391C34.8293 12.6391 31.66 15.8058 31.66 19.7162C31.66 21.0537 32.032 22.3069 32.68 23.3751C34.592 26.7938 34.98 27.611 35.0026 29.1725C35.04 31.5121 35.0026 33.3787 35.0026 33.3787H38.7373H42.4733C42.4733 33.3787 42.4387 31.5121 42.4733 29.1725C42.4973 27.611 42.8866 26.7938 44.7986 23.3751Z" fill="#FCD751"/>
<path d="M38.7373 34.4495H36.084C36.4773 36.587 38.7373 36.587 38.7373 36.587C38.7373 36.587 40.9973 36.587 41.3933 34.4495H38.7373Z" fill="#002254"/>
<path d="M43.556 30.9725C43.556 31.6511 43.0053 32.199 42.3253 32.199H35.152C34.472 32.199 33.9213 31.6511 33.9213 30.9725C33.9213 30.2938 34.472 29.7443 35.152 29.7443H42.3253C43.0053 29.7443 43.556 30.2938 43.556 30.9725Z" fill="#768296"/>
<path d="M43.1693 30.7323C43.1693 31.2777 42.664 31.7203 42.0386 31.7203H35.4386C34.812 31.7203 34.308 31.2777 34.308 30.7323C34.308 30.1855 34.812 29.7443 35.4386 29.7443H42.0386C42.664 29.7443 43.1693 30.1855 43.1693 30.7323Z" fill="#768296"/>
<path d="M43.556 33.3787C43.556 34.059 43.0053 34.6085 42.3253 34.6085H35.152C34.472 34.6085 33.9213 34.059 33.9213 33.3787C33.9213 32.7017 34.472 32.1495 35.152 32.1495H42.3253C43.0053 32.1495 43.556 32.7017 43.556 33.3787Z" fill="#768296"/>
<path d="M38.8867 7.60687C39.152 7.60687 39.372 7.8214 39.372 8.08806V10.9151C39.372 11.1803 39.152 11.3949 38.8867 11.3949C38.6187 11.3949 38.404 11.1803 38.404 10.9151V8.08806C38.404 7.8214 38.6187 7.60687 38.8867 7.60687Z" fill="#FFA229"/>
<path d="M32.4627 9.27246C32.6947 9.13912 32.9893 9.21619 33.1227 9.44952L34.5347 11.8949C34.6707 12.1282 34.5907 12.423 34.36 12.5563C34.128 12.6897 33.832 12.611 33.6987 12.3803L32.2867 9.9334C32.152 9.70166 32.2333 9.40846 32.4627 9.27246Z" fill="#FFA229"/>
<path d="M27.7346 13.9271C27.8666 13.6965 28.1626 13.6178 28.3946 13.7495L30.8413 15.1631C31.072 15.2965 31.152 15.5923 31.0187 15.8214C30.8853 16.0537 30.588 16.135 30.3586 16.0001L27.9106 14.587C27.68 14.4537 27.6 14.159 27.7346 13.9271Z" fill="#FFA229"/>
<path d="M25.9653 20.3246C25.9653 20.0563 26.1827 19.8402 26.4493 19.8402H29.2747C29.54 19.8402 29.7573 20.0563 29.7573 20.3246C29.7573 20.5923 29.54 20.8085 29.2747 20.8085H26.4493C26.1827 20.8085 25.9653 20.5923 25.9653 20.3246Z" fill="#FFA229"/>
<path d="M27.6333 26.7485C27.5 26.5162 27.5786 26.2214 27.8093 26.0855L30.256 24.6735C30.4893 24.5391 30.784 24.6203 30.9173 24.8522C31.052 25.0829 30.972 25.3777 30.7413 25.5137L28.2933 26.9241C28.064 27.0574 27.7667 26.9787 27.6333 26.7485Z" fill="#FFA229"/>
<path d="M45.3093 9.27246C45.08 9.13912 44.784 9.21619 44.6493 9.44952L43.236 11.8949C43.104 12.1282 43.1813 12.423 43.4147 12.5563C43.6467 12.6897 43.9413 12.611 44.0747 12.3803L45.488 9.9334C45.62 9.70166 45.5426 9.40846 45.3093 9.27246Z" fill="#FFA229"/>
<path d="M50.0387 13.9271C49.908 13.6965 49.6093 13.6178 49.3786 13.7495L46.9306 15.1631C46.7 15.2965 46.6226 15.5923 46.7533 15.8214C46.888 16.0537 47.188 16.135 47.4173 16.0001L49.8626 14.587C50.096 14.4537 50.1747 14.159 50.0387 13.9271Z" fill="#FFA229"/>
<path d="M51.8053 20.3246C51.8053 20.0563 51.592 19.8402 51.3227 19.8402H48.4987C48.2333 19.8402 48.016 20.0563 48.016 20.3246C48.016 20.5923 48.2333 20.8085 48.4987 20.8085H51.3227C51.592 20.8085 51.8053 20.5923 51.8053 20.3246Z" fill="#FFA229"/>
<path d="M50.14 26.7485C50.2747 26.5162 50.1947 26.2214 49.9627 26.0855L47.5187 24.6735C47.2853 24.5391 46.9893 24.6203 46.856 24.8522C46.7227 25.0829 46.8053 25.3777 47.0333 25.5137L49.4787 26.9241C49.7107 27.0574 50.0093 26.9787 50.14 26.7485Z" fill="#FFA229"/>
<path d="M43.1693 33.1391C43.1693 33.687 42.664 34.1298 42.0386 34.1298H35.4386C34.812 34.1298 34.308 33.687 34.308 33.1391C34.308 32.5938 34.812 32.1495 35.4386 32.1495H42.0386C42.664 32.1495 43.1693 32.5938 43.1693 33.1391Z" fill="#768296"/>
<path d="M83.1213 71.8189C83.1213 77.911 78.184 82.8495 72.088 82.8495C65.9947 82.8495 61.056 77.911 61.056 71.8189C61.056 65.7257 65.9947 60.7845 72.088 60.7845C78.184 60.7845 83.1213 65.7257 83.1213 71.8189Z" fill="#FCD751"/>
<path d="M81.264 71.8189C81.264 76.8845 77.1547 80.9897 72.088 80.9897C67.0227 80.9897 62.9173 76.8845 62.9173 71.8189C62.9173 66.7511 67.0227 62.647 72.088 62.647C77.1547 62.647 81.264 66.7511 81.264 71.8189Z" fill="#FFA229"/>
<path d="M79.528 71.8189C79.528 75.9241 76.196 79.2574 72.088 79.2574C67.9827 79.2574 64.6507 75.9241 64.6507 71.8189C64.6507 67.7069 67.9827 64.3761 72.088 64.3761C76.196 64.3761 79.528 67.7069 79.528 71.8189Z" fill="#FCD751"/>
<path d="M73.304 73.911C73.304 73.6366 73.1947 73.4085 72.972 73.2323C72.7547 73.0605 72.488 72.8965 72.1747 72.7522V75.0366C72.5533 74.9965 72.84 74.8751 73.024 74.6787C73.2093 74.4818 73.304 74.2241 73.304 73.911ZM70.8773 69.5391C70.8773 69.8017 70.976 70.0178 71.1786 70.1938C71.3866 70.3683 71.636 70.5271 71.944 70.6751V68.5615C71.5346 68.5761 71.2507 68.6777 71.1027 68.859C70.9507 69.0402 70.8773 69.2683 70.8773 69.5391ZM71.3826 76.5298C70.8866 76.5137 70.4573 76.4615 70.084 76.3735C69.7107 76.2855 69.424 76.1845 69.2133 76.0709L69.7173 74.5829C69.876 74.6787 70.0906 74.7709 70.376 74.8563C70.6546 74.9443 70.992 75.0058 71.3826 75.0366V72.4017C71.112 72.2845 70.8467 72.1485 70.584 72.0001C70.3187 71.8547 70.084 71.6787 69.876 71.4683C69.6693 71.259 69.5 71.011 69.372 70.723C69.2507 70.4282 69.188 70.0845 69.188 69.6897C69.188 68.9427 69.3826 68.3642 69.7773 67.9563C70.168 67.5427 70.7053 67.2761 71.3826 67.1563V65.9709H72.7333V67.1033C73.1133 67.1298 73.448 67.1818 73.7347 67.2547C74.016 67.335 74.284 67.4241 74.5266 67.5282L74.0573 68.9615C73.9093 68.8938 73.7253 68.823 73.5 68.7547C73.2747 68.6803 73.0187 68.6323 72.7333 68.599V71.0402C73.0013 71.159 73.2746 71.2975 73.5453 71.447C73.816 71.5965 74.0573 71.7803 74.2707 71.9845C74.4813 72.1949 74.6586 72.4402 74.792 72.7203C74.9226 73.0017 74.992 73.3375 74.992 73.723C74.992 74.5214 74.792 75.147 74.3893 75.5897C73.9867 76.0366 73.432 76.323 72.7333 76.4547V77.6631H71.3826V76.5298Z" fill="#FFA229"/>
<path d="M27.2507 74.559C27.2507 74.559 18.6454 74.759 16.7894 73.1485C14.932 74.759 6.32668 74.559 6.32668 74.559C6.32668 74.559 5.22802 74.8605 5.25469 76.3725C5.28136 77.8829 6.32668 77.9818 6.32668 77.9818H16.7894H27.2507C27.2507 77.9818 28.2987 77.8829 28.3227 76.3725C28.3507 74.8605 27.2507 74.559 27.2507 74.559Z" fill="#1C4670"/>
<path d="M27.2507 74.559C27.2507 74.559 27.1373 74.5574 26.58 74.559C26.7827 74.623 27.5227 74.9203 27.5014 75.8949C27.4774 77.0214 26.3014 76.8427 26.3014 76.8427H16.7894H7.27735C7.27735 76.8427 6.10136 77.0214 6.07469 75.8949C6.05469 74.9203 6.79602 74.623 6.99735 74.559C6.44002 74.5574 6.32668 74.559 6.32668 74.559C6.32668 74.559 5.22802 74.8605 5.25469 76.3725C5.28136 77.8829 6.32668 77.9818 6.32668 77.9818H16.7894H27.2507C27.2507 77.9818 28.2987 77.8829 28.3227 76.3725C28.3507 74.8605 27.2507 74.559 27.2507 74.559Z" fill="#1C4670"/>
<path d="M19.5787 42.1137C19.5787 42.9547 18.8973 43.6309 18.0573 43.6309H15.5187C14.6787 43.6309 14.0013 42.9547 14.0013 42.1137C14.0013 41.2761 14.6787 40.5949 15.5187 40.5949H18.0573C18.8973 40.5949 19.5787 41.2761 19.5787 42.1137Z" fill="#FCD751"/>
<path d="M16.7893 71.723C9.79335 71.723 4.12001 66.0522 4.12001 59.0574C4.12001 52.0605 9.79335 46.3897 16.7893 46.3897C23.7853 46.3897 29.456 52.0605 29.456 59.0574C29.456 66.0522 23.7853 71.723 16.7893 71.723ZM16.7893 43.1485C8.00135 43.1485 0.880005 50.2725 0.880005 59.0574C0.880005 67.8427 8.00135 74.9667 16.7893 74.9667C25.5747 74.9667 32.6947 67.8427 32.6947 59.0574C32.6947 50.2725 25.5747 43.1485 16.7893 43.1485Z" fill="#768296"/>
<path d="M16.7893 46.3897C9.79333 46.3897 4.12 52.0605 4.12 59.0574C4.12 66.0522 9.79333 71.723 16.7893 71.723C23.7853 71.723 29.456 66.0522 29.456 59.0574C29.456 52.0605 23.7853 46.3897 16.7893 46.3897Z" fill="#E3FDFF"/>
<path d="M16.7893 46.3897C10.2 46.3897 4.85733 51.7309 4.85733 58.3203C4.85733 64.9094 10.2 70.2511 16.7893 70.2511C23.3787 70.2511 28.7213 64.9094 28.7213 58.3203C28.7213 51.7309 23.3787 46.3897 16.7893 46.3897Z" fill="white"/>
<path d="M21.0827 57.359C19.0387 59.5178 17.208 61.1017 16.9973 60.9001C16.7813 60.699 18.2653 58.7829 20.3067 56.6257C22.352 54.4683 24.1827 52.8818 24.396 53.0845C24.6107 53.2845 23.1253 55.2001 21.0827 57.359Z" fill="#768296"/>
<path d="M13.4533 56.8121C15.612 58.8579 17.1973 60.687 16.9973 60.9001C16.7946 61.1137 14.8787 59.6298 12.7213 57.5855C10.5627 55.5427 8.97465 53.7121 9.17731 53.5001C9.37998 53.2881 11.296 54.7725 13.4533 56.8121Z" fill="#768296"/>
<path d="M17.1813 71.1391C17.1813 72.2485 17.0027 73.1485 16.7893 73.1485C16.572 73.1485 16.3973 72.2485 16.3973 71.1391C16.3973 70.0257 16.572 69.1214 16.7893 69.1214C17.0027 69.1214 17.1813 70.0257 17.1813 71.1391Z" fill="#768296"/>
<path d="M17.1813 46.9761C17.1813 45.8642 17.0027 44.9631 16.7893 44.9631C16.572 44.9631 16.3973 45.8642 16.3973 46.9761C16.3973 48.0855 16.572 48.9881 16.7893 48.9881C17.0027 48.9881 17.1813 48.0855 17.1813 46.9761Z" fill="#768296"/>
<path d="M28.868 58.6642C29.98 58.6642 30.88 58.8418 30.88 59.0574C30.88 59.2725 29.98 59.4511 28.868 59.4511C27.7533 59.4511 26.8547 59.2725 26.8547 59.0574C26.8547 58.8418 27.7533 58.6642 28.868 58.6642Z" fill="#768296"/>
<path d="M4.70931 58.6642C3.59864 58.6642 2.69464 58.8418 2.69464 59.0574C2.69464 59.2725 3.59864 59.4511 4.70931 59.4511C5.82131 59.4511 6.72132 59.2725 6.72132 59.0574C6.72132 58.8418 5.82131 58.6642 4.70931 58.6642Z" fill="#768296"/>
<path d="M26.1333 67.9725C26.7427 68.5818 27.1387 69.1699 27.02 69.287C26.9013 69.4058 26.3107 69.011 25.7053 68.4017C25.0947 67.7949 24.7 67.2033 24.816 67.0855C24.9347 66.9683 25.5267 67.3631 26.1333 67.9725Z" fill="#768296"/>
<path d="M7.87199 49.711C7.26399 49.1033 6.67732 48.7042 6.55599 48.8246C6.43865 48.9443 6.83464 49.5334 7.44398 50.1391C8.05198 50.7511 8.64131 51.1443 8.75997 51.0271C8.87864 50.9094 8.48132 50.3178 7.87199 49.711Z" fill="#768296"/>
<path d="M25.7067 49.711C26.3107 49.1033 26.9013 48.7042 27.02 48.8246C27.1387 48.9443 26.7453 49.5334 26.1333 50.1391C25.5267 50.7511 24.9347 51.1443 24.816 51.0271C24.7 50.9094 25.0947 50.3178 25.7067 49.711Z" fill="#768296"/>
<path d="M7.44399 67.9725C6.83599 68.5818 6.43867 69.1699 6.556 69.287C6.67733 69.4058 7.264 69.011 7.872 68.4017C8.48133 67.7949 8.87865 67.2033 8.75999 67.0855C8.64132 66.9683 8.05199 67.3631 7.44399 67.9725Z" fill="#768296"/>
</svg>
