<svg width="73" height="87" viewBox="0 0 73 87" fill="none" xmlns="http://www.w3.org/2000/svg">
<path d="M64.9987 39.7803C64.72 39.7656 64.412 39.915 64.248 40.159C63.98 40.5617 64.1347 41.187 64.6707 41.8736C64.8293 42.0776 65.0027 42.2563 65.184 42.4096C65.5133 41.9243 65.7027 41.415 65.6773 40.8843C65.66 40.531 65.568 39.923 65.1347 39.8017L64.9987 39.7803ZM59.5693 48.223C59.136 48.199 58.74 47.9123 58.5987 47.4736C58.4147 46.9043 58.728 46.295 59.296 46.1096C60.2373 45.8043 62.1427 45.007 63.628 43.923C63.3907 43.7083 63.1667 43.4683 62.9627 43.207C61.8293 41.755 61.6373 40.167 62.448 38.955C63.16 37.8896 64.5013 37.3763 65.7147 37.715C66.9707 38.0643 67.7667 39.2096 67.84 40.7816C67.884 41.6723 67.6493 42.483 67.2387 43.215C67.8613 43.251 68.4707 43.1257 68.9733 42.8963C70.3987 42.247 71.06 40.895 70.744 39.279C70.6293 38.6936 71.0133 38.1243 71.5987 38.0083C72.1893 37.8936 72.7547 38.2777 72.8693 38.8643C73.376 41.4523 72.1987 43.807 69.872 44.867C68.496 45.495 66.9907 45.5483 65.6467 45.1043C63.5 46.9777 60.4787 48.0043 59.9613 48.171C59.8307 48.215 59.6987 48.2297 59.5693 48.223Z" fill="#FCD751"/>
<path d="M22.3186 71.3684C21.4733 74.539 19.856 75.187 18.5013 75.187C15.5333 75.187 13.6306 74.799 13.1266 71.3684L12.7213 63.967C12.7213 60.999 15.5333 60.4017 18.5013 60.4017C21.4706 60.4017 23.8746 62.8057 23.8746 65.775L22.3186 71.3684Z" fill="#FCD751"/>
<path d="M45.4693 71.3684C46.312 74.539 47.9307 75.187 49.2867 75.187C52.2533 75.187 54.1573 74.799 54.6613 71.3684L55.0667 63.967C55.0667 60.999 52.2533 60.4017 49.2867 60.4017C46.3173 60.4017 43.912 62.8057 43.912 65.775L45.4693 71.3684Z" fill="#FCD751"/>
<path d="M10.8507 53.5137C10.8507 56.1563 8.54132 58.3004 5.69465 58.3004C2.84799 58.3004 0.538666 56.1563 0.538666 53.5137V47.6297C0.538666 44.987 2.84799 42.843 5.69465 42.843C8.54132 42.843 10.8507 44.987 10.8507 47.6297V53.5137Z" fill="#FCD751"/>
<path d="M33.8947 26.8257C28.1213 26.8257 22.7547 28.207 18.2787 30.5737L12.244 26.7817C10.7693 25.451 7.564 25.3483 6.232 26.8257C4.89733 28.3003 5.94267 30.791 7.41867 32.1217L10.984 36.151C7.59333 39.875 5.58667 44.455 5.58667 49.4097C5.58667 61.8803 18.26 71.9923 33.8947 71.9923C49.528 71.9923 62.1973 61.8803 62.1973 49.4097C62.1973 36.9363 49.528 26.8257 33.8947 26.8257Z" fill="#FCD751"/>
<path d="M17.2093 42.843C17.2093 43.9723 16.2987 44.8857 15.1693 44.8857C14.0413 44.8857 13.1266 43.9723 13.1266 42.843C13.1266 41.715 14.0413 40.8003 15.1693 40.8003C16.2987 40.8003 17.2093 41.715 17.2093 42.843Z" fill="#FFA229"/>
<path d="M47.144 33.7817C46.8107 34.463 45.988 34.7537 45.2773 34.467C38.1173 31.5217 29.6693 31.5217 22.5093 34.467C21.7987 34.7537 20.9747 34.463 20.6427 33.7817C20.312 33.1043 20.6547 32.2603 21.4453 31.9403C29.2667 28.7137 38.52 28.7137 46.3427 31.9403C47.132 32.2603 47.4747 33.1043 47.144 33.7817Z" fill="#FFA229"/>
<path d="M23.0867 0.245651V34.2457C23.7467 33.9923 24.4133 33.7577 25.0893 33.5523C25.6627 33.379 26.2427 33.2217 26.8253 33.0857C31.5653 31.9577 36.6107 31.9896 41.3333 33.1736C41.9147 33.323 42.4947 33.4897 43.068 33.6723C43.7453 33.887 44.4133 34.123 45.0707 34.387V31.4537V0.245651H23.0867Z" fill="#AEBFCE"/>
<path d="M43.068 33.6724C42.4947 33.4897 41.9147 33.323 41.3333 33.1737V30.3617V6.50169L41.0333 6.53236C39.9133 6.53236 39.0013 5.62169 39.0013 4.49903L39.032 4.20036H29.1266L29.156 4.49903C29.156 5.62169 28.2467 6.53236 27.1227 6.53236L26.8253 6.50169V30.2803V33.0857C26.2426 33.2217 25.6627 33.379 25.0893 33.5523V30.7057V2.46569H43.068V30.8044V33.6724Z" fill="#516179"/>
<path d="M37.2373 20.0323H34.9947C35.1387 19.7283 35.2973 19.4657 35.468 19.2497C35.64 19.0323 35.86 18.9243 36.1293 18.9243C36.44 18.9243 36.692 19.0164 36.884 19.2003C37.08 19.3803 37.196 19.6603 37.2373 20.0323Z" fill="#516179"/>
<path d="M31.8426 21.307C31.5773 21.307 31.3547 21.2324 31.1747 21.0844C30.996 20.9337 30.8973 20.663 30.8813 20.2617H32.9586C32.812 20.5604 32.6533 20.8097 32.4827 21.0097C32.312 21.207 32.0986 21.307 31.8426 21.307Z" fill="#516179"/>
<path d="M34.0773 26.6377C30.476 26.6377 27.556 23.7177 27.556 20.1163C27.556 16.5137 30.476 13.595 34.0773 13.595C37.6827 13.595 40.6 16.5137 40.6 20.1163C40.6 23.7177 37.6827 26.6377 34.0773 26.6377ZM28.3453 19.4857V20.811H29.5053C29.624 21.4723 29.884 21.9977 30.2893 22.3843C30.6907 22.7697 31.2573 22.9644 31.9893 22.9644C32.38 22.9644 32.7173 22.9017 33.0027 22.779C33.2867 22.655 33.5293 22.491 33.7347 22.2883C33.9387 22.0843 34.112 21.8537 34.256 21.595C34.4027 21.3337 34.5333 21.0723 34.6507 20.811H37.2373C37.2027 21.1923 37.144 21.5217 37.0587 21.799C36.9747 22.0764 36.8853 22.2883 36.792 22.4417L38.2493 22.939C38.3627 22.735 38.4627 22.4497 38.548 22.0843C38.6347 21.719 38.6867 21.2937 38.704 20.811H39.812V19.4857H38.6267C38.5 18.7977 38.2173 18.2577 37.7787 17.8617C37.3413 17.467 36.7333 17.2697 35.9507 17.2697C35.5693 17.2697 35.24 17.3337 34.964 17.467C34.6893 17.599 34.448 17.7683 34.2453 17.9763C34.04 18.1843 33.864 18.4203 33.716 18.691C33.568 18.9577 33.432 19.223 33.3133 19.4857H30.9187C30.9533 19.207 31.004 18.955 31.072 18.7324C31.1387 18.515 31.2067 18.3323 31.2747 18.187L29.8693 17.727C29.7693 17.9657 29.6813 18.2244 29.6053 18.5044C29.5293 18.7857 29.4773 19.111 29.4533 19.4857H28.3453Z" fill="#516179"/>
<path d="M56.1173 75.4083C55.9693 73.0937 55.116 70.9763 53.7693 69.263C51.8333 66.4897 47.8173 64.4363 47.816 62.0457C47.8133 59.655 51.8306 57.5963 53.7586 54.8203C55.1053 53.1043 55.956 50.987 56.1013 48.6737L56.1093 48.5763C56.1213 48.3697 56.128 48.159 56.1307 47.9497C56.1267 41.8003 51.1373 38.023 44.9867 38.0257C38.8347 38.0283 33.8533 41.8097 33.852 47.9603L33.8573 48.0523C33.8613 48.227 33.8627 48.4043 33.8747 48.5803L33.8853 48.715C34.0387 51.0083 34.888 53.1163 36.2266 54.823C38.1586 57.6003 42.18 59.655 42.18 62.0457C42.1827 64.4417 38.164 66.495 36.2373 69.2737C34.8973 70.983 34.0507 73.091 33.8987 75.3897L33.8853 75.5217C33.876 75.699 33.8747 75.8737 33.872 76.0497L33.8667 76.1443C33.872 82.2883 38.86 86.0697 45.012 86.067C51.1627 86.059 56.1453 82.2803 56.1453 76.127C56.1427 75.9177 56.1373 75.7097 56.1227 75.5017L56.1173 75.4083Z" fill="#768296"/>
<path d="M53.9267 81.7843C53.9253 78.2617 49.4267 74.323 45.0067 74.3257C40.584 74.3257 36.0893 78.2737 36.0907 81.7977C36.0907 85.3177 40.5893 85.6697 45.012 85.6697C49.4347 85.6657 53.928 85.3097 53.9267 81.7843Z" fill="#FFA229"/>
<path d="M46.612 61.0323C46.6093 59.0563 48.2786 57.5443 50.052 55.9417C51.0506 55.0403 52.084 54.107 52.7666 53.119L52.8067 53.0643C53.528 52.1457 54.072 51.1177 54.424 50.0257L35.5613 50.0364C35.9186 51.123 36.46 52.1483 37.176 53.0643L37.2187 53.123C37.9053 54.1097 38.9386 55.0417 39.9426 55.9443C41.7133 57.5443 43.3867 59.0564 43.388 61.035C43.3893 63.015 46.6106 63.015 46.612 61.0323Z" fill="#FFA229"/>
<path d="M45.048 72.967C45.312 72.9057 45.516 72.8096 45.6453 72.607C45.7773 72.419 45.844 72.1857 45.8493 71.899C45.8506 71.6203 45.7773 71.383 45.6306 71.1963C45.4786 71.011 45.292 70.8203 45.0586 70.6843L45.048 72.967ZM44.928 66.639C44.6266 66.671 44.4213 66.7777 44.3106 66.9577C44.196 67.1217 44.1426 67.323 44.1426 67.511C44.1426 67.7776 44.2133 68.011 44.3613 68.187C44.5133 68.3577 44.6986 68.527 44.9173 68.6963L44.928 66.639ZM44.368 74.3257C43.972 74.2897 43.6373 74.239 43.352 74.163C43.0693 74.0923 42.8466 73.9843 42.676 73.879L43.0986 72.5283C43.22 72.635 43.388 72.7203 43.612 72.7937C43.8373 72.8697 44.084 72.9257 44.3747 72.9643L44.388 70.2443C44.1747 70.115 43.9667 69.963 43.7573 69.819C43.552 69.667 43.368 69.4816 43.204 69.2816C43.0427 69.075 42.9093 68.839 42.8146 68.559C42.704 68.3003 42.66 67.9763 42.66 67.6017C42.6626 66.947 42.82 66.4537 43.136 66.0723C43.4546 65.6923 43.88 65.451 44.4133 65.3416L44.416 64.1977L45.6 64.223L45.596 65.3163C45.8813 65.3416 46.1426 65.391 46.3613 65.463C46.5866 65.5243 46.8013 65.6003 47 65.6977L46.5773 66.991C46.4586 66.923 46.3186 66.8523 46.144 66.795C45.9786 66.7443 45.7933 66.7003 45.5907 66.6683L45.576 69.1283C45.7933 69.255 46.004 69.4057 46.2173 69.5723C46.4226 69.7257 46.62 69.8963 46.7866 70.1257C46.952 70.323 47.092 70.5723 47.1973 70.835C47.304 71.103 47.36 71.4123 47.36 71.7776C47.3546 72.4843 47.1893 73.0456 46.864 73.4483C46.5453 73.8523 46.1026 74.1377 45.552 74.255L45.548 75.4203L44.3666 75.407L44.368 74.3257Z" fill="#FFA229"/>
<path d="M58.4946 83.7603C58.4933 82.3977 57.3933 81.2963 56.028 81.2963L33.992 81.307C32.624 81.307 31.524 82.415 31.524 83.775C31.524 85.1337 32.6293 86.2363 33.9933 86.239L56.0306 86.2283C57.3973 86.2257 58.4933 85.119 58.4946 83.7603Z" fill="#1C4670"/>
<path d="M58.4453 40.3163C58.4426 38.955 57.3426 37.8537 55.976 37.8537L33.94 37.8657C32.5733 37.8657 31.472 38.9697 31.472 40.331C31.472 41.691 32.5773 42.7937 33.944 42.7963L55.98 42.7856C57.3466 42.7816 58.444 41.6776 58.4453 40.3163Z" fill="#1C4670"/>
</svg>
