<svg width="33" height="33" viewBox="0 0 33 33" fill="none" xmlns="http://www.w3.org/2000/svg">
<path d="M31.2249 0.48291H1.76579C1.05733 0.48291 0.484955 1.05528 0.484955 1.76374V31.2229C0.484955 31.9313 1.05733 32.5037 1.76579 32.5037H31.2249C31.9334 32.5037 32.5057 31.9313 32.5057 31.2229V1.76374C32.5057 1.05528 31.9334 0.48291 31.2249 0.48291ZM9.98312 27.7686H5.23204V12.4867H9.98312V27.7686ZM7.60958 10.3973C7.06493 10.3973 6.53251 10.2358 6.07966 9.93325C5.6268 9.63066 5.27384 9.20057 5.06541 8.69738C4.85698 8.1942 4.80245 7.6405 4.9087 7.10632C5.01496 6.57214 5.27723 6.08146 5.66236 5.69634C6.04748 5.31121 6.53816 5.04894 7.07234 4.94268C7.60652 4.83643 8.16022 4.89096 8.66341 5.09939C9.16659 5.30782 9.59668 5.66078 9.89927 6.11363C10.2019 6.56649 10.3634 7.09891 10.3634 7.64356C10.3594 9.16454 9.12656 10.3973 7.60958 10.3973ZM27.7707 27.7686H23.0236V20.3358C23.0236 18.5626 22.9916 16.2852 20.554 16.2852C18.0844 16.2852 17.7041 18.2144 17.7041 20.2077V27.7686H12.9611V12.4867H17.516V14.5761H17.58C18.2125 13.3753 19.7615 12.1065 22.075 12.1065C26.8861 12.1065 27.7707 15.2725 27.7707 19.3872V27.7686Z" fill="#2F80ED"/>
</svg>
