<svg width="33" height="33" viewBox="0 0 33 33" fill="none" xmlns="http://www.w3.org/2000/svg">
<path d="M31.718 0.48291H2.25886C1.5504 0.48291 0.978027 1.05528 0.978027 1.76374V31.2229C0.978027 31.9313 1.5504 32.5037 2.25886 32.5037H31.718C32.4264 32.5037 32.9988 31.9313 32.9988 31.2229V1.76374C32.9988 1.05528 32.4264 0.48291 31.718 0.48291ZM10.4762 27.7686H5.72511V12.4867H10.4762V27.7686ZM8.10265 10.3973C7.558 10.3973 7.02559 10.2358 6.57273 9.93325C6.11987 9.63066 5.76691 9.20057 5.55848 8.69738C5.35006 8.1942 5.29552 7.6405 5.40178 7.10632C5.50803 6.57214 5.77031 6.08146 6.15543 5.69634C6.54055 5.31121 7.03123 5.04894 7.56541 4.94268C8.0996 4.83643 8.65329 4.89096 9.15648 5.09939C9.65967 5.30782 10.0898 5.66078 10.3923 6.11363C10.6949 6.56649 10.8564 7.09891 10.8564 7.64356C10.8524 9.16454 9.61963 10.3973 8.10265 10.3973ZM28.2637 27.7686H23.5167V20.3358C23.5167 18.5626 23.4846 16.2852 21.0471 16.2852C18.5774 16.2852 18.1972 18.2144 18.1972 20.2077V27.7686H13.4541V12.4867H18.0091V14.5761H18.0731C18.7055 13.3753 20.2545 12.1065 22.568 12.1065C27.3792 12.1065 28.2637 15.2725 28.2637 19.3872V27.7686Z" fill="white"/>
</svg>
