<svg width="26" height="32" viewBox="0 0 26 32" fill="none" xmlns="http://www.w3.org/2000/svg">
<path d="M12.9998 19.1667C16.4927 19.1667 19.3332 16.3262 19.3332 12.8333C19.3332 9.3405 16.4927 6.5 12.9998 6.5C9.507 6.5 6.6665 9.3405 6.6665 12.8333C6.6665 16.3262 9.507 19.1667 12.9998 19.1667ZM12.9998 9.66667C14.7463 9.66667 16.1665 11.0869 16.1665 12.8333C16.1665 14.5798 14.7463 16 12.9998 16C11.2534 16 9.83317 14.5798 9.83317 12.8333C9.83317 11.0869 11.2534 9.66667 12.9998 9.66667Z" fill="#fff"/>
<path d="M11.7487 31.5387C12.0166 31.73 12.3377 31.8329 12.667 31.8329C12.9963 31.8329 13.3173 31.73 13.5853 31.5387C14.0667 31.1983 25.3796 23.0298 25.3337 12.8332C25.3337 5.84909 19.6511 0.166504 12.667 0.166504C5.68291 0.166504 0.000322499 5.84909 0.000322499 12.8253C-0.0455942 23.0298 11.2673 31.1983 11.7487 31.5387ZM12.667 3.33317C17.9062 3.33317 22.167 7.59392 22.167 12.8411C22.2002 19.8679 15.2193 26.1775 12.667 28.2469C10.1162 26.1759 3.13374 19.8648 3.16699 12.8332C3.16699 7.59392 7.42774 3.33317 12.667 3.33317Z" fill="#fff"/>
</svg>
