<svg width="118" height="42" viewBox="0 0 118 42" fill="none" xmlns="http://www.w3.org/2000/svg">
<path d="M0.528 24V23.76L1.032 23.592C1.352 23.48 1.56 23.336 1.656 23.16C1.752 22.968 1.8 22.704 1.8 22.368V9.816C1.8 9.496 1.752 9.248 1.656 9.072C1.576 8.88 1.384 8.728 1.08 8.616L0.528 8.4V8.16H7.392C9.28 8.16 10.728 8.52 11.736 9.24C12.744 9.944 13.248 10.928 13.248 12.192C13.248 12.896 12.984 13.6 12.456 14.304C11.928 15.008 11.096 15.552 9.96 15.936L13.296 22.56C13.44 22.832 13.6 23.056 13.776 23.232C13.968 23.392 14.216 23.536 14.52 23.664L14.832 23.784V24H10.536L6.984 16.44H5.352V22.368C5.352 22.672 5.4 22.92 5.496 23.112C5.592 23.304 5.792 23.448 6.096 23.544L6.672 23.76V24H0.528ZM5.352 15.96H6.504C7.656 15.96 8.488 15.656 9 15.048C9.512 14.424 9.768 13.504 9.768 12.288C9.768 11.056 9.528 10.144 9.048 9.552C8.568 8.944 7.76 8.64 6.624 8.64H5.352V15.96ZM18.9137 24.36C17.9857 24.36 17.2017 24.096 16.5617 23.568C15.9377 23.04 15.6257 22.28 15.6257 21.288C15.6257 20.536 16.0097 19.848 16.7777 19.224C17.5457 18.584 18.7537 18.104 20.4017 17.784C20.6577 17.736 20.9457 17.688 21.2657 17.64C21.5857 17.576 21.9217 17.512 22.2737 17.448V15.552C22.2737 14.464 22.1377 13.704 21.8657 13.272C21.6097 12.824 21.2017 12.6 20.6417 12.6C20.2577 12.6 19.9537 12.728 19.7297 12.984C19.5057 13.224 19.3617 13.648 19.2977 14.256L19.2497 14.52C19.2177 15.208 19.0497 15.712 18.7457 16.032C18.4417 16.352 18.0657 16.512 17.6177 16.512C17.2017 16.512 16.8577 16.384 16.5857 16.128C16.3137 15.872 16.1777 15.528 16.1777 15.096C16.1777 14.44 16.4017 13.888 16.8497 13.44C17.3137 12.992 17.9217 12.656 18.6737 12.432C19.4257 12.208 20.2417 12.096 21.1217 12.096C22.5457 12.096 23.6417 12.448 24.4097 13.152C25.1937 13.84 25.5857 14.968 25.5857 16.536V21.84C25.5857 22.56 25.9217 22.92 26.5937 22.92H27.1217L27.3377 23.112C27.0337 23.496 26.6977 23.792 26.3297 24C25.9777 24.208 25.4737 24.312 24.8177 24.312C24.1137 24.312 23.5537 24.152 23.1377 23.832C22.7377 23.496 22.4737 23.056 22.3457 22.512C21.8657 23.024 21.3697 23.464 20.8577 23.832C20.3617 24.184 19.7137 24.36 18.9137 24.36ZM20.3777 22.896C20.6977 22.896 20.9937 22.824 21.2657 22.68C21.5537 22.52 21.8897 22.28 22.2737 21.96V17.928C22.1137 17.96 21.9537 17.992 21.7937 18.024C21.6337 18.056 21.4497 18.088 21.2417 18.12C20.5057 18.312 19.9137 18.64 19.4657 19.104C19.0337 19.552 18.8177 20.16 18.8177 20.928C18.8177 21.584 18.9697 22.08 19.2737 22.416C19.5777 22.736 19.9457 22.896 20.3777 22.896ZM30.7116 10.848C30.1676 10.848 29.7036 10.68 29.3196 10.344C28.9516 9.992 28.7676 9.552 28.7676 9.024C28.7676 8.48 28.9516 8.04 29.3196 7.704C29.7036 7.368 30.1676 7.2 30.7116 7.2C31.2556 7.2 31.7116 7.368 32.0796 7.704C32.4476 8.04 32.6316 8.48 32.6316 9.024C32.6316 9.552 32.4476 9.992 32.0796 10.344C31.7116 10.68 31.2556 10.848 30.7116 10.848ZM27.8796 24V23.76L28.2156 23.664C28.5356 23.568 28.7516 23.424 28.8636 23.232C28.9916 23.04 29.0556 22.784 29.0556 22.464V14.952C29.0556 14.616 28.9916 14.368 28.8636 14.208C28.7516 14.032 28.5356 13.912 28.2156 13.848L27.8796 13.776V13.536L32.2716 12.12L32.5116 12.36L32.4396 15.768V22.488C32.4396 22.808 32.4956 23.064 32.6076 23.256C32.7356 23.448 32.9516 23.592 33.2556 23.688L33.4956 23.76V24H27.8796ZM34.5581 24V23.76L34.8941 23.664C35.4541 23.504 35.7341 23.112 35.7341 22.488V14.976C35.7341 14.624 35.6781 14.368 35.5661 14.208C35.4541 14.032 35.2381 13.912 34.9181 13.848L34.5581 13.752V13.512L38.6621 12.12L38.9021 12.36L39.0941 13.8C39.6541 13.304 40.2861 12.896 40.9901 12.576C41.6941 12.256 42.3901 12.096 43.0781 12.096C44.1341 12.096 44.9421 12.384 45.5021 12.96C46.0781 13.536 46.3661 14.416 46.3661 15.6V22.512C46.3661 23.136 46.6701 23.528 47.2781 23.688L47.4941 23.76V24H41.8301V23.76L42.1421 23.664C42.7021 23.488 42.9821 23.096 42.9821 22.488V14.832C42.9821 13.808 42.4701 13.296 41.4461 13.296C40.7421 13.296 39.9741 13.648 39.1421 14.352V22.512C39.1421 23.136 39.4221 23.528 39.9821 23.688L40.1981 23.76V24H34.5581ZM48.4331 24V23.76L48.7691 23.664C49.0731 23.584 49.2811 23.448 49.3931 23.256C49.5211 23.064 49.5931 22.808 49.6091 22.488V14.976C49.6091 14.624 49.5531 14.368 49.4411 14.208C49.3291 14.032 49.1131 13.912 48.7931 13.848L48.4331 13.752V13.512L52.5371 12.12L52.7771 12.36L52.9691 13.992C53.4971 13.464 54.0971 13.016 54.7691 12.648C55.4571 12.28 56.1691 12.096 56.9051 12.096C57.6731 12.096 58.2891 12.256 58.7531 12.576C59.2171 12.88 59.5691 13.36 59.8091 14.016C60.4331 13.424 61.1051 12.96 61.8251 12.624C62.5611 12.272 63.2731 12.096 63.9611 12.096C65.0971 12.096 65.9291 12.368 66.4571 12.912C67.0011 13.456 67.2731 14.312 67.2731 15.48V22.512C67.2731 23.136 67.5611 23.528 68.1371 23.688L68.4011 23.76V24H62.8571V23.76L63.0971 23.688C63.4011 23.592 63.6091 23.448 63.7211 23.256C63.8491 23.064 63.9131 22.808 63.9131 22.488V15.144C63.9131 14.472 63.7931 14.016 63.5531 13.776C63.3131 13.52 62.9291 13.392 62.4011 13.392C61.9851 13.392 61.5771 13.488 61.1771 13.68C60.7931 13.856 60.3851 14.128 59.9531 14.496C60.0331 14.752 60.0811 15.032 60.0971 15.336C60.1291 15.64 60.1451 15.96 60.1451 16.296V22.512C60.1611 23.136 60.4491 23.528 61.0091 23.688L61.2251 23.76V24H55.6571V23.76L55.9931 23.664C56.2971 23.568 56.5051 23.432 56.6171 23.256C56.7451 23.064 56.8091 22.808 56.8091 22.488V15.168C56.8091 14.528 56.6891 14.072 56.4491 13.8C56.2251 13.528 55.8331 13.392 55.2731 13.392C54.9051 13.392 54.5371 13.488 54.1691 13.68C53.8011 13.856 53.4171 14.12 53.0171 14.472V22.512C53.0171 23.136 53.2971 23.528 53.8571 23.688L54.0731 23.76V24H48.4331ZM72.7028 24.36C71.7748 24.36 70.9908 24.096 70.3508 23.568C69.7268 23.04 69.4148 22.28 69.4148 21.288C69.4148 20.536 69.7988 19.848 70.5668 19.224C71.3348 18.584 72.5428 18.104 74.1908 17.784C74.4468 17.736 74.7348 17.688 75.0547 17.64C75.3748 17.576 75.7108 17.512 76.0628 17.448V15.552C76.0628 14.464 75.9268 13.704 75.6548 13.272C75.3988 12.824 74.9908 12.6 74.4308 12.6C74.0468 12.6 73.7428 12.728 73.5188 12.984C73.2948 13.224 73.1508 13.648 73.0868 14.256L73.0388 14.52C73.0068 15.208 72.8388 15.712 72.5348 16.032C72.2308 16.352 71.8548 16.512 71.4068 16.512C70.9908 16.512 70.6468 16.384 70.3748 16.128C70.1028 15.872 69.9668 15.528 69.9668 15.096C69.9668 14.44 70.1908 13.888 70.6388 13.44C71.1028 12.992 71.7108 12.656 72.4628 12.432C73.2148 12.208 74.0308 12.096 74.9108 12.096C76.3348 12.096 77.4308 12.448 78.1988 13.152C78.9828 13.84 79.3748 14.968 79.3748 16.536V21.84C79.3748 22.56 79.7108 22.92 80.3828 22.92H80.9108L81.1268 23.112C80.8228 23.496 80.4868 23.792 80.1188 24C79.7668 24.208 79.2628 24.312 78.6068 24.312C77.9028 24.312 77.3428 24.152 76.9268 23.832C76.5268 23.496 76.2628 23.056 76.1348 22.512C75.6548 23.024 75.1588 23.464 74.6468 23.832C74.1508 24.184 73.5028 24.36 72.7028 24.36ZM74.1668 22.896C74.4868 22.896 74.7828 22.824 75.0547 22.68C75.3428 22.52 75.6788 22.28 76.0628 21.96V17.928C75.9028 17.96 75.7428 17.992 75.5828 18.024C75.4228 18.056 75.2388 18.088 75.0308 18.12C74.2948 18.312 73.7028 18.64 73.2548 19.104C72.8228 19.552 72.6068 20.16 72.6068 20.928C72.6068 21.584 72.7588 22.08 73.0628 22.416C73.3668 22.736 73.7348 22.896 74.1668 22.896ZM81.6686 24V23.76L82.0286 23.64C82.5726 23.464 82.8446 23.072 82.8446 22.464V9.624C82.8446 9.304 82.7806 9.064 82.6526 8.904C82.5246 8.744 82.3006 8.616 81.9806 8.52L81.6686 8.448V8.208L86.0606 7.176L86.3486 7.392L86.2766 10.752V22.464C86.2766 23.104 86.5406 23.504 87.0686 23.664L87.4046 23.76V24H81.6686ZM90.5726 24L86.3006 18L90.7406 13.896C90.9486 13.704 91.0686 13.504 91.1006 13.296C91.1486 13.072 91.0126 12.912 90.6926 12.816L90.2846 12.696V12.456H93.8606V12.696L93.1406 12.888C92.7886 13 92.5006 13.136 92.2766 13.296C92.0686 13.44 91.8126 13.648 91.5086 13.92L88.8206 16.44L93.1166 22.416C93.3726 22.768 93.6126 23.04 93.8366 23.232C94.0606 23.424 94.3486 23.584 94.7006 23.712L94.7966 23.76V24H90.5726ZM101.145 12.096C102.185 12.096 103.073 12.312 103.809 12.744C104.545 13.16 105.105 13.736 105.489 14.472C105.889 15.192 106.089 16.016 106.089 16.944C106.089 17.12 106.081 17.304 106.065 17.496C106.049 17.672 106.017 17.832 105.969 17.976H98.8166C98.8326 19.704 99.1366 20.952 99.7286 21.72C100.337 22.472 101.233 22.848 102.417 22.848C103.217 22.848 103.865 22.72 104.361 22.464C104.857 22.208 105.321 21.832 105.753 21.336L105.993 21.552C105.497 22.432 104.833 23.12 104.001 23.616C103.185 24.112 102.201 24.36 101.049 24.36C99.9126 24.36 98.9046 24.12 98.0246 23.64C97.1446 23.144 96.4566 22.44 95.9606 21.528C95.4646 20.616 95.2166 19.528 95.2166 18.264C95.2166 16.952 95.5046 15.84 96.0806 14.928C96.6566 14 97.3926 13.296 98.2886 12.816C99.2006 12.336 100.153 12.096 101.145 12.096ZM101.073 12.576C100.609 12.576 100.209 12.72 99.8726 13.008C99.5526 13.28 99.2966 13.776 99.1046 14.496C98.9286 15.2 98.8326 16.2 98.8166 17.496H102.921C103.081 15.752 103.017 14.496 102.729 13.728C102.441 12.96 101.889 12.576 101.073 12.576ZM107.285 24V23.76L107.645 23.664C107.965 23.568 108.181 23.424 108.293 23.232C108.421 23.04 108.485 22.792 108.485 22.488V14.976C108.485 14.624 108.421 14.368 108.293 14.208C108.181 14.032 107.965 13.912 107.645 13.848L107.285 13.752V13.512L111.413 12.12L111.653 12.36L111.869 14.424V14.616C112.093 14.168 112.381 13.76 112.733 13.392C113.101 13.008 113.501 12.696 113.933 12.456C114.381 12.216 114.821 12.096 115.253 12.096C115.861 12.096 116.325 12.264 116.645 12.6C116.965 12.936 117.125 13.36 117.125 13.872C117.125 14.416 116.965 14.84 116.645 15.144C116.341 15.432 115.973 15.576 115.541 15.576C114.869 15.576 114.277 15.24 113.765 14.568L113.717 14.52C113.557 14.296 113.373 14.176 113.165 14.16C112.957 14.128 112.765 14.224 112.589 14.448C112.429 14.592 112.293 14.768 112.181 14.976C112.085 15.168 111.989 15.392 111.893 15.648V22.344C111.893 22.984 112.173 23.384 112.733 23.544L113.501 23.76V24H107.285Z" fill="#2F80ED"/>
<path d="M1.1022 38.2667V28.4667H4.50165C5.18338 28.4667 5.74535 28.5787 6.18756 28.8027C6.63898 29.0173 6.97523 29.316 7.19634 29.6987C7.41744 30.072 7.52799 30.492 7.52799 30.9587C7.52799 31.5933 7.35756 32.0927 7.01669 32.4567C6.68504 32.8207 6.28429 33.0727 5.81445 33.2127C6.17374 33.278 6.50079 33.4227 6.79559 33.6467C7.09039 33.8707 7.32071 34.1507 7.48653 34.4867C7.66157 34.8227 7.74909 35.1913 7.74909 35.5927C7.74909 36.0873 7.62933 36.54 7.3898 36.9507C7.15027 37.352 6.79559 37.674 6.32575 37.9167C5.8559 38.15 5.28472 38.2667 4.6122 38.2667H1.1022ZM2.26299 32.7507H4.41874C5.03598 32.7507 5.51043 32.606 5.84209 32.3167C6.17374 32.018 6.33957 31.6073 6.33957 31.0847C6.33957 30.59 6.17374 30.1933 5.84209 29.8947C5.51964 29.596 5.03138 29.4467 4.37728 29.4467H2.26299V32.7507ZM2.26299 37.2867H4.48783C5.15114 37.2867 5.66244 37.1327 6.02173 36.8247C6.38102 36.5073 6.56067 36.0687 6.56067 35.5087C6.56067 34.958 6.37181 34.5193 5.99409 34.1927C5.61638 33.8567 5.10508 33.6887 4.4602 33.6887H2.26299V37.2867ZM11.8472 38.4347C11.0365 38.4347 10.3916 38.1873 9.91262 37.6927C9.43356 37.1887 9.19403 36.4187 9.19403 35.3827V31.3227H10.3548V35.2567C10.3548 36.7033 10.9398 37.4267 12.1098 37.4267C12.7086 37.4267 13.2015 37.212 13.5884 36.7827C13.9845 36.344 14.1826 35.7233 14.1826 34.9207V31.3227H15.3434V38.2667H14.2932L14.2103 37.0207C13.9984 37.4593 13.6805 37.8047 13.2568 38.0567C12.8422 38.3087 12.3723 38.4347 11.8472 38.4347ZM19.8797 38.4347C19.0598 38.4347 18.378 38.2247 17.8345 37.8047C17.291 37.3847 16.9731 36.8153 16.881 36.0967H18.0694C18.1431 36.4607 18.332 36.778 18.636 37.0487C18.9492 37.31 19.3684 37.4407 19.8935 37.4407C20.3818 37.4407 20.7411 37.338 20.9714 37.1327C21.2017 36.918 21.3169 36.666 21.3169 36.3767C21.3169 35.9567 21.1648 35.6767 20.8608 35.5367C20.566 35.3967 20.1469 35.2707 19.6033 35.1587C19.2348 35.084 18.8663 34.9767 18.4978 34.8367C18.1293 34.6967 17.8207 34.5007 17.5719 34.2487C17.3232 33.9873 17.1988 33.6467 17.1988 33.2267C17.1988 32.62 17.4199 32.1253 17.8621 31.7427C18.3135 31.3507 18.9216 31.1547 19.6862 31.1547C20.414 31.1547 21.0082 31.3413 21.4689 31.7147C21.9387 32.0787 22.2105 32.6013 22.2842 33.2827H21.1372C21.0911 32.928 20.9391 32.6527 20.6812 32.4567C20.4324 32.2513 20.0962 32.1487 19.6724 32.1487C19.2578 32.1487 18.9354 32.2373 18.7051 32.4147C18.484 32.592 18.3734 32.8253 18.3734 33.1147C18.3734 33.3947 18.5162 33.614 18.8018 33.7727C19.0966 33.9313 19.4928 34.0667 19.9902 34.1787C20.414 34.272 20.8148 34.3887 21.1925 34.5287C21.5794 34.6593 21.8926 34.86 22.1322 35.1307C22.3809 35.392 22.5053 35.7747 22.5053 36.2787C22.5145 36.904 22.2796 37.422 21.8005 37.8327C21.3307 38.234 20.6904 38.4347 19.8797 38.4347ZM24.8683 29.7827C24.638 29.7827 24.4445 29.708 24.2879 29.5587C24.1405 29.4 24.0668 29.204 24.0668 28.9707C24.0668 28.7467 24.1405 28.56 24.2879 28.4107C24.4445 28.2613 24.638 28.1867 24.8683 28.1867C25.0894 28.1867 25.2783 28.2613 25.4349 28.4107C25.5915 28.56 25.6698 28.7467 25.6698 28.9707C25.6698 29.204 25.5915 29.4 25.4349 29.5587C25.2783 29.708 25.0894 29.7827 24.8683 29.7827ZM24.2879 38.2667V31.3227H25.4487V38.2667H24.2879ZM27.4699 38.2667V31.3227H28.5201L28.5892 32.5687C28.8103 32.13 29.1281 31.7847 29.5427 31.5327C29.9573 31.2807 30.4271 31.1547 30.9522 31.1547C31.7629 31.1547 32.4078 31.4067 32.8869 31.9107C33.3751 32.4053 33.6193 33.1707 33.6193 34.2067V38.2667H32.4585V34.3327C32.4585 32.886 31.8689 32.1627 30.6897 32.1627C30.1001 32.1627 29.6072 32.382 29.211 32.8207C28.8241 33.25 28.6306 33.866 28.6306 34.6687V38.2667H27.4699ZM38.4596 38.4347C37.8055 38.4347 37.2251 38.2853 36.7184 37.9867C36.2117 37.6787 35.8109 37.254 35.5161 36.7127C35.2306 36.1713 35.0878 35.532 35.0878 34.7947C35.0878 34.0667 35.2306 33.432 35.5161 32.8907C35.8017 32.34 36.1979 31.9153 36.7046 31.6167C37.2205 31.3087 37.8147 31.1547 38.4872 31.1547C39.1505 31.1547 39.7217 31.3087 40.2007 31.6167C40.689 31.9153 41.0621 32.312 41.3201 32.8067C41.578 33.3013 41.707 33.8333 41.707 34.4027C41.707 34.5053 41.7024 34.608 41.6932 34.7107C41.6932 34.8133 41.6932 34.93 41.6932 35.0607H36.2347C36.2624 35.5927 36.3821 36.036 36.594 36.3907C36.8151 36.736 37.0869 36.9973 37.4093 37.1747C37.741 37.352 38.0911 37.4407 38.4596 37.4407C38.9386 37.4407 39.3394 37.3287 39.6618 37.1047C39.9843 36.8807 40.2192 36.5773 40.3666 36.1947H41.5135C41.3293 36.8387 40.9746 37.3753 40.4495 37.8047C39.9336 38.2247 39.2703 38.4347 38.4596 38.4347ZM38.4596 32.1487C37.9068 32.1487 37.4139 32.3213 36.9809 32.6667C36.5572 33.0027 36.313 33.4973 36.2485 34.1507H40.56C40.5324 33.5253 40.3205 33.0353 39.9244 32.6807C39.5282 32.326 39.04 32.1487 38.4596 32.1487ZM45.8711 38.4347C45.0512 38.4347 44.3694 38.2247 43.8259 37.8047C43.2824 37.3847 42.9645 36.8153 42.8724 36.0967H44.0608C44.1345 36.4607 44.3234 36.778 44.6274 37.0487C44.9406 37.31 45.3598 37.4407 45.8849 37.4407C46.3732 37.4407 46.7325 37.338 46.9628 37.1327C47.1931 36.918 47.3083 36.666 47.3083 36.3767C47.3083 35.9567 47.1563 35.6767 46.8522 35.5367C46.5574 35.3967 46.1383 35.2707 45.5947 35.1587C45.2262 35.084 44.8577 34.9767 44.4892 34.8367C44.1207 34.6967 43.8121 34.5007 43.5633 34.2487C43.3146 33.9873 43.1902 33.6467 43.1902 33.2267C43.1902 32.62 43.4113 32.1253 43.8535 31.7427C44.305 31.3507 44.913 31.1547 45.6776 31.1547C46.4054 31.1547 46.9996 31.3413 47.4603 31.7147C47.9301 32.0787 48.2019 32.6013 48.2756 33.2827H47.1286C47.0826 32.928 46.9305 32.6527 46.6726 32.4567C46.4239 32.2513 46.0876 32.1487 45.6638 32.1487C45.2493 32.1487 44.9268 32.2373 44.6965 32.4147C44.4754 32.592 44.3648 32.8253 44.3648 33.1147C44.3648 33.3947 44.5076 33.614 44.7932 33.7727C45.088 33.9313 45.4842 34.0667 45.9817 34.1787C46.4054 34.272 46.8062 34.3887 47.1839 34.5287C47.5708 34.6593 47.8841 34.86 48.1236 35.1307C48.3723 35.392 48.4967 35.7747 48.4967 36.2787C48.5059 36.904 48.271 37.422 47.7919 37.8327C47.3221 38.234 46.6818 38.4347 45.8711 38.4347ZM52.7806 38.4347C51.9606 38.4347 51.2789 38.2247 50.7354 37.8047C50.1918 37.3847 49.874 36.8153 49.7818 36.0967H50.9703C51.044 36.4607 51.2328 36.778 51.5369 37.0487C51.8501 37.31 52.2693 37.4407 52.7944 37.4407C53.2826 37.4407 53.6419 37.338 53.8722 37.1327C54.1026 36.918 54.2177 36.666 54.2177 36.3767C54.2177 35.9567 54.0657 35.6767 53.7617 35.5367C53.4669 35.3967 53.0477 35.2707 52.5042 35.1587C52.1357 35.084 51.7672 34.9767 51.3987 34.8367C51.0302 34.6967 50.7215 34.5007 50.4728 34.2487C50.2241 33.9873 50.0997 33.6467 50.0997 33.2267C50.0997 32.62 50.3208 32.1253 50.763 31.7427C51.2144 31.3507 51.8224 31.1547 52.5871 31.1547C53.3149 31.1547 53.9091 31.3413 54.3697 31.7147C54.8396 32.0787 55.1113 32.6013 55.185 33.2827H54.0381C53.992 32.928 53.84 32.6527 53.582 32.4567C53.3333 32.2513 52.997 32.1487 52.5733 32.1487C52.1587 32.1487 51.8363 32.2373 51.6059 32.4147C51.3848 32.592 51.2743 32.8253 51.2743 33.1147C51.2743 33.3947 51.4171 33.614 51.7027 33.7727C51.9975 33.9313 52.3936 34.0667 52.8911 34.1787C53.3149 34.272 53.7156 34.3887 54.0933 34.5287C54.4803 34.6593 54.7935 34.86 55.033 35.1307C55.2818 35.392 55.4061 35.7747 55.4061 36.2787C55.4154 36.904 55.1804 37.422 54.7014 37.8327C54.2315 38.234 53.5913 38.4347 52.7806 38.4347ZM60.1826 38.2667L63.7479 28.4667H64.9778L68.5292 38.2667H67.2993L66.4149 35.7467H62.2969L61.3987 38.2667H60.1826ZM62.6424 34.7947H66.0695L64.3559 29.9507L62.6424 34.7947ZM69.8982 38.2667V31.3227H70.9484L71.0175 32.5687C71.2386 32.13 71.5565 31.7847 71.971 31.5327C72.3856 31.2807 72.8555 31.1547 73.3806 31.1547C74.1913 31.1547 74.8362 31.4067 75.3152 31.9107C75.8035 32.4053 76.0476 33.1707 76.0476 34.2067V38.2667H74.8868V34.3327C74.8868 32.886 74.2972 32.1627 73.118 32.1627C72.5284 32.1627 72.0355 32.382 71.6394 32.8207C71.2525 33.25 71.059 33.866 71.059 34.6687V38.2667H69.8982ZM80.0864 38.4347C79.5152 38.4347 79.0408 38.3367 78.6631 38.1407C78.2854 37.9447 78.0044 37.6833 77.8201 37.3567C77.6359 37.03 77.5437 36.6753 77.5437 36.2927C77.5437 35.5833 77.8109 35.0373 78.3452 34.6547C78.8796 34.272 79.6074 34.0807 80.5286 34.0807H82.3804V33.9967C82.3804 33.39 82.2237 32.9327 81.9105 32.6247C81.5973 32.3073 81.1781 32.1487 80.653 32.1487C80.2016 32.1487 79.81 32.2653 79.4784 32.4987C79.1559 32.7227 78.9533 33.054 78.8704 33.4927H77.6819C77.728 32.9887 77.8938 32.564 78.1794 32.2187C78.4742 31.8733 78.8381 31.612 79.2711 31.4347C79.7041 31.248 80.1647 31.1547 80.653 31.1547C81.6111 31.1547 82.3297 31.416 82.8087 31.9387C83.297 32.452 83.5411 33.138 83.5411 33.9967V38.2667H82.5047L82.4356 37.0207C82.2422 37.4127 81.9566 37.7487 81.5789 38.0287C81.2104 38.2993 80.7129 38.4347 80.0864 38.4347ZM80.2661 37.4407C80.7083 37.4407 81.086 37.324 81.3992 37.0907C81.7216 36.8573 81.9658 36.554 82.1316 36.1807C82.2974 35.8073 82.3804 35.4153 82.3804 35.0047V34.9907H80.6254C79.9436 34.9907 79.46 35.112 79.1744 35.3547C78.898 35.588 78.7598 35.882 78.7598 36.2367C78.7598 36.6007 78.8888 36.8947 79.1467 37.1187C79.4139 37.3333 79.787 37.4407 80.2661 37.4407ZM85.2825 38.2667V28.1867H86.4433V38.2667H85.2825ZM89.0921 41.3467L90.7918 37.5947H90.3911L87.6688 31.3227H88.9263L91.1926 36.7267L93.5967 31.3227H94.7989L90.3082 41.3467H89.0921ZM98.7327 38.2667C98.1063 38.2667 97.6134 38.1127 97.2541 37.8047C96.8948 37.4967 96.7152 36.9413 96.7152 36.1387V32.3167H95.5267V31.3227H96.7152L96.8672 29.6567H97.8759V31.3227H99.8935V32.3167H97.8759V36.1387C97.8759 36.5773 97.9635 36.876 98.1385 37.0347C98.3135 37.184 98.6222 37.2587 99.0644 37.2587H99.783V38.2667H98.7327ZM102.073 29.7827C101.843 29.7827 101.649 29.708 101.493 29.5587C101.345 29.4 101.272 29.204 101.272 28.9707C101.272 28.7467 101.345 28.56 101.493 28.4107C101.649 28.2613 101.843 28.1867 102.073 28.1867C102.294 28.1867 102.483 28.2613 102.64 28.4107C102.796 28.56 102.875 28.7467 102.875 28.9707C102.875 29.204 102.796 29.4 102.64 29.5587C102.483 29.708 102.294 29.7827 102.073 29.7827ZM101.493 38.2667V31.3227H102.654V38.2667H101.493ZM107.826 38.4347C107.171 38.4347 106.582 38.2853 106.057 37.9867C105.541 37.6787 105.131 37.254 104.827 36.7127C104.532 36.162 104.385 35.5227 104.385 34.7947C104.385 34.0667 104.532 33.432 104.827 32.8907C105.131 32.34 105.541 31.9153 106.057 31.6167C106.582 31.3087 107.171 31.1547 107.826 31.1547C108.636 31.1547 109.318 31.3693 109.871 31.7987C110.433 32.228 110.787 32.802 110.935 33.5207H109.746C109.654 33.0913 109.429 32.76 109.069 32.5267C108.71 32.284 108.291 32.1627 107.812 32.1627C107.425 32.1627 107.061 32.2607 106.72 32.4567C106.379 32.6527 106.103 32.9467 105.891 33.3387C105.679 33.7307 105.573 34.216 105.573 34.7947C105.573 35.3733 105.679 35.8587 105.891 36.2507C106.103 36.6427 106.379 36.9413 106.72 37.1467C107.061 37.3427 107.425 37.4407 107.812 37.4407C108.291 37.4407 108.71 37.324 109.069 37.0907C109.429 36.848 109.654 36.5073 109.746 36.0687H110.935C110.797 36.7687 110.447 37.338 109.885 37.7767C109.323 38.2153 108.636 38.4347 107.826 38.4347ZM115.182 38.4347C114.362 38.4347 113.68 38.2247 113.137 37.8047C112.593 37.3847 112.275 36.8153 112.183 36.0967H113.372C113.445 36.4607 113.634 36.778 113.938 37.0487C114.251 37.31 114.671 37.4407 115.196 37.4407C115.684 37.4407 116.043 37.338 116.274 37.1327C116.504 36.918 116.619 36.666 116.619 36.3767C116.619 35.9567 116.467 35.6767 116.163 35.5367C115.868 35.3967 115.449 35.2707 114.905 35.1587C114.537 35.084 114.168 34.9767 113.8 34.8367C113.431 34.6967 113.123 34.5007 112.874 34.2487C112.625 33.9873 112.501 33.6467 112.501 33.2267C112.501 32.62 112.722 32.1253 113.164 31.7427C113.616 31.3507 114.224 31.1547 114.988 31.1547C115.716 31.1547 116.31 31.3413 116.771 31.7147C117.241 32.0787 117.513 32.6013 117.586 33.2827H116.439C116.393 32.928 116.241 32.6527 115.983 32.4567C115.735 32.2513 115.398 32.1487 114.975 32.1487C114.56 32.1487 114.238 32.2373 114.007 32.4147C113.786 32.592 113.676 32.8253 113.676 33.1147C113.676 33.3947 113.818 33.614 114.104 33.7727C114.399 33.9313 114.795 34.0667 115.292 34.1787C115.716 34.272 116.117 34.3887 116.495 34.5287C116.882 34.6593 117.195 34.86 117.434 35.1307C117.683 35.392 117.807 35.7747 117.807 36.2787C117.817 36.904 117.582 37.422 117.103 37.8327C116.633 38.234 115.993 38.4347 115.182 38.4347Z" fill="#A2A2A2"/>
</svg>
