<svg width="35" height="29" viewBox="0 0 35 29" fill="none" xmlns="http://www.w3.org/2000/svg">
<path d="M34.1449 4.17846C32.9201 4.7068 31.5873 5.08705 30.2144 5.23514C31.6398 4.38834 32.7072 3.05052 33.2163 1.4727C31.8788 2.26837 30.4135 2.82631 28.8855 3.12177C28.2469 2.43903 27.4745 1.89514 26.6165 1.52396C25.7584 1.15279 24.8332 0.962307 23.8983 0.964372C20.1158 0.964372 17.0739 4.03036 17.0739 7.7928C17.0739 8.32115 17.1379 8.84949 17.242 9.35782C11.5783 9.06163 6.52702 6.35587 3.16884 2.21318C2.55694 3.25832 2.23629 4.44834 2.24023 5.65942C2.24023 8.02896 3.44502 10.1183 5.28221 11.3471C4.19952 11.3045 3.14219 11.0069 2.19621 10.4785V10.5626C2.19621 13.8808 4.54173 16.6305 7.66776 17.2629C7.08081 17.4154 6.47701 17.4934 5.87059 17.4951C5.4263 17.4951 5.00603 17.4511 4.58175 17.391C5.44631 20.0968 7.96395 22.0621 10.9619 22.1261C8.61637 23.9633 5.67846 25.044 2.48839 25.044C1.91602 25.044 1.38768 25.024 0.839325 24.9599C3.86529 26.9012 7.45562 28.0219 11.3221 28.0219C23.8743 28.0219 30.7427 17.6232 30.7427 8.59733C30.7427 8.30113 30.7427 8.00494 30.7227 7.70875C32.0516 6.73612 33.2163 5.53134 34.1449 4.17846Z" fill="#2F80ED"/>
</svg>
