<svg width="34" height="29" viewBox="0 0 34 29" fill="none" xmlns="http://www.w3.org/2000/svg">
<path d="M33.665 4.17864C32.4402 4.70698 31.1073 5.08723 29.7344 5.23533C31.1598 4.38852 32.2272 3.05071 32.7364 1.47288C31.3988 2.26856 29.9336 2.8265 28.4056 3.12195C27.7669 2.43922 26.9945 1.89532 26.1365 1.52415C25.2785 1.15298 24.3532 0.96249 23.4183 0.964555C19.6359 0.964555 16.5939 4.03054 16.5939 7.79299C16.5939 8.32133 16.6579 8.84967 16.762 9.358C11.0983 9.06181 6.04707 6.35605 2.68889 2.21337C2.07699 3.25851 1.75634 4.44852 1.76028 5.6596C1.76028 8.02914 2.96507 10.1185 4.80226 11.3473C3.71957 11.3047 2.66224 11.0071 1.71626 10.4787V10.5628C1.71626 13.8809 4.06178 16.6307 7.18781 17.2631C6.60086 17.4156 5.99706 17.4936 5.39064 17.4953C4.94635 17.4953 4.52608 17.4513 4.1018 17.3912C4.96636 20.097 7.484 22.0622 10.4819 22.1263C8.13642 23.9635 5.19851 25.0442 2.00845 25.0442C1.43607 25.0442 0.907731 25.0242 0.359375 24.9601C3.38534 26.9014 6.97567 28.0221 10.8422 28.0221C23.3943 28.0221 30.2628 17.6234 30.2628 8.59751C30.2628 8.30132 30.2628 8.00512 30.2428 7.70893C31.5716 6.7363 32.7364 5.53152 33.665 4.17864Z" fill="white"/>
</svg>
